<?xml version="1.0" encoding="UTF-8"?>
<svg xmlns="http://www.w3.org/2000/svg" xmlns:xlink="http://www.w3.org/1999/xlink" width="41.88pt" height="36.74pt" viewBox="0 0 41.88 36.74">
<defs>
<clipPath id="clip-0">
<path clip-rule="nonzero" d="M 0.0859375 0 L 41.671875 0 L 41.671875 36.480469 L 0.0859375 36.480469 Z M 0.0859375 0 "/>
</clipPath>
</defs>
<g clip-path="url(#clip-0)">
<path fill-rule="nonzero" fill="rgb(48.243713%, 82.867432%, 86.631775%)" fill-opacity="1" d="M 19.605469 21.449219 L 28.316406 21.449219 L 25.480469 12.484375 Z M 40.929688 36.480469 L 32.578125 36.480469 C 32.238281 36.480469 31.941406 36.25 31.859375 35.917969 L 30.449219 30.230469 L 14.402344 30.230469 L 10.917969 36.117188 C 10.785156 36.34375 10.542969 36.480469 10.28125 36.480469 L 0.828125 36.480469 C 0.558594 36.480469 0.3125 36.335938 0.179688 36.101562 C 0.0507812 35.863281 0.0585938 35.574219 0.199219 35.347656 L 15.828125 10.316406 C 15.964844 10.097656 16.199219 9.964844 16.457031 9.964844 L 37.753906 9.964844 L 35.449219 1.484375 L 27.679688 1.484375 L 23.996094 7.378906 C 23.78125 7.726562 23.324219 7.835938 22.976562 7.617188 C 22.628906 7.398438 22.523438 6.941406 22.738281 6.59375 L 26.640625 0.347656 C 26.773438 0.132812 27.011719 0 27.269531 0 L 36.019531 0 C 36.355469 0 36.648438 0.222656 36.734375 0.546875 L 39.4375 10.515625 C 39.5 10.738281 39.453125 10.976562 39.3125 11.160156 C 39.171875 11.34375 38.953125 11.449219 38.722656 11.449219 L 26.710938 11.449219 L 30.035156 21.964844 C 30.109375 22.191406 30.066406 22.4375 29.929688 22.628906 C 29.789062 22.820312 29.566406 22.929688 29.328125 22.929688 L 18.230469 22.929688 C 17.957031 22.929688 17.707031 22.78125 17.578125 22.542969 C 17.449219 22.300781 17.460938 22.011719 17.609375 21.78125 L 24.386719 11.449219 L 16.867188 11.449219 L 2.167969 35 L 9.859375 35 L 13.339844 29.113281 C 13.476562 28.886719 13.71875 28.75 13.980469 28.75 L 31.03125 28.75 C 31.371094 28.75 31.667969 28.980469 31.75 29.3125 L 33.160156 35 L 39.960938 35 L 34.390625 14.484375 C 34.285156 14.089844 34.515625 13.679688 34.914062 13.574219 C 35.304688 13.46875 35.714844 13.699219 35.824219 14.097656 L 41.644531 35.546875 C 41.707031 35.769531 41.660156 36.007812 41.519531 36.191406 C 41.378906 36.375 41.160156 36.480469 40.929688 36.480469 "/>
</g>
</svg>
