<?xml version="1.0" encoding="UTF-8"?>
<svg xmlns="http://www.w3.org/2000/svg" xmlns:xlink="http://www.w3.org/1999/xlink" width="40.76pt" height="38.35pt" viewBox="0 0 40.76 38.35">
<defs>
<clipPath id="clip-0">
<path clip-rule="nonzero" d="M 0.222656 0 L 40.300781 0 L 40.300781 37.710938 L 0.222656 37.710938 Z M 0.222656 0 "/>
</clipPath>
</defs>
<g clip-path="url(#clip-0)">
<path fill-rule="nonzero" fill="rgb(48.243713%, 82.867432%, 86.631775%)" fill-opacity="1" d="M 16.949219 37.710938 C 6.632812 37.710938 0.222656 31.546875 0.222656 21.628906 C 0.222656 17.875 1.160156 14.214844 2.9375 11.035156 C 3.070312 10.804688 3.3125 10.660156 3.578125 10.660156 L 17.664062 10.660156 C 20.136719 8.410156 23.242188 7.175781 26.445312 7.175781 C 29.703125 7.175781 32.203125 8.082031 34.242188 10.011719 L 38.53125 6.078125 C 35.667969 3.058594 31.695312 1.46875 26.988281 1.46875 C 21.464844 1.46875 16.320312 3.429688 12.496094 6.996094 C 12.203125 7.273438 11.738281 7.257812 11.460938 6.960938 C 11.183594 6.664062 11.199219 6.199219 11.496094 5.921875 C 15.589844 2.101562 21.089844 -0.00390625 26.988281 -0.00390625 C 32.324219 -0.00390625 36.992188 2.003906 40.125 5.648438 C 40.382812 5.949219 40.355469 6.402344 40.0625 6.671875 L 34.714844 11.574219 C 34.417969 11.84375 33.957031 11.828125 33.679688 11.53125 C 31.820312 9.535156 29.589844 8.644531 26.445312 8.644531 C 23.527344 8.644531 20.6875 9.8125 18.457031 11.929688 C 18.320312 12.058594 18.140625 12.128906 17.953125 12.128906 L 4.015625 12.128906 C 2.492188 15 1.691406 18.273438 1.691406 21.628906 C 1.691406 30.640625 7.539062 36.242188 16.949219 36.242188 C 22.257812 36.242188 26.699219 34.753906 30.5 31.703125 L 27.171875 27.195312 C 24.558594 29.265625 21.21875 30.480469 18.085938 30.480469 C 12.226562 30.480469 8.441406 26.851562 8.441406 21.230469 C 8.441406 19.300781 8.824219 17.421875 9.582031 15.644531 C 9.742188 15.269531 10.167969 15.097656 10.546875 15.257812 C 10.917969 15.414062 11.09375 15.847656 10.933594 16.21875 C 10.253906 17.8125 9.910156 19.5 9.910156 21.230469 C 9.910156 26.03125 13.042969 29.011719 18.085938 29.011719 C 21.121094 29.011719 24.382812 27.730469 26.808594 25.582031 C 26.964844 25.445312 27.167969 25.378906 27.375 25.402344 C 27.578125 25.421875 27.765625 25.53125 27.886719 25.695312 L 32.097656 31.390625 C 32.324219 31.699219 32.277344 32.136719 31.984375 32.386719 C 27.785156 35.96875 22.867188 37.710938 16.949219 37.710938 "/>
</g>
</svg>
