<?xml version="1.0" encoding="UTF-8"?>
<svg xmlns="http://www.w3.org/2000/svg" xmlns:xlink="http://www.w3.org/1999/xlink" width="230.27pt" height="38.4pt" viewBox="0 0 230.27 38.4">
<defs>
<clipPath id="clip-0">
<path clip-rule="nonzero" d="M 1.410156 0 L 42 0 L 42 37.808594 L 1.410156 37.808594 Z M 1.410156 0 "/>
</clipPath>
<clipPath id="clip-1">
<path clip-rule="nonzero" d="M 35 0 L 72 0 L 72 37.808594 L 35 37.808594 Z M 35 0 "/>
</clipPath>
<clipPath id="clip-2">
<path clip-rule="nonzero" d="M 70 0 L 112 0 L 112 37.808594 L 70 37.808594 Z M 70 0 "/>
</clipPath>
<clipPath id="clip-3">
<path clip-rule="nonzero" d="M 113 7 L 149 7 L 149 37.808594 L 113 37.808594 Z M 113 7 "/>
</clipPath>
<clipPath id="clip-4">
<path clip-rule="nonzero" d="M 152 0 L 194 0 L 194 37.808594 L 152 37.808594 Z M 152 0 "/>
</clipPath>
<clipPath id="clip-5">
<path clip-rule="nonzero" d="M 189 0 L 228.140625 0 L 228.140625 37.808594 L 189 37.808594 Z M 189 0 "/>
</clipPath>
</defs>
<g clip-path="url(#clip-0)">
<path fill-rule="nonzero" fill="rgb(48.243713%, 82.867432%, 86.631775%)" fill-opacity="1" d="M 18.160156 37.808594 C 7.828125 37.808594 1.410156 31.636719 1.410156 21.703125 C 1.410156 17.949219 2.351562 14.28125 4.132812 11.101562 C 4.261719 10.867188 4.507812 10.722656 4.773438 10.722656 L 18.875 10.722656 C 21.351562 8.472656 24.460938 7.234375 27.667969 7.234375 C 30.933594 7.234375 33.433594 8.140625 35.476562 10.074219 L 39.773438 6.136719 C 36.90625 3.113281 32.925781 1.519531 28.214844 1.519531 C 22.683594 1.519531 17.53125 3.484375 13.703125 7.054688 C 13.40625 7.332031 12.941406 7.316406 12.664062 7.019531 C 12.386719 6.722656 12.402344 6.257812 12.699219 5.980469 C 16.800781 2.152344 22.308594 0.046875 28.214844 0.046875 C 33.558594 0.046875 38.230469 2.058594 41.367188 5.707031 C 41.625 6.007812 41.597656 6.460938 41.304688 6.726562 L 35.949219 11.636719 C 35.652344 11.910156 35.191406 11.894531 34.914062 11.597656 C 33.054688 9.597656 30.816406 8.707031 27.667969 8.707031 C 24.746094 8.707031 21.90625 9.875 19.671875 11.992188 C 19.535156 12.121094 19.351562 12.195312 19.164062 12.195312 L 5.210938 12.195312 C 3.6875 15.070312 2.882812 18.347656 2.882812 21.703125 C 2.882812 30.730469 8.738281 36.339844 18.160156 36.339844 C 23.476562 36.339844 27.921875 34.851562 31.730469 31.792969 L 28.394531 27.28125 C 25.78125 29.351562 22.4375 30.570312 19.300781 30.570312 C 13.433594 30.570312 9.640625 26.933594 9.640625 21.308594 C 9.640625 19.375 10.027344 17.492188 10.785156 15.714844 C 10.941406 15.339844 11.371094 15.167969 11.75 15.324219 C 12.121094 15.484375 12.296875 15.917969 12.136719 16.289062 C 11.457031 17.886719 11.113281 19.574219 11.113281 21.308594 C 11.113281 26.113281 14.25 29.097656 19.300781 29.097656 C 22.339844 29.097656 25.605469 27.816406 28.035156 25.664062 C 28.191406 25.527344 28.394531 25.460938 28.601562 25.484375 C 28.804688 25.507812 28.992188 25.613281 29.113281 25.777344 L 33.328125 31.480469 C 33.558594 31.789062 33.507812 32.226562 33.214844 32.476562 C 29.011719 36.066406 24.085938 37.808594 18.160156 37.808594 "/>
</g>
<g clip-path="url(#clip-1)">
<path fill-rule="nonzero" fill="rgb(48.243713%, 82.867432%, 86.631775%)" fill-opacity="1" d="M 67.488281 37.015625 L 59.257812 37.015625 C 59.042969 37.015625 58.835938 36.917969 58.695312 36.753906 C 58.554688 36.585938 58.496094 36.367188 58.535156 36.152344 L 60.8125 23.082031 L 47.730469 23.082031 L 45.40625 36.40625 C 45.347656 36.757812 45.039062 37.015625 44.683594 37.015625 L 36.402344 37.015625 C 36.1875 37.015625 35.980469 36.917969 35.839844 36.753906 C 35.699219 36.585938 35.640625 36.367188 35.679688 36.152344 L 40.039062 11.332031 C 40.101562 10.980469 40.40625 10.722656 40.765625 10.722656 L 52.964844 10.722656 L 54.453125 2.3125 L 47.667969 2.3125 L 46.71875 7.722656 C 46.648438 8.125 46.265625 8.390625 45.867188 8.320312 C 45.464844 8.25 45.199219 7.871094 45.269531 7.46875 L 46.328125 1.449219 C 46.386719 1.097656 46.695312 0.839844 47.050781 0.839844 L 55.332031 0.839844 C 55.546875 0.839844 55.753906 0.9375 55.894531 1.101562 C 56.035156 1.269531 56.09375 1.488281 56.054688 1.703125 L 54.304688 11.585938 C 54.242188 11.9375 53.9375 12.195312 53.582031 12.195312 L 41.382812 12.195312 L 37.28125 35.542969 L 44.0625 35.542969 L 46.386719 22.222656 C 46.449219 21.871094 46.753906 21.613281 47.113281 21.613281 L 61.6875 21.613281 C 61.90625 21.613281 62.113281 21.707031 62.25 21.875 C 62.390625 22.042969 62.449219 22.261719 62.414062 22.476562 L 60.132812 35.542969 L 66.871094 35.542969 L 70.378906 15.578125 C 70.449219 15.175781 70.832031 14.910156 71.230469 14.980469 C 71.632812 15.050781 71.898438 15.433594 71.828125 15.832031 L 68.214844 36.40625 C 68.152344 36.757812 67.847656 37.015625 67.488281 37.015625 "/>
</g>
<path fill-rule="nonzero" fill="rgb(48.243713%, 82.867432%, 86.631775%)" fill-opacity="1" d="M 62.976562 15.746094 L 48.402344 15.746094 C 47.996094 15.746094 47.664062 15.417969 47.664062 15.011719 C 47.664062 14.605469 47.996094 14.273438 48.402344 14.273438 L 62.363281 14.273438 L 62.882812 11.332031 C 62.945312 10.980469 63.25 10.722656 63.605469 10.722656 L 75.882812 10.722656 L 77.371094 2.3125 L 70.585938 2.3125 L 69.636719 7.722656 C 69.566406 8.125 69.183594 8.390625 68.785156 8.320312 C 68.382812 8.25 68.117188 7.871094 68.1875 7.46875 L 69.246094 1.449219 C 69.304688 1.097656 69.613281 0.839844 69.96875 0.839844 L 78.25 0.839844 C 78.464844 0.839844 78.671875 0.9375 78.8125 1.101562 C 78.953125 1.269531 79.011719 1.488281 78.972656 1.703125 L 77.222656 11.585938 C 77.160156 11.9375 76.855469 12.195312 76.5 12.195312 L 64.222656 12.195312 L 63.703125 15.140625 C 63.640625 15.492188 63.335938 15.746094 62.976562 15.746094 "/>
<g clip-path="url(#clip-2)">
<path fill-rule="nonzero" fill="rgb(48.243713%, 82.867432%, 86.631775%)" fill-opacity="1" d="M 89.722656 22.109375 L 98.359375 22.109375 L 95.550781 13.222656 Z M 110.867188 37.015625 L 102.585938 37.015625 C 102.25 37.015625 101.953125 36.785156 101.875 36.457031 L 100.476562 30.820312 L 84.5625 30.820312 L 81.109375 36.65625 C 80.976562 36.878906 80.734375 37.015625 80.476562 37.015625 L 71.105469 37.015625 C 70.835938 37.015625 70.589844 36.871094 70.460938 36.636719 C 70.332031 36.402344 70.339844 36.117188 70.480469 35.890625 L 85.976562 11.070312 C 86.109375 10.855469 86.347656 10.722656 86.601562 10.722656 L 107.71875 10.722656 L 105.433594 2.3125 L 97.726562 2.3125 L 94.078125 8.160156 C 93.863281 8.503906 93.410156 8.609375 93.0625 8.394531 C 92.71875 8.179688 92.613281 7.726562 92.828125 7.378906 L 96.695312 1.1875 C 96.832031 0.972656 97.066406 0.839844 97.320312 0.839844 L 105.996094 0.839844 C 106.328125 0.839844 106.621094 1.0625 106.707031 1.382812 L 109.390625 11.265625 C 109.449219 11.488281 109.402344 11.722656 109.265625 11.90625 C 109.125 12.089844 108.910156 12.195312 108.679688 12.195312 L 96.765625 12.195312 L 100.066406 22.621094 C 100.136719 22.847656 100.097656 23.089844 99.957031 23.277344 C 99.820312 23.46875 99.597656 23.578125 99.363281 23.578125 L 88.359375 23.578125 C 88.089844 23.578125 87.839844 23.429688 87.710938 23.195312 C 87.582031 22.957031 87.59375 22.667969 87.742188 22.441406 L 94.464844 12.195312 L 87.007812 12.195312 L 72.429688 35.542969 L 80.058594 35.542969 L 83.511719 29.707031 C 83.644531 29.484375 83.882812 29.347656 84.144531 29.347656 L 101.050781 29.347656 C 101.390625 29.347656 101.683594 29.578125 101.765625 29.90625 L 103.160156 35.542969 L 109.90625 35.542969 L 104.382812 15.203125 C 104.277344 14.8125 104.507812 14.40625 104.902344 14.300781 C 105.289062 14.195312 105.699219 14.425781 105.804688 14.816406 L 111.578125 36.085938 C 111.636719 36.308594 111.589844 36.546875 111.453125 36.726562 C 111.3125 36.910156 111.097656 37.015625 110.867188 37.015625 "/>
</g>
<path fill-rule="nonzero" fill="rgb(48.243713%, 82.867432%, 86.631775%)" fill-opacity="1" d="M 134.214844 19.070312 L 125.589844 19.070312 C 125.371094 19.070312 125.164062 18.972656 125.027344 18.804688 C 124.882812 18.640625 124.828125 18.417969 124.863281 18.203125 L 125.582031 14.140625 C 125.652344 13.738281 126.03125 13.46875 126.4375 13.542969 C 126.835938 13.613281 127.101562 13.996094 127.03125 14.394531 L 126.464844 17.597656 L 134.214844 17.597656 C 137.175781 17.597656 139.3125 15.699219 139.53125 12.875 C 139.554688 12.445312 139.519531 12.023438 139.425781 11.632812 C 139.371094 11.414062 139.421875 11.183594 139.558594 11.003906 C 139.699219 10.828125 139.914062 10.722656 140.140625 10.722656 L 152.074219 10.722656 C 151.605469 5.585938 147.589844 2.3125 141.640625 2.3125 L 121.929688 2.3125 L 123.128906 7.746094 C 123.21875 8.144531 122.96875 8.539062 122.570312 8.625 C 122.175781 8.710938 121.78125 8.460938 121.695312 8.066406 L 120.296875 1.734375 C 120.246094 1.515625 120.300781 1.289062 120.441406 1.113281 C 120.578125 0.941406 120.789062 0.839844 121.015625 0.839844 L 141.640625 0.839844 C 148.636719 0.839844 153.4375 5.101562 153.589844 11.441406 C 153.59375 11.640625 153.515625 11.832031 153.378906 11.972656 C 153.238281 12.113281 153.050781 12.195312 152.851562 12.195312 L 140.992188 12.195312 C 141.011719 12.449219 141.011719 12.707031 141 12.96875 C 140.722656 16.566406 137.933594 19.070312 134.214844 19.070312 "/>
<g clip-path="url(#clip-3)">
<path fill-rule="nonzero" fill="rgb(48.243713%, 82.867432%, 86.631775%)" fill-opacity="1" d="M 146.066406 37.015625 L 136.746094 37.015625 C 136.488281 37.015625 136.246094 36.878906 136.113281 36.65625 L 129.585938 25.761719 L 125.113281 25.761719 L 123.238281 36.40625 C 123.175781 36.757812 122.871094 37.015625 122.515625 37.015625 L 114.285156 37.015625 C 114.066406 37.015625 113.863281 36.917969 113.722656 36.753906 C 113.582031 36.585938 113.523438 36.367188 113.5625 36.152344 L 117.921875 11.332031 C 117.984375 10.980469 118.289062 10.722656 118.648438 10.722656 L 130.738281 10.722656 L 131.152344 8.386719 C 131.210938 8.035156 131.519531 7.78125 131.875 7.78125 L 140.402344 7.78125 C 140.808594 7.78125 141.136719 8.109375 141.136719 8.515625 C 141.136719 8.921875 140.808594 9.253906 140.402344 9.253906 L 132.492188 9.253906 L 132.078125 11.585938 C 132.015625 11.9375 131.710938 12.195312 131.355469 12.195312 L 119.265625 12.195312 L 115.160156 35.542969 L 121.898438 35.542969 L 123.773438 24.898438 C 123.835938 24.546875 124.140625 24.289062 124.5 24.289062 L 130 24.289062 C 130.257812 24.289062 130.5 24.425781 130.632812 24.648438 L 137.160156 35.542969 L 144.71875 35.542969 L 137.761719 24.679688 C 137.632812 24.480469 137.609375 24.238281 137.695312 24.019531 C 137.777344 23.800781 137.957031 23.636719 138.183594 23.574219 C 143.117188 22.210938 146.246094 19.164062 147.242188 14.769531 C 147.332031 14.375 147.726562 14.121094 148.121094 14.214844 C 148.519531 14.304688 148.765625 14.699219 148.675781 15.09375 C 147.636719 19.691406 144.402344 23.074219 139.523438 24.703125 L 146.683594 35.882812 C 146.828125 36.109375 146.839844 36.398438 146.710938 36.632812 C 146.582031 36.871094 146.332031 37.015625 146.066406 37.015625 "/>
</g>
<g clip-path="url(#clip-4)">
<path fill-rule="nonzero" fill="rgb(48.243713%, 82.867432%, 86.631775%)" fill-opacity="1" d="M 169.410156 37.808594 C 159.230469 37.808594 152.90625 31.808594 152.90625 22.152344 C 152.90625 18.050781 153.714844 14.34375 155.304688 11.132812 C 155.429688 10.882812 155.683594 10.722656 155.964844 10.722656 L 169.546875 10.722656 C 172.027344 8.375 175.464844 7.085938 179.265625 7.085938 C 182.457031 7.085938 185.386719 8.160156 187.261719 9.988281 L 191.84375 6.203125 C 189.011719 3.183594 184.546875 1.46875 179.460938 1.46875 C 173.59375 1.46875 168.582031 3.261719 164.960938 6.65625 C 164.664062 6.933594 164.203125 6.917969 163.921875 6.621094 C 163.644531 6.324219 163.660156 5.859375 163.957031 5.582031 C 167.851562 1.929688 173.214844 -0.00390625 179.460938 -0.00390625 C 185.289062 -0.00390625 190.390625 2.117188 193.464844 5.816406 C 193.589844 5.964844 193.648438 6.160156 193.628906 6.355469 C 193.613281 6.546875 193.515625 6.726562 193.367188 6.851562 L 187.664062 11.5625 C 187.355469 11.820312 186.894531 11.777344 186.636719 11.472656 C 185.085938 9.648438 182.328125 8.558594 179.265625 8.558594 C 175.691406 8.558594 172.613281 9.742188 170.363281 11.980469 C 170.226562 12.117188 170.039062 12.195312 169.847656 12.195312 L 156.425781 12.195312 C 155.066406 15.105469 154.378906 18.453125 154.378906 22.152344 C 154.378906 31.035156 159.996094 36.339844 169.410156 36.339844 C 175.347656 36.339844 180.625 34.480469 184.292969 31.101562 L 186.828125 16.492188 L 172.054688 16.492188 L 171.136719 21.515625 L 179.671875 21.515625 C 179.890625 21.515625 180.097656 21.609375 180.234375 21.777344 C 180.375 21.945312 180.433594 22.164062 180.394531 22.378906 L 179.453125 27.636719 C 179.421875 27.820312 179.316406 27.988281 179.164062 28.097656 C 176.84375 29.800781 173.640625 30.820312 170.597656 30.820312 C 164.335938 30.820312 160.890625 27.300781 160.890625 20.910156 C 160.890625 18.917969 161.230469 17.039062 161.90625 15.328125 C 162.058594 14.949219 162.484375 14.765625 162.863281 14.914062 C 163.242188 15.0625 163.425781 15.492188 163.277344 15.867188 C 162.667969 17.40625 162.359375 19.101562 162.359375 20.910156 C 162.359375 26.507812 165.132812 29.347656 170.597656 29.347656 C 173.234375 29.347656 176 28.503906 178.058594 27.082031 L 178.792969 22.984375 L 170.25 22.984375 C 170.035156 22.984375 169.828125 22.886719 169.6875 22.71875 C 169.546875 22.550781 169.488281 22.332031 169.527344 22.117188 L 170.71875 15.621094 C 170.78125 15.273438 171.085938 15.019531 171.441406 15.019531 L 187.703125 15.019531 C 187.921875 15.019531 188.125 15.113281 188.265625 15.28125 C 188.40625 15.449219 188.464844 15.667969 188.429688 15.878906 L 185.703125 31.597656 C 185.675781 31.753906 185.597656 31.898438 185.484375 32.003906 C 181.53125 35.75 175.820312 37.808594 169.410156 37.808594 "/>
</g>
<g clip-path="url(#clip-5)">
<path fill-rule="nonzero" fill="rgb(48.243713%, 82.867432%, 86.631775%)" fill-opacity="1" d="M 217.199219 37.015625 L 190.179688 37.015625 C 189.960938 37.015625 189.757812 36.917969 189.617188 36.753906 C 189.476562 36.585938 189.417969 36.367188 189.457031 36.152344 L 193.816406 11.332031 C 193.878906 10.980469 194.183594 10.722656 194.542969 10.722656 L 206.558594 10.722656 L 206.996094 8.242188 C 207.054688 7.886719 207.359375 7.632812 207.71875 7.632812 L 225.546875 7.632812 L 226.519531 2.3125 L 201.445312 2.3125 L 200.757812 6.222656 C 200.6875 6.625 200.304688 6.890625 199.90625 6.820312 C 199.503906 6.75 199.238281 6.367188 199.308594 5.96875 L 200.105469 1.449219 C 200.164062 1.097656 200.46875 0.839844 200.828125 0.839844 L 227.402344 0.839844 C 227.621094 0.839844 227.828125 0.9375 227.964844 1.105469 C 228.105469 1.273438 228.164062 1.492188 228.125 1.707031 L 226.886719 8.5 C 226.820312 8.847656 226.519531 9.101562 226.164062 9.101562 L 208.335938 9.101562 L 207.898438 11.585938 C 207.835938 11.9375 207.53125 12.195312 207.175781 12.195312 L 195.160156 12.195312 L 191.054688 35.542969 L 216.585938 35.542969 L 217.558594 30.175781 L 199.5 30.175781 C 199.28125 30.175781 199.078125 30.078125 198.9375 29.914062 C 198.796875 29.746094 198.738281 29.527344 198.773438 29.3125 L 200.0625 21.828125 C 200.125 21.476562 200.429688 21.21875 200.789062 21.21875 L 217.628906 21.21875 L 218.550781 16.144531 L 201.929688 16.144531 C 201.523438 16.144531 201.195312 15.8125 201.195312 15.40625 C 201.195312 15 201.523438 14.671875 201.929688 14.671875 L 219.429688 14.671875 C 219.648438 14.671875 219.855469 14.769531 219.996094 14.9375 C 220.136719 15.105469 220.195312 15.324219 220.152344 15.539062 L 218.964844 22.085938 C 218.902344 22.433594 218.597656 22.6875 218.242188 22.6875 L 201.410156 22.6875 L 200.375 28.703125 L 218.441406 28.703125 C 218.65625 28.703125 218.863281 28.800781 219.003906 28.96875 C 219.144531 29.132812 219.203125 29.355469 219.164062 29.570312 L 217.921875 36.410156 C 217.859375 36.761719 217.554688 37.015625 217.199219 37.015625 "/>
</g>
</svg>
