<?xml version="1.0" encoding="UTF-8"?>
<svg xmlns="http://www.w3.org/2000/svg" xmlns:xlink="http://www.w3.org/1999/xlink" width="39.3pt" height="36.74pt" viewBox="0 0 39.3 36.74">
<defs>
<clipPath id="clip-0">
<path clip-rule="nonzero" d="M 0 0.195312 L 38.613281 0.195312 L 38.613281 36.289062 L 0 36.289062 Z M 0 0.195312 "/>
</clipPath>
</defs>
<g clip-path="url(#clip-0)">
<path fill-rule="nonzero" fill="rgb(48.243713%, 82.867432%, 86.631775%)" fill-opacity="1" d="M 27.695312 36.289062 L 0.734375 36.289062 C 0.515625 36.289062 0.3125 36.195312 0.171875 36.027344 C 0.03125 35.863281 -0.0273438 35.644531 0.0117188 35.429688 L 4.363281 10.660156 C 4.425781 10.3125 4.730469 10.054688 5.085938 10.054688 L 17.078125 10.054688 L 17.511719 7.578125 C 17.574219 7.226562 17.878906 6.96875 18.234375 6.96875 L 36.027344 6.96875 L 36.996094 1.660156 L 11.976562 1.660156 L 11.289062 5.566406 C 11.21875 5.964844 10.835938 6.230469 10.441406 6.160156 C 10.039062 6.089844 9.773438 5.710938 9.84375 5.308594 L 10.636719 0.800781 C 10.699219 0.449219 11.003906 0.191406 11.359375 0.191406 L 37.875 0.191406 C 38.09375 0.191406 38.300781 0.289062 38.441406 0.457031 C 38.578125 0.625 38.636719 0.84375 38.597656 1.058594 L 37.363281 7.835938 C 37.296875 8.183594 36.996094 8.4375 36.640625 8.4375 L 18.851562 8.4375 L 18.414062 10.917969 C 18.355469 11.265625 18.046875 11.523438 17.691406 11.523438 L 5.703125 11.523438 L 1.609375 34.824219 L 27.082031 34.824219 L 28.054688 29.464844 L 10.035156 29.464844 C 9.820312 29.464844 9.613281 29.367188 9.472656 29.203125 C 9.332031 29.035156 9.273438 28.820312 9.3125 28.605469 L 10.597656 21.136719 C 10.65625 20.78125 10.964844 20.527344 11.320312 20.527344 L 28.121094 20.527344 L 29.042969 15.464844 L 12.457031 15.464844 C 12.054688 15.464844 11.726562 15.132812 11.726562 14.730469 C 11.726562 14.324219 12.054688 13.996094 12.457031 13.996094 L 29.921875 13.996094 C 30.140625 13.996094 30.347656 14.089844 30.484375 14.257812 C 30.625 14.425781 30.683594 14.644531 30.644531 14.859375 L 29.457031 21.390625 C 29.394531 21.738281 29.089844 21.992188 28.734375 21.992188 L 11.9375 21.992188 L 10.90625 27.996094 L 28.933594 27.996094 C 29.152344 27.996094 29.355469 28.09375 29.496094 28.257812 C 29.636719 28.425781 29.695312 28.648438 29.65625 28.859375 L 28.417969 35.6875 C 28.355469 36.035156 28.050781 36.289062 27.695312 36.289062 "/>
</g>
</svg>
