<?xml version="1.0" encoding="UTF-8"?>
<svg xmlns="http://www.w3.org/2000/svg" xmlns:xlink="http://www.w3.org/1999/xlink" width="41.36pt" height="38.4pt" viewBox="0 0 41.36 38.4">
<defs>
<clipPath id="clip-0">
<path clip-rule="nonzero" d="M 0.00390625 0 L 40.726562 0 L 40.726562 37.808594 L 0.00390625 37.808594 Z M 0.00390625 0 "/>
</clipPath>
</defs>
<g clip-path="url(#clip-0)">
<path fill-rule="nonzero" fill="rgb(48.243713%, 82.867432%, 86.631775%)" fill-opacity="1" d="M 16.503906 37.808594 C 6.324219 37.808594 0.00390625 31.808594 0.00390625 22.152344 C 0.00390625 18.050781 0.808594 14.34375 2.402344 11.132812 C 2.527344 10.882812 2.78125 10.722656 3.058594 10.722656 L 16.644531 10.722656 C 19.121094 8.375 22.558594 7.085938 26.359375 7.085938 C 29.550781 7.085938 32.480469 8.160156 34.355469 9.988281 L 38.941406 6.203125 C 36.105469 3.183594 31.640625 1.46875 26.558594 1.46875 C 20.691406 1.46875 15.675781 3.261719 12.058594 6.65625 C 11.761719 6.933594 11.296875 6.917969 11.019531 6.621094 C 10.738281 6.324219 10.753906 5.859375 11.050781 5.582031 C 14.949219 1.929688 20.308594 -0.00390625 26.558594 -0.00390625 C 32.382812 -0.00390625 37.488281 2.117188 40.558594 5.816406 C 40.683594 5.964844 40.746094 6.160156 40.726562 6.355469 C 40.707031 6.546875 40.613281 6.726562 40.460938 6.851562 L 34.761719 11.5625 C 34.449219 11.820312 33.992188 11.777344 33.730469 11.472656 C 32.179688 9.648438 29.425781 8.558594 26.359375 8.558594 C 22.785156 8.558594 19.710938 9.742188 17.460938 11.980469 C 17.324219 12.117188 17.136719 12.195312 16.941406 12.195312 L 3.523438 12.195312 C 2.164062 15.105469 1.472656 18.453125 1.472656 22.152344 C 1.472656 31.035156 7.09375 36.339844 16.503906 36.339844 C 22.445312 36.339844 27.71875 34.480469 31.390625 31.101562 L 33.925781 16.492188 L 19.148438 16.492188 L 18.230469 21.515625 L 26.765625 21.515625 C 26.984375 21.515625 27.191406 21.609375 27.332031 21.777344 C 27.472656 21.945312 27.53125 22.164062 27.492188 22.378906 L 26.550781 27.636719 C 26.515625 27.820312 26.414062 27.988281 26.261719 28.097656 C 23.9375 29.800781 20.734375 30.820312 17.695312 30.820312 C 11.433594 30.820312 7.984375 27.300781 7.984375 20.910156 C 7.984375 18.917969 8.328125 17.039062 9.003906 15.328125 C 9.152344 14.949219 9.582031 14.765625 9.957031 14.914062 C 10.335938 15.0625 10.519531 15.492188 10.371094 15.867188 C 9.765625 17.40625 9.457031 19.101562 9.457031 20.910156 C 9.457031 26.507812 12.226562 29.347656 17.695312 29.347656 C 20.332031 29.347656 23.097656 28.503906 25.15625 27.082031 L 25.886719 22.984375 L 17.347656 22.984375 C 17.128906 22.984375 16.921875 22.886719 16.78125 22.71875 C 16.644531 22.550781 16.585938 22.332031 16.625 22.117188 L 17.8125 15.621094 C 17.878906 15.273438 18.179688 15.019531 18.535156 15.019531 L 34.800781 15.019531 C 35.015625 15.019531 35.222656 15.113281 35.363281 15.28125 C 35.503906 15.449219 35.5625 15.667969 35.523438 15.878906 L 32.796875 31.597656 C 32.769531 31.753906 32.695312 31.898438 32.578125 32.003906 C 28.625 35.75 22.917969 37.808594 16.503906 37.808594 "/>
</g>
</svg>
