<?xml version="1.0" encoding="UTF-8"?>
<svg xmlns="http://www.w3.org/2000/svg" xmlns:xlink="http://www.w3.org/1999/xlink" width="43.99pt" height="36.74pt" viewBox="0 0 43.99 36.74">
<defs>
<clipPath id="clip-0">
<path clip-rule="nonzero" d="M 0.148438 0 L 37 0 L 37 36.480469 L 0.148438 36.480469 Z M 0.148438 0 "/>
</clipPath>
<clipPath id="clip-1">
<path clip-rule="nonzero" d="M 12 0 L 43.832031 0 L 43.832031 16 L 12 16 Z M 12 0 "/>
</clipPath>
</defs>
<g clip-path="url(#clip-0)">
<path fill-rule="nonzero" fill="rgb(48.243713%, 82.867432%, 86.631775%)" fill-opacity="1" d="M 32.242188 36.480469 L 23.941406 36.480469 C 23.722656 36.480469 23.515625 36.386719 23.375 36.21875 C 23.230469 36.050781 23.171875 35.828125 23.210938 35.613281 L 25.507812 22.433594 L 12.316406 22.433594 L 9.972656 35.867188 C 9.910156 36.222656 9.601562 36.480469 9.242188 36.480469 L 0.890625 36.480469 C 0.671875 36.480469 0.464844 36.386719 0.324219 36.21875 C 0.183594 36.050781 0.121094 35.828125 0.160156 35.613281 L 4.558594 10.578125 C 4.621094 10.226562 4.929688 9.964844 5.289062 9.964844 L 17.59375 9.964844 L 19.09375 1.484375 L 12.253906 1.484375 L 11.292969 6.941406 C 11.222656 7.34375 10.839844 7.613281 10.433594 7.542969 C 10.03125 7.472656 9.761719 7.089844 9.832031 6.683594 L 10.898438 0.613281 C 10.960938 0.257812 11.269531 0 11.628906 0 L 19.980469 0 C 20.199219 0 20.40625 0.0976562 20.546875 0.265625 C 20.6875 0.433594 20.75 0.652344 20.710938 0.871094 L 18.945312 10.835938 C 18.882812 11.191406 18.574219 11.449219 18.214844 11.449219 L 5.914062 11.449219 L 1.773438 35 L 8.617188 35 L 10.960938 21.5625 C 11.023438 21.207031 11.332031 20.949219 11.691406 20.949219 L 26.390625 20.949219 C 26.609375 20.949219 26.816406 21.046875 26.957031 21.210938 C 27.097656 21.378906 27.160156 21.601562 27.121094 21.816406 L 24.824219 35 L 31.617188 35 L 35.15625 14.859375 C 35.226562 14.457031 35.613281 14.1875 36.015625 14.257812 C 36.417969 14.328125 36.6875 14.714844 36.617188 15.117188 L 32.972656 35.867188 C 32.910156 36.222656 32.601562 36.480469 32.242188 36.480469 "/>
</g>
<g clip-path="url(#clip-1)">
<path fill-rule="nonzero" fill="rgb(48.243713%, 82.867432%, 86.631775%)" fill-opacity="1" d="M 27.691406 15.03125 L 12.992188 15.03125 C 12.582031 15.03125 12.25 14.699219 12.25 14.289062 C 12.25 13.878906 12.582031 13.546875 12.992188 13.546875 L 27.070312 13.546875 L 27.59375 10.578125 C 27.65625 10.226562 27.964844 9.964844 28.324219 9.964844 L 40.703125 9.964844 L 42.207031 1.484375 L 35.363281 1.484375 L 34.40625 6.941406 C 34.335938 7.34375 33.949219 7.613281 33.546875 7.542969 C 33.144531 7.472656 32.875 7.089844 32.945312 6.683594 L 34.011719 0.613281 C 34.074219 0.257812 34.382812 0 34.742188 0 L 43.09375 0 C 43.3125 0 43.519531 0.0976562 43.660156 0.265625 C 43.800781 0.433594 43.859375 0.652344 43.820312 0.871094 L 42.054688 10.835938 C 41.992188 11.191406 41.6875 11.449219 41.328125 11.449219 L 28.949219 11.449219 L 28.421875 14.417969 C 28.359375 14.773438 28.050781 15.03125 27.691406 15.03125 "/>
</g>
</svg>
