<?xml version="1.0" encoding="UTF-8"?>
<svg xmlns="http://www.w3.org/2000/svg" xmlns:xlink="http://www.w3.org/1999/xlink" width="40.66pt" height="36.74pt" viewBox="0 0 40.66 36.74">
<defs>
<clipPath id="clip-0">
<path clip-rule="nonzero" d="M 6 0.0234375 L 40.324219 0.0234375 L 40.324219 19 L 6 19 Z M 6 0.0234375 "/>
</clipPath>
<clipPath id="clip-1">
<path clip-rule="nonzero" d="M 0 7 L 36 7 L 36 36.457031 L 0 36.457031 Z M 0 7 "/>
</clipPath>
</defs>
<g clip-path="url(#clip-0)">
<path fill-rule="nonzero" fill="rgb(48.243713%, 82.867432%, 86.631775%)" fill-opacity="1" d="M 20.816406 18.382812 L 12.125 18.382812 C 11.90625 18.382812 11.699219 18.285156 11.558594 18.117188 C 11.417969 17.949219 11.355469 17.726562 11.394531 17.511719 L 12.121094 13.417969 C 12.191406 13.015625 12.570312 12.742188 12.980469 12.816406 C 13.382812 12.886719 13.648438 13.273438 13.578125 13.675781 L 13.007812 16.898438 L 20.816406 16.898438 C 23.796875 16.898438 25.949219 14.988281 26.167969 12.140625 C 26.191406 11.710938 26.15625 11.285156 26.0625 10.894531 C 26.007812 10.671875 26.058594 10.4375 26.199219 10.261719 C 26.339844 10.082031 26.554688 9.976562 26.78125 9.976562 L 38.800781 9.976562 C 38.328125 4.804688 34.285156 1.503906 28.292969 1.503906 L 8.441406 1.503906 L 9.648438 6.980469 C 9.738281 7.378906 9.484375 7.773438 9.085938 7.863281 C 8.6875 7.949219 8.292969 7.699219 8.203125 7.300781 L 6.792969 0.921875 C 6.746094 0.703125 6.800781 0.472656 6.941406 0.300781 C 7.082031 0.125 7.292969 0.0234375 7.519531 0.0234375 L 28.292969 0.0234375 C 35.339844 0.0234375 40.175781 4.3125 40.328125 10.699219 C 40.332031 10.898438 40.253906 11.09375 40.117188 11.234375 C 39.976562 11.378906 39.785156 11.460938 39.585938 11.460938 L 27.640625 11.460938 C 27.660156 11.714844 27.660156 11.976562 27.648438 12.238281 C 27.367188 15.863281 24.558594 18.382812 20.816406 18.382812 "/>
</g>
<g clip-path="url(#clip-1)">
<path fill-rule="nonzero" fill="rgb(48.243713%, 82.867432%, 86.631775%)" fill-opacity="1" d="M 32.75 36.457031 L 23.359375 36.457031 C 23.101562 36.457031 22.859375 36.320312 22.726562 36.097656 L 16.148438 25.125 L 11.648438 25.125 L 9.757812 35.847656 C 9.695312 36.199219 9.390625 36.457031 9.03125 36.457031 L 0.742188 36.457031 C 0.523438 36.457031 0.3125 36.363281 0.171875 36.195312 C 0.03125 36.027344 -0.0273438 35.804688 0.0117188 35.589844 L 4.402344 10.589844 C 4.464844 10.234375 4.773438 9.976562 5.132812 9.976562 L 17.3125 9.976562 L 17.726562 7.625 C 17.789062 7.269531 18.097656 7.011719 18.457031 7.011719 L 27.046875 7.011719 C 27.453125 7.011719 27.785156 7.34375 27.785156 7.753906 C 27.785156 8.164062 27.453125 8.496094 27.046875 8.496094 L 19.078125 8.496094 L 18.660156 10.847656 C 18.601562 11.199219 18.292969 11.460938 17.933594 11.460938 L 5.753906 11.460938 L 1.625 34.976562 L 8.410156 34.976562 L 10.296875 24.253906 C 10.359375 23.898438 10.667969 23.640625 11.027344 23.640625 L 16.570312 23.640625 C 16.832031 23.640625 17.070312 23.777344 17.207031 24.003906 L 23.78125 34.976562 L 31.394531 34.976562 L 24.386719 24.03125 C 24.257812 23.835938 24.234375 23.589844 24.316406 23.367188 C 24.402344 23.148438 24.585938 22.980469 24.8125 22.917969 C 29.777344 21.546875 32.933594 18.480469 33.933594 14.050781 C 34.023438 13.652344 34.421875 13.398438 34.820312 13.492188 C 35.21875 13.582031 35.46875 13.980469 35.378906 14.378906 C 34.332031 19.007812 31.074219 22.414062 26.160156 24.058594 L 33.371094 35.316406 C 33.519531 35.546875 33.527344 35.835938 33.398438 36.074219 C 33.269531 36.3125 33.019531 36.457031 32.75 36.457031 "/>
</g>
</svg>
