<svg viewBox="-25.0 -165.0 540.6 190.0" xmlns="http://www.w3.org/2000/svg"><g transform="scale(1,-1)"><path d="M44.08,0.06 L44.82,0.04 L45.56,0.02 L46.31,0.01 L47.07,0.00 L47.83,0.00 L95.28,0.00 L95.52,0.00 L95.76,0.01 L96.00,0.02 L96.23,0.03 L96.45,0.05 L96.67,0.08 L96.89,0.11 L97.10,0.14 L97.31,0.17 L97.52,0.22 L97.72,0.26 L97.91,0.31 L98.11,0.36 L98.29,0.42 L98.48,0.48 L98.66,0.55 L98.83,0.62 L99.00,0.70 L99.17,0.78 L99.33,0.86 L99.49,0.95 L99.64,1.04 L99.79,1.14 L99.93,1.24 L100.07,1.35 L100.21,1.46 L100.34,1.57 L100.47,1.69 L100.59,1.81 L100.71,1.94 L100.82,2.07 L100.93,2.21 L101.04,2.35 L101.14,2.49 L101.23,2.64 L101.33,2.79 L101.42,2.95 L101.50,3.11 L101.58,3.28 L101.66,3.45 L101.73,3.62 L101.79,3.80 L101.86,3.98 L101.91,4.17 L101.97,4.36 L102.02,4.56 L102.06,4.76 L102.10,4.96 L102.14,5.17 L102.17,5.39 L102.20,5.60 L102.22,5.83 L102.24,6.05 L102.26,6.28 L102.27,6.52 L102.28,6.76 L102.28,7.00 L102.28,30.14 L102.28,30.38 L102.27,30.62 L102.26,30.86 L102.24,31.09 L102.22,31.31 L102.20,31.54 L102.17,31.75 L102.14,31.97 L102.10,32.17 L102.06,32.38 L102.02,32.58 L101.97,32.78 L101.91,32.97 L101.86,33.16 L101.79,33.34 L101.73,33.52 L101.66,33.69 L101.58,33.86 L101.50,34.03 L101.42,34.19 L101.33,34.35 L101.23,34.50 L101.14,34.65 L101.04,34.79 L100.93,34.93 L100.82,35.07 L100.71,35.20 L100.59,35.33 L100.47,35.45 L100.34,35.57 L100.21,35.68 L100.07,35.79 L99.93,35.90 L99.79,36.00 L99.64,36.10 L99.49,36.19 L99.33,36.28 L99.17,36.36 L99.00,36.44 L98.83,36.52 L98.66,36.59 L98.48,36.65 L98.29,36.72 L98.11,36.77 L97.91,36.83 L97.72,36.88 L97.52,36.92 L97.31,36.96 L97.10,37.00 L96.89,37.03 L96.67,37.06 L96.45,37.09 L96.23,37.10 L96.00,37.12 L95.76,37.13 L95.52,37.14 L95.28,37.14 L56.19,37.14 L55.83,37.14 L55.46,37.15 L55.11,37.16 L54.76,37.18 L54.41,37.20 L54.07,37.22 L53.74,37.25 L53.41,37.28 L53.09,37.32 L52.78,37.37 L52.47,37.41 L52.16,37.47 L51.87,37.52 L51.57,37.59 L51.29,37.65 L51.01,37.72 L50.73,37.80 L50.46,37.88 L50.20,37.96 L49.94,38.05 L49.69,38.14 L49.44,38.24 L49.20,38.34 L48.97,38.45 L48.74,38.56 L48.51,38.68 L48.30,38.80 L48.09,38.93 L47.88,39.06 L47.68,39.19 L47.49,39.33 L47.30,39.47 L47.12,39.62 L46.94,39.77 L46.77,39.93 L46.60,40.09 L46.44,40.26 L46.29,40.43 L46.14,40.60 L46.00,40.78 L45.87,40.97 L45.73,41.16 L45.61,41.35 L45.49,41.55 L45.38,41.75 L45.27,41.96 L45.17,42.17 L45.07,42.39 L44.98,42.61 L44.90,42.84 L44.82,43.07 L44.75,43.30 L44.68,43.54 L44.62,43.78 L44.57,44.03 L44.52,44.28 L44.48,44.54 L44.44,44.80 L44.41,45.07 L44.38,45.34 L44.36,45.62 L44.34,45.90 L44.34,46.18 L44.33,46.47 L44.33,92.75 L44.34,93.05 L44.34,93.35 L44.36,93.64 L44.38,93.93 L44.41,94.21 L44.44,94.49 L44.48,94.76 L44.52,95.03 L44.57,95.29 L44.62,95.55 L44.68,95.80 L44.75,96.05 L44.82,96.30 L44.90,96.54 L44.98,96.77 L45.07,97.00 L45.17,97.23 L45.27,97.45 L45.38,97.67 L45.49,97.88 L45.61,98.08 L45.73,98.29 L45.87,98.48 L46.00,98.67 L46.14,98.86 L46.29,99.04 L46.44,99.22 L46.60,99.40 L46.77,99.56 L46.94,99.73 L47.12,99.89 L47.30,100.04 L47.49,100.19 L47.68,100.34 L47.88,100.48 L48.09,100.61 L48.30,100.74 L48.51,100.87 L48.74,100.99 L48.97,101.11 L49.20,101.22 L49.44,101.32 L49.69,101.43 L49.94,101.52 L50.20,101.62 L50.46,101.70 L50.73,101.79 L51.01,101.86 L51.29,101.94 L51.57,102.01 L51.87,102.07 L52.16,102.13 L52.47,102.19 L52.78,102.23 L53.09,102.28 L53.41,102.32 L53.74,102.36 L54.07,102.39 L54.41,102.41 L54.76,102.43 L55.11,102.45 L55.46,102.46 L55.83,102.47 L56.19,102.47 L95.28,102.47 L95.52,102.47 L95.76,102.48 L96.00,102.49 L96.23,102.51 L96.45,102.53 L96.67,102.55 L96.89,102.58 L97.10,102.61 L97.31,102.65 L97.52,102.69 L97.72,102.73 L97.91,102.78 L98.11,102.84 L98.29,102.89 L98.48,102.96 L98.66,103.02 L98.83,103.09 L99.00,103.17 L99.17,103.25 L99.33,103.33 L99.49,103.42 L99.64,103.52 L99.79,103.61 L99.93,103.71 L100.07,103.82 L100.21,103.93 L100.34,104.04 L100.47,104.16 L100.59,104.28 L100.71,104.41 L100.82,104.54 L100.93,104.68 L101.04,104.82 L101.14,104.96 L101.23,105.11 L101.33,105.26 L101.42,105.42 L101.50,105.58 L101.58,105.75 L101.66,105.92 L101.73,106.09 L101.79,106.27 L101.86,106.46 L101.91,106.64 L101.97,106.84 L102.02,107.03 L102.06,107.23 L102.10,107.44 L102.14,107.65 L102.17,107.86 L102.20,108.08 L102.22,108.30 L102.24,108.52 L102.26,108.75 L102.27,108.99 L102.28,109.23 L102.28,109.47 L102.28,133.00 L102.28,133.24 L102.27,133.48 L102.26,133.72 L102.24,133.95 L102.22,134.17 L102.20,134.40 L102.17,134.61 L102.14,134.83 L102.10,135.04 L102.06,135.24 L102.02,135.44 L101.97,135.64 L101.91,135.83 L101.86,136.02 L101.79,136.20 L101.73,136.38 L101.66,136.55 L101.58,136.72 L101.50,136.89 L101.42,137.05 L101.33,137.21 L101.23,137.36 L101.14,137.51 L101.04,137.65 L100.93,137.79 L100.82,137.93 L100.71,138.06 L100.59,138.19 L100.47,138.31 L100.34,138.43 L100.21,138.54 L100.07,138.65 L99.93,138.76 L99.79,138.86 L99.64,138.96 L99.49,139.05 L99.33,139.14 L99.17,139.22 L99.00,139.30 L98.83,139.38 L98.66,139.45 L98.48,139.52 L98.29,139.58 L98.11,139.64 L97.91,139.69 L97.72,139.74 L97.52,139.78 L97.31,139.83 L97.10,139.86 L96.89,139.89 L96.67,139.92 L96.45,139.95 L96.23,139.97 L96.00,139.98 L95.76,139.99 L95.52,140.00 L95.28,140.00 L47.83,140.00 L47.07,140.00 L46.31,139.99 L45.56,139.98 L44.82,139.96 L44.08,139.94 L43.35,139.91 L42.63,139.88 L41.91,139.85 L41.20,139.81 L40.49,139.76 L39.79,139.71 L39.10,139.66 L38.41,139.60 L37.73,139.53 L37.05,139.47 L36.39,139.39 L35.72,139.31 L35.07,139.23 L34.42,139.14 L33.77,139.05 L33.14,138.95 L32.51,138.85 L31.88,138.74 L31.26,138.63 L30.65,138.52 L30.05,138.40 L29.45,138.27 L28.85,138.14 L28.27,138.00 L27.68,137.86 L27.11,137.72 L26.54,137.57 L25.98,137.42 L25.42,137.26 L24.87,137.09 L24.33,136.92 L23.79,136.75 L23.26,136.57 L22.74,136.39 L22.22,136.20 L21.71,136.01 L21.20,135.81 L20.70,135.61 L20.21,135.40 L19.72,135.19 L19.24,134.98 L18.77,134.76 L18.30,134.53 L17.84,134.30 L17.38,134.07 L16.94,133.83 L16.49,133.58 L16.06,133.33 L15.63,133.08 L15.20,132.82 L14.78,132.56 L14.37,132.29 L13.97,132.02 L13.57,131.74 L13.18,131.46 L12.79,131.17 L12.41,130.88 L12.03,130.58 L11.67,130.28 L11.30,129.97 L10.95,129.66 L10.60,129.34 L10.25,129.02 L9.91,128.69 L9.58,128.36 L9.25,128.02 L8.93,127.68 L8.62,127.33 L8.31,126.98 L8.00,126.62 L7.70,126.26 L7.41,125.89 L7.12,125.51 L6.84,125.13 L6.56,124.75 L6.29,124.36 L6.03,123.96 L5.77,123.56 L5.51,123.16 L5.27,122.75 L5.02,122.33 L4.79,121.91 L4.56,121.48 L4.33,121.05 L4.11,120.61 L3.90,120.17 L3.69,119.72 L3.49,119.27 L3.29,118.81 L3.10,118.35 L2.92,117.88 L2.74,117.41 L2.56,116.93 L2.40,116.45 L2.23,115.96 L2.08,115.46 L1.93,114.96 L1.78,114.46 L1.64,113.95 L1.51,113.43 L1.38,112.91 L1.26,112.39 L1.14,111.85 L1.03,111.32 L0.92,110.78 L0.82,110.23 L0.73,109.68 L0.64,109.12 L0.56,108.56 L0.48,107.99 L0.41,107.42 L0.34,106.84 L0.28,106.26 L0.23,105.67 L0.18,105.08 L0.14,104.48 L0.10,103.87 L0.07,103.26 L0.05,102.65 L0.03,102.03 L0.01,101.40 L0.00,100.77 L0.00,100.14 L0.00,39.67 L0.00,39.04 L0.01,38.41 L0.03,37.79 L0.05,37.18 L0.07,36.57 L0.10,35.97 L0.14,35.37 L0.18,34.78 L0.23,34.19 L0.28,33.60 L0.34,33.03 L0.41,32.45 L0.48,31.88 L0.56,31.32 L0.64,30.76 L0.73,30.21 L0.82,29.66 L0.92,29.12 L1.03,28.59 L1.14,28.05 L1.26,27.53 L1.38,27.00 L1.51,26.49 L1.64,25.98 L1.78,25.47 L1.93,24.97 L2.08,24.47 L2.23,23.98 L2.40,23.50 L2.56,23.02 L2.74,22.54 L2.92,22.07 L3.10,21.60 L3.29,21.14 L3.49,20.69 L3.69,20.24 L3.90,19.79 L4.11,19.35 L4.33,18.92 L4.56,18.49 L4.79,18.07 L5.02,17.65 L5.27,17.23 L5.51,16.82 L5.77,16.42 L6.03,16.02 L6.29,15.63 L6.56,15.24 L6.84,14.86 L7.12,14.48 L7.41,14.11 L7.70,13.74 L8.00,13.37 L8.31,13.02 L8.62,12.66 L8.93,12.32 L9.25,11.97 L9.58,11.64 L9.91,11.31 L10.25,10.98 L10.60,10.66 L10.95,10.34 L11.30,10.03 L11.67,9.72 L12.03,9.42 L12.41,9.12 L12.79,8.83 L13.18,8.54 L13.57,8.26 L13.97,7.98 L14.37,7.71 L14.78,7.44 L15.20,7.18 L15.63,6.92 L16.06,6.67 L16.49,6.42 L16.94,6.17 L17.38,5.93 L17.84,5.70 L18.30,5.47 L18.77,5.24 L19.24,5.02 L19.72,4.81 L20.21,4.60 L20.70,4.39 L21.20,4.19 L21.71,3.99 L22.22,3.80 L22.74,3.61 L23.26,3.43 L23.79,3.25 L24.33,3.08 L24.87,2.91 L25.42,2.74 L25.98,2.58 L26.54,2.43 L27.11,2.28 L27.68,2.14 L28.27,2.00 L28.85,1.86 L29.45,1.73 L30.05,1.60 L30.65,1.48 L31.26,1.37 L31.88,1.26 L32.51,1.15 L33.14,1.05 L33.77,0.95 L34.42,0.86 L35.07,0.77 L35.72,0.69 L36.39,0.61 L37.05,0.53 L37.73,0.47 L38.41,0.40 L39.10,0.34 L39.79,0.29 L40.49,0.24 L41.20,0.19 L41.91,0.15 L42.63,0.12 L43.35,0.09 Z M127.16,0.05 L127.39,0.03 L127.62,0.02 L127.85,0.01 L128.09,0.00 L128.33,0.00 L156.92,0.00 L157.16,0.00 L157.40,0.01 L157.63,0.02 L157.86,0.03 L158.09,0.05 L158.31,0.08 L158.53,0.11 L158.74,0.14 L158.95,0.17 L159.16,0.22 L159.36,0.26 L159.55,0.31 L159.75,0.36 L159.93,0.42 L160.12,0.48 L160.29,0.55 L160.47,0.62 L160.64,0.70 L160.81,0.78 L160.97,0.86 L161.12,0.95 L161.28,1.04 L161.43,1.14 L161.57,1.24 L161.71,1.35 L161.85,1.46 L161.98,1.57 L162.10,1.69 L162.23,1.81 L162.35,1.94 L162.46,2.07 L162.57,2.21 L162.68,2.35 L162.78,2.49 L162.87,2.64 L162.97,2.79 L163.05,2.95 L163.14,3.11 L163.22,3.28 L163.29,3.45 L163.37,3.62 L163.43,3.80 L163.49,3.98 L163.55,4.17 L163.61,4.36 L163.66,4.56 L163.70,4.76 L163.74,4.96 L163.78,5.17 L163.81,5.39 L163.84,5.60 L163.86,5.83 L163.88,6.05 L163.90,6.28 L163.91,6.52 L163.91,6.76 L163.92,7.00 L163.92,34.22 L198.33,34.22 L198.33,7.00 L198.34,6.76 L198.34,6.53 L198.35,6.31 L198.37,6.08 L198.39,5.86 L198.41,5.65 L198.44,5.44 L198.47,5.23 L198.51,5.03 L198.55,4.83 L198.60,4.63 L198.65,4.44 L198.70,4.26 L198.76,4.07 L198.82,3.89 L198.89,3.72 L198.96,3.55 L199.04,3.38 L199.12,3.22 L199.20,3.06 L199.29,2.90 L199.39,2.75 L199.49,2.61 L199.59,2.46 L199.69,2.32 L199.81,2.19 L199.92,2.06 L200.04,1.93 L200.17,1.81 L200.29,1.69 L200.43,1.58 L200.56,1.47 L200.71,1.36 L200.85,1.26 L201.00,1.16 L201.16,1.06 L201.32,0.97 L201.48,0.89 L201.65,0.80 L201.82,0.73 L202.00,0.65 L202.18,0.58 L202.36,0.51 L202.55,0.45 L202.74,0.39 L202.94,0.34 L203.15,0.29 L203.35,0.24 L203.56,0.20 L203.78,0.16 L204.00,0.13 L204.22,0.10 L204.45,0.07 L204.69,0.05 L204.92,0.03 L205.17,0.02 L205.41,0.01 L205.66,0.00 L205.92,0.00 L235.28,0.00 L235.52,0.00 L235.76,0.01 L236.00,0.02 L236.23,0.03 L236.45,0.05 L236.67,0.08 L236.89,0.11 L237.10,0.14 L237.31,0.17 L237.52,0.22 L237.72,0.26 L237.91,0.31 L238.11,0.36 L238.29,0.42 L238.48,0.48 L238.66,0.55 L238.83,0.62 L239.00,0.70 L239.17,0.78 L239.33,0.86 L239.49,0.95 L239.64,1.04 L239.79,1.14 L239.93,1.24 L240.07,1.35 L240.21,1.46 L240.34,1.57 L240.47,1.69 L240.59,1.81 L240.71,1.94 L240.82,2.07 L240.93,2.21 L241.04,2.35 L241.14,2.49 L241.23,2.64 L241.33,2.79 L241.42,2.95 L241.50,3.11 L241.58,3.28 L241.66,3.45 L241.73,3.62 L241.79,3.80 L241.86,3.98 L241.91,4.17 L241.97,4.36 L242.02,4.56 L242.06,4.76 L242.10,4.96 L242.14,5.17 L242.17,5.39 L242.20,5.60 L242.22,5.83 L242.24,6.05 L242.26,6.28 L242.27,6.52 L242.28,6.76 L242.28,7.00 L242.28,58.33 L242.28,58.55 L242.28,58.76 L242.27,58.97 L242.27,59.19 L242.26,59.41 L242.26,59.63 L242.25,59.85 L242.24,60.07 L242.23,60.29 L242.22,60.51 L242.20,60.74 L242.19,60.96 L242.17,61.19 L242.16,61.42 L242.14,61.65 L242.12,61.88 L242.10,62.11 L242.08,62.34 L242.06,62.57 L242.03,62.81 L242.01,63.04 L241.98,63.28 L241.95,63.52 L241.93,63.76 L241.90,64.00 L241.86,64.24 L241.83,64.48 L241.80,64.73 L241.76,64.97 L241.73,65.22 L241.69,65.47 L241.65,65.71 L241.61,65.96 L241.57,66.21 L241.53,66.47 L241.49,66.72 L241.44,66.97 L241.40,67.23 L241.35,67.49 L241.30,67.74 L241.25,68.00 L241.20,68.26 L241.15,68.52 L241.10,68.79 L241.04,69.05 L240.99,69.32 L240.93,69.58 L240.87,69.85 L240.81,70.12 L240.75,70.39 L240.69,70.66 L240.63,70.93 L240.56,71.20 L240.50,71.47 L240.43,71.75 L240.37,71.99 L240.31,72.23 L240.25,72.47 L240.19,72.71 L240.13,72.95 L240.07,73.19 L240.00,73.44 L239.94,73.69 L239.87,73.93 L239.80,74.18 L239.74,74.43 L239.67,74.68 L239.60,74.94 L239.52,75.19 L239.45,75.44 L239.38,75.70 L239.31,75.96 L239.23,76.22 L239.15,76.48 L239.08,76.74 L239.00,77.00 L238.92,77.26 L238.84,77.53 L238.76,77.79 L238.68,78.06 L238.59,78.33 L238.51,78.60 L238.42,78.87 L238.34,79.14 L238.25,79.41 L238.16,79.69 L238.07,79.97 L237.98,80.24 L237.89,80.52 L237.80,80.80 L237.71,81.08 L237.61,81.36 L237.52,81.65 L237.42,81.93 L237.32,82.22 L237.23,82.50 L237.13,82.79 L237.03,83.08 L236.93,83.37 L236.82,83.66 L236.72,83.96 L236.62,84.25 L236.51,84.55 L236.41,84.84 L236.30,85.14 L236.19,85.44 L236.08,85.74 L235.97,86.04 L235.86,86.35 L235.75,86.65 L235.63,86.96 L235.52,87.26 L235.41,87.57 L235.29,87.88 L235.17,88.19 L235.05,88.50 L234.94,88.81 L234.82,89.13 L234.69,89.44 L217.78,133.58 L217.70,133.80 L217.62,134.02 L217.54,134.23 L217.46,134.44 L217.37,134.64 L217.28,134.84 L217.18,135.04 L217.08,135.23 L216.98,135.42 L216.88,135.61 L216.77,135.79 L216.66,135.96 L216.55,136.14 L216.43,136.31 L216.31,136.47 L216.18,136.64 L216.06,136.79 L215.93,136.95 L215.79,137.10 L215.66,137.25 L215.52,137.39 L215.37,137.53 L215.23,137.66 L215.08,137.79 L214.92,137.92 L214.77,138.05 L214.61,138.17 L214.44,138.28 L214.28,138.40 L214.11,138.50 L213.94,138.61 L213.76,138.71 L213.58,138.81 L213.40,138.90 L213.21,138.99 L213.03,139.08 L212.83,139.16 L212.64,139.24 L212.44,139.31 L212.24,139.38 L212.03,139.45 L211.83,139.51 L211.61,139.57 L211.40,139.63 L211.18,139.68 L210.96,139.73 L210.74,139.77 L210.51,139.81 L210.28,139.85 L210.04,139.88 L209.81,139.91 L209.57,139.93 L209.32,139.95 L209.08,139.97 L208.83,139.98 L208.57,139.99 L208.32,140.00 L208.06,140.00 L155.75,140.00 L155.49,140.00 L155.23,139.99 L154.97,139.98 L154.72,139.97 L154.47,139.95 L154.23,139.93 L153.98,139.91 L153.74,139.88 L153.51,139.85 L153.28,139.82 L153.05,139.78 L152.82,139.73 L152.60,139.69 L152.38,139.64 L152.16,139.59 L151.95,139.53 L151.74,139.47 L151.53,139.40 L151.33,139.33 L151.12,139.26 L150.93,139.19 L150.73,139.11 L150.54,139.02 L150.36,138.94 L150.17,138.85 L149.99,138.75 L149.81,138.66 L149.64,138.55 L149.47,138.45 L149.30,138.34 L149.13,138.23 L148.97,138.11 L148.81,137.99 L148.66,137.87 L148.51,137.74 L148.36,137.61 L148.21,137.48 L148.07,137.34 L147.93,137.20 L147.80,137.05 L147.66,136.90 L147.53,136.75 L147.41,136.59 L147.29,136.43 L147.17,136.27 L147.05,136.10 L146.94,135.93 L146.83,135.75 L146.72,135.57 L146.62,135.39 L146.52,135.21 L146.42,135.02 L146.33,134.82 L146.24,134.62 L146.15,134.42 L146.07,134.22 L145.98,134.01 L145.91,133.80 L145.83,133.58 L128.92,89.44 L128.80,89.13 L128.68,88.81 L128.56,88.50 L128.44,88.19 L128.32,87.88 L128.21,87.57 L128.09,87.26 L127.98,86.96 L127.86,86.65 L127.75,86.35 L127.64,86.04 L127.53,85.74 L127.42,85.44 L127.31,85.14 L127.21,84.84 L127.10,84.55 L126.99,84.25 L126.89,83.96 L126.79,83.66 L126.69,83.37 L126.58,83.08 L126.48,82.79 L126.39,82.50 L126.29,82.22 L126.19,81.93 L126.09,81.65 L126.00,81.36 L125.90,81.08 L125.81,80.80 L125.72,80.52 L125.63,80.24 L125.54,79.97 L125.45,79.69 L125.36,79.41 L125.27,79.14 L125.19,78.87 L125.10,78.60 L125.02,78.33 L124.94,78.06 L124.85,77.79 L124.77,77.53 L124.69,77.26 L124.61,77.00 L124.53,76.74 L124.46,76.48 L124.38,76.22 L124.31,75.96 L124.23,75.70 L124.16,75.44 L124.09,75.19 L124.02,74.94 L123.95,74.68 L123.88,74.43 L123.81,74.18 L123.74,73.93 L123.67,73.69 L123.61,73.44 L123.54,73.19 L123.48,72.95 L123.42,72.71 L123.36,72.47 L123.30,72.23 L123.24,71.99 L123.18,71.75 L123.11,71.47 L123.05,71.20 L122.98,70.93 L122.92,70.66 L122.86,70.39 L122.80,70.12 L122.74,69.85 L122.68,69.58 L122.63,69.32 L122.57,69.05 L122.52,68.79 L122.46,68.52 L122.41,68.26 L122.36,68.00 L122.31,67.74 L122.26,67.49 L122.22,67.23 L122.17,66.97 L122.12,66.72 L122.08,66.47 L122.04,66.21 L122.00,65.96 L121.96,65.71 L121.92,65.47 L121.88,65.22 L121.85,64.97 L121.81,64.73 L121.78,64.48 L121.75,64.24 L121.71,64.00 L121.69,63.76 L121.66,63.52 L121.63,63.28 L121.60,63.04 L121.58,62.81 L121.55,62.57 L121.53,62.34 L121.51,62.11 L121.49,61.88 L121.47,61.65 L121.45,61.42 L121.44,61.19 L121.42,60.96 L121.41,60.74 L121.39,60.51 L121.38,60.29 L121.37,60.07 L121.36,59.85 L121.36,59.63 L121.35,59.41 L121.34,59.19 L121.34,58.97 L121.34,58.76 L121.33,58.55 L121.33,58.33 L121.33,7.00 L121.34,6.76 L121.34,6.52 L121.35,6.28 L121.37,6.05 L121.39,5.83 L121.41,5.60 L121.44,5.39 L121.47,5.17 L121.51,4.96 L121.55,4.76 L121.59,4.56 L121.64,4.36 L121.70,4.17 L121.76,3.98 L121.82,3.80 L121.88,3.62 L121.96,3.45 L122.03,3.28 L122.11,3.11 L122.20,2.95 L122.28,2.79 L122.38,2.64 L122.47,2.49 L122.57,2.35 L122.68,2.21 L122.79,2.07 L122.90,1.94 L123.02,1.81 L123.15,1.69 L123.27,1.57 L123.40,1.46 L123.54,1.35 L123.68,1.24 L123.82,1.14 L123.97,1.04 L124.13,0.95 L124.28,0.86 L124.44,0.78 L124.61,0.70 L124.78,0.62 L124.96,0.55 L125.13,0.48 L125.32,0.42 L125.50,0.36 L125.70,0.31 L125.89,0.26 L126.09,0.22 L126.30,0.17 L126.51,0.14 L126.72,0.11 L126.94,0.08 Z M186.77,100.18 L186.89,99.94 L187.02,99.69 L187.13,99.44 L187.25,99.17 L196.39,69.61 L165.86,69.61 L175.00,99.17 L175.12,99.44 L175.23,99.69 L175.36,99.94 L175.48,100.18 L175.61,100.40 L175.74,100.61 L175.88,100.81 L176.02,101.00 L176.16,101.18 L176.30,101.35 L176.45,101.50 L176.60,101.65 L176.76,101.78 L176.92,101.90 L177.08,102.01 L177.25,102.10 L177.42,102.19 L177.59,102.27 L177.76,102.33 L177.94,102.38 L178.13,102.42 L178.31,102.45 L178.50,102.47 L178.69,102.47 L183.56,102.47 L183.75,102.47 L183.94,102.45 L184.12,102.42 L184.31,102.38 L184.49,102.33 L184.66,102.27 L184.83,102.19 L185.00,102.10 L185.17,102.01 L185.33,101.90 L185.49,101.78 L185.65,101.65 L185.80,101.50 L185.95,101.35 L186.09,101.18 L186.23,101.00 L186.37,100.81 L186.51,100.61 L186.64,100.40 Z M272.02,0.05 L272.25,0.03 L272.48,0.02 L272.71,0.01 L272.95,0.00 L273.19,0.00 L303.33,0.00 L303.58,0.00 L303.82,0.01 L304.05,0.02 L304.28,0.03 L304.51,0.05 L304.73,0.08 L304.95,0.11 L305.16,0.14 L305.37,0.17 L305.57,0.22 L305.77,0.26 L305.97,0.31 L306.16,0.36 L306.35,0.42 L306.53,0.48 L306.71,0.55 L306.89,0.62 L307.06,0.70 L307.22,0.78 L307.38,0.86 L307.54,0.95 L307.69,1.04 L307.84,1.14 L307.99,1.24 L308.13,1.35 L308.26,1.46 L308.39,1.57 L308.52,1.69 L308.64,1.81 L308.76,1.94 L308.88,2.07 L308.99,2.21 L309.09,2.35 L309.19,2.49 L309.29,2.64 L309.38,2.79 L309.47,2.95 L309.56,3.11 L309.64,3.28 L309.71,3.45 L309.78,3.62 L309.85,3.80 L309.91,3.98 L309.97,4.17 L310.02,4.36 L310.07,4.56 L310.12,4.76 L310.16,4.96 L310.20,5.17 L310.23,5.39 L310.26,5.60 L310.28,5.83 L310.30,6.05 L310.31,6.28 L310.32,6.52 L310.33,6.76 L310.33,7.00 L310.33,45.31 L344.17,45.31 L344.41,45.31 L344.65,45.31 L344.88,45.32 L345.11,45.34 L345.34,45.36 L345.56,45.38 L345.78,45.41 L345.99,45.44 L346.20,45.48 L346.41,45.52 L346.61,45.57 L346.80,45.62 L347.00,45.67 L347.18,45.73 L347.37,45.79 L347.54,45.86 L347.72,45.93 L347.89,46.00 L348.06,46.08 L348.22,46.17 L348.37,46.26 L348.53,46.35 L348.68,46.45 L348.82,46.55 L348.96,46.65 L349.10,46.76 L349.23,46.88 L349.35,46.99 L349.48,47.12 L349.60,47.24 L349.71,47.38 L349.82,47.51 L349.93,47.65 L350.03,47.80 L350.12,47.94 L350.22,48.10 L350.30,48.26 L350.39,48.42 L350.47,48.58 L350.54,48.75 L350.62,48.93 L350.68,49.11 L350.74,49.29 L350.80,49.48 L350.86,49.67 L350.91,49.86 L350.95,50.06 L350.99,50.27 L351.03,50.48 L351.06,50.69 L351.09,50.91 L351.11,51.13 L351.13,51.36 L351.15,51.59 L351.16,51.82 L351.16,52.06 L351.17,52.31 L351.17,75.64 L351.16,75.88 L351.16,76.12 L351.15,76.36 L351.13,76.59 L351.11,76.81 L351.09,77.04 L351.06,77.25 L351.03,77.47 L350.99,77.67 L350.95,77.88 L350.91,78.08 L350.86,78.28 L350.80,78.47 L350.74,78.66 L350.68,78.84 L350.62,79.02 L350.54,79.19 L350.47,79.36 L350.39,79.53 L350.30,79.69 L350.22,79.85 L350.12,80.00 L350.03,80.15 L349.93,80.29 L349.82,80.43 L349.71,80.57 L349.60,80.70 L349.48,80.83 L349.35,80.95 L349.23,81.07 L349.10,81.18 L348.96,81.29 L348.82,81.40 L348.68,81.50 L348.53,81.60 L348.37,81.69 L348.22,81.78 L348.06,81.86 L347.89,81.94 L347.72,82.02 L347.54,82.09 L347.37,82.15 L347.18,82.22 L347.00,82.27 L346.80,82.33 L346.61,82.38 L346.41,82.42 L346.20,82.46 L345.99,82.50 L345.78,82.53 L345.56,82.56 L345.34,82.59 L345.11,82.60 L344.88,82.62 L344.65,82.63 L344.41,82.64 L344.17,82.64 L310.33,82.64 L310.33,102.86 L359.92,102.86 L360.16,102.86 L360.40,102.87 L360.63,102.88 L360.86,102.90 L361.09,102.91 L361.31,102.94 L361.53,102.97 L361.74,103.00 L361.95,103.04 L362.16,103.08 L362.36,103.12 L362.55,103.17 L362.75,103.23 L362.93,103.28 L363.12,103.35 L363.29,103.41 L363.47,103.48 L363.64,103.56 L363.81,103.64 L363.97,103.72 L364.12,103.81 L364.28,103.90 L364.43,104.00 L364.57,104.10 L364.71,104.21 L364.85,104.32 L364.98,104.43 L365.10,104.55 L365.23,104.67 L365.35,104.80 L365.46,104.93 L365.57,105.07 L365.68,105.21 L365.78,105.35 L365.87,105.50 L365.97,105.65 L366.05,105.81 L366.14,105.97 L366.22,106.14 L366.29,106.31 L366.37,106.48 L366.43,106.66 L366.49,106.84 L366.55,107.03 L366.61,107.22 L366.66,107.42 L366.70,107.62 L366.74,107.83 L366.78,108.03 L366.81,108.25 L366.84,108.46 L366.86,108.69 L366.88,108.91 L366.90,109.14 L366.91,109.38 L366.91,109.62 L366.92,109.86 L366.92,133.00 L366.91,133.24 L366.91,133.48 L366.90,133.72 L366.88,133.95 L366.86,134.17 L366.84,134.40 L366.81,134.61 L366.78,134.83 L366.74,135.04 L366.70,135.24 L366.66,135.44 L366.61,135.64 L366.55,135.83 L366.49,136.02 L366.43,136.20 L366.37,136.38 L366.29,136.55 L366.22,136.72 L366.14,136.89 L366.05,137.05 L365.97,137.21 L365.87,137.36 L365.78,137.51 L365.68,137.65 L365.57,137.79 L365.46,137.93 L365.35,138.06 L365.23,138.19 L365.10,138.31 L364.98,138.43 L364.85,138.54 L364.71,138.65 L364.57,138.76 L364.43,138.86 L364.28,138.96 L364.12,139.05 L363.97,139.14 L363.81,139.22 L363.64,139.30 L363.47,139.38 L363.29,139.45 L363.12,139.52 L362.93,139.58 L362.75,139.64 L362.55,139.69 L362.36,139.74 L362.16,139.78 L361.95,139.83 L361.74,139.86 L361.53,139.89 L361.31,139.92 L361.09,139.95 L360.86,139.97 L360.63,139.98 L360.40,139.99 L360.16,140.00 L359.92,140.00 L273.19,140.00 L272.95,140.00 L272.71,139.99 L272.48,139.98 L272.25,139.97 L272.02,139.95 L271.80,139.92 L271.58,139.89 L271.37,139.86 L271.16,139.83 L270.95,139.78 L270.75,139.74 L270.56,139.69 L270.37,139.64 L270.18,139.58 L269.99,139.52 L269.82,139.45 L269.64,139.38 L269.47,139.30 L269.31,139.22 L269.14,139.14 L268.99,139.05 L268.83,138.96 L268.69,138.86 L268.54,138.76 L268.40,138.65 L268.26,138.54 L268.13,138.43 L268.01,138.31 L267.88,138.19 L267.77,138.06 L267.65,137.93 L267.54,137.79 L267.44,137.65 L267.33,137.51 L267.24,137.36 L267.14,137.21 L267.06,137.05 L266.97,136.89 L266.89,136.72 L266.82,136.55 L266.75,136.38 L266.68,136.20 L266.62,136.02 L266.56,135.83 L266.50,135.64 L266.46,135.44 L266.41,135.24 L266.37,135.04 L266.33,134.83 L266.30,134.61 L266.27,134.40 L266.25,134.17 L266.23,133.95 L266.21,133.72 L266.20,133.48 L266.20,133.24 L266.19,133.00 L266.19,7.00 L266.20,6.76 L266.20,6.52 L266.21,6.28 L266.23,6.05 L266.25,5.83 L266.27,5.60 L266.30,5.39 L266.33,5.17 L266.37,4.96 L266.41,4.76 L266.46,4.56 L266.50,4.36 L266.56,4.17 L266.62,3.98 L266.68,3.80 L266.75,3.62 L266.82,3.45 L266.89,3.28 L266.97,3.11 L267.06,2.95 L267.14,2.79 L267.24,2.64 L267.33,2.49 L267.44,2.35 L267.54,2.21 L267.65,2.07 L267.77,1.94 L267.88,1.81 L268.01,1.69 L268.13,1.57 L268.26,1.46 L268.40,1.35 L268.54,1.24 L268.69,1.14 L268.83,1.04 L268.99,0.95 L269.14,0.86 L269.31,0.78 L269.47,0.70 L269.64,0.62 L269.82,0.55 L269.99,0.48 L270.18,0.42 L270.37,0.36 L270.56,0.31 L270.75,0.26 L270.95,0.22 L271.16,0.17 L271.37,0.14 L271.58,0.11 L271.80,0.08 Z M392.19,0.05 L392.41,0.03 L392.64,0.02 L392.88,0.01 L393.12,0.00 L393.36,0.00 L483.58,0.00 L483.83,0.00 L484.07,0.01 L484.30,0.02 L484.53,0.03 L484.76,0.05 L484.98,0.08 L485.20,0.11 L485.41,0.14 L485.62,0.17 L485.82,0.22 L486.02,0.26 L486.22,0.31 L486.41,0.36 L486.60,0.42 L486.78,0.48 L486.96,0.55 L487.14,0.62 L487.31,0.70 L487.47,0.78 L487.63,0.86 L487.79,0.95 L487.94,1.04 L488.09,1.14 L488.24,1.24 L488.38,1.35 L488.51,1.46 L488.64,1.57 L488.77,1.69 L488.89,1.81 L489.01,1.94 L489.13,2.07 L489.24,2.21 L489.34,2.35 L489.44,2.49 L489.54,2.64 L489.63,2.79 L489.72,2.95 L489.81,3.11 L489.89,3.28 L489.96,3.45 L490.03,3.62 L490.10,3.80 L490.16,3.98 L490.22,4.17 L490.27,4.36 L490.32,4.56 L490.37,4.76 L490.41,4.96 L490.45,5.17 L490.48,5.39 L490.51,5.60 L490.53,5.83 L490.55,6.05 L490.56,6.28 L490.57,6.52 L490.58,6.76 L490.58,7.00 L490.58,29.75 L490.58,29.99 L490.57,30.23 L490.56,30.47 L490.55,30.70 L490.53,30.92 L490.51,31.15 L490.48,31.36 L490.45,31.58 L490.41,31.79 L490.37,31.99 L490.32,32.19 L490.27,32.39 L490.22,32.58 L490.16,32.77 L490.10,32.95 L490.03,33.13 L489.96,33.30 L489.89,33.47 L489.81,33.64 L489.72,33.80 L489.63,33.96 L489.54,34.11 L489.44,34.26 L489.34,34.40 L489.24,34.54 L489.13,34.68 L489.01,34.81 L488.89,34.94 L488.77,35.06 L488.64,35.18 L488.51,35.29 L488.38,35.40 L488.24,35.51 L488.09,35.61 L487.94,35.71 L487.79,35.80 L487.63,35.89 L487.47,35.97 L487.31,36.05 L487.14,36.13 L486.96,36.20 L486.78,36.27 L486.60,36.33 L486.41,36.39 L486.22,36.44 L486.02,36.49 L485.82,36.53 L485.62,36.58 L485.41,36.61 L485.20,36.64 L484.98,36.67 L484.76,36.70 L484.53,36.72 L484.30,36.73 L484.07,36.74 L483.83,36.75 L483.58,36.75 L429.92,36.75 L429.92,53.47 L467.83,53.47 L468.08,53.47 L468.32,53.48 L468.55,53.49 L468.78,53.51 L469.01,53.53 L469.23,53.55 L469.45,53.58 L469.66,53.61 L469.87,53.65 L470.07,53.69 L470.27,53.73 L470.47,53.78 L470.66,53.84 L470.85,53.89 L471.03,53.96 L471.21,54.02 L471.39,54.09 L471.56,54.17 L471.72,54.25 L471.88,54.33 L472.04,54.42 L472.19,54.52 L472.34,54.61 L472.49,54.71 L472.63,54.82 L472.76,54.93 L472.89,55.04 L473.02,55.16 L473.14,55.28 L473.26,55.41 L473.38,55.54 L473.49,55.68 L473.59,55.82 L473.69,55.96 L473.79,56.11 L473.88,56.26 L473.97,56.42 L474.06,56.58 L474.14,56.75 L474.21,56.92 L474.28,57.09 L474.35,57.27 L474.41,57.46 L474.47,57.64 L474.52,57.84 L474.57,58.03 L474.62,58.23 L474.66,58.44 L474.70,58.65 L474.73,58.86 L474.76,59.08 L474.78,59.30 L474.80,59.52 L474.81,59.75 L474.82,59.99 L474.83,60.23 L474.83,60.47 L474.83,81.28 L474.83,81.52 L474.82,81.76 L474.81,82.00 L474.80,82.23 L474.78,82.45 L474.76,82.67 L474.73,82.89 L474.70,83.10 L474.66,83.31 L474.62,83.52 L474.57,83.72 L474.52,83.91 L474.47,84.11 L474.41,84.29 L474.35,84.48 L474.28,84.66 L474.21,84.83 L474.14,85.00 L474.06,85.17 L473.97,85.33 L473.88,85.49 L473.79,85.64 L473.69,85.79 L473.59,85.93 L473.49,86.07 L473.38,86.21 L473.26,86.34 L473.14,86.47 L473.02,86.59 L472.89,86.71 L472.76,86.82 L472.63,86.93 L472.49,87.04 L472.34,87.14 L472.19,87.23 L472.04,87.33 L471.88,87.42 L471.72,87.50 L471.56,87.58 L471.39,87.66 L471.21,87.73 L471.03,87.79 L470.85,87.86 L470.66,87.91 L470.47,87.97 L470.27,88.02 L470.07,88.06 L469.87,88.10 L469.66,88.14 L469.45,88.17 L469.23,88.20 L469.01,88.22 L468.78,88.24 L468.55,88.26 L468.32,88.27 L468.08,88.28 L467.83,88.28 L429.92,88.28 L429.92,103.25 L483.58,103.25 L483.83,103.25 L484.07,103.26 L484.30,103.27 L484.53,103.28 L484.76,103.30 L484.98,103.33 L485.20,103.36 L485.41,103.39 L485.62,103.42 L485.82,103.47 L486.02,103.51 L486.22,103.56 L486.41,103.61 L486.60,103.67 L486.78,103.73 L486.96,103.80 L487.14,103.87 L487.31,103.95 L487.47,104.03 L487.63,104.11 L487.79,104.20 L487.94,104.29 L488.09,104.39 L488.24,104.49 L488.38,104.60 L488.51,104.71 L488.64,104.82 L488.77,104.94 L488.89,105.06 L489.01,105.19 L489.13,105.32 L489.24,105.46 L489.34,105.60 L489.44,105.74 L489.54,105.89 L489.63,106.04 L489.72,106.20 L489.81,106.36 L489.89,106.53 L489.96,106.70 L490.03,106.87 L490.10,107.05 L490.16,107.23 L490.22,107.42 L490.27,107.61 L490.32,107.81 L490.37,108.01 L490.41,108.21 L490.45,108.42 L490.48,108.64 L490.51,108.85 L490.53,109.08 L490.55,109.30 L490.56,109.53 L490.57,109.77 L490.58,110.01 L490.58,110.25 L490.58,133.00 L490.58,133.24 L490.57,133.48 L490.56,133.72 L490.55,133.95 L490.53,134.17 L490.51,134.40 L490.48,134.61 L490.45,134.83 L490.41,135.04 L490.37,135.24 L490.32,135.44 L490.27,135.64 L490.22,135.83 L490.16,136.02 L490.10,136.20 L490.03,136.38 L489.96,136.55 L489.89,136.72 L489.81,136.89 L489.72,137.05 L489.63,137.21 L489.54,137.36 L489.44,137.51 L489.34,137.65 L489.24,137.79 L489.13,137.93 L489.01,138.06 L488.89,138.19 L488.77,138.31 L488.64,138.43 L488.51,138.54 L488.38,138.65 L488.24,138.76 L488.09,138.86 L487.94,138.96 L487.79,139.05 L487.63,139.14 L487.47,139.22 L487.31,139.30 L487.14,139.38 L486.96,139.45 L486.78,139.52 L486.60,139.58 L486.41,139.64 L486.22,139.69 L486.02,139.74 L485.82,139.78 L485.62,139.83 L485.41,139.86 L485.20,139.89 L484.98,139.92 L484.76,139.95 L484.53,139.97 L484.30,139.98 L484.07,139.99 L483.83,140.00 L483.58,140.00 L393.36,140.00 L393.12,140.00 L392.88,139.99 L392.64,139.98 L392.41,139.97 L392.19,139.95 L391.96,139.92 L391.75,139.89 L391.53,139.86 L391.33,139.83 L391.12,139.78 L390.92,139.74 L390.72,139.69 L390.53,139.64 L390.34,139.58 L390.16,139.52 L389.98,139.45 L389.81,139.38 L389.64,139.30 L389.47,139.22 L389.31,139.14 L389.15,139.05 L389.00,138.96 L388.85,138.86 L388.71,138.76 L388.57,138.65 L388.43,138.54 L388.30,138.43 L388.17,138.31 L388.05,138.19 L387.93,138.06 L387.82,137.93 L387.71,137.79 L387.60,137.65 L387.50,137.51 L387.40,137.36 L387.31,137.21 L387.22,137.05 L387.14,136.89 L387.06,136.72 L386.98,136.55 L386.91,136.38 L386.85,136.20 L386.78,136.02 L386.73,135.83 L386.67,135.64 L386.62,135.44 L386.58,135.24 L386.54,135.04 L386.50,134.83 L386.47,134.61 L386.44,134.40 L386.41,134.17 L386.40,133.95 L386.38,133.72 L386.37,133.48 L386.36,133.24 L386.36,133.00 L386.36,7.00 L386.36,6.76 L386.37,6.52 L386.38,6.28 L386.40,6.05 L386.41,5.83 L386.44,5.60 L386.47,5.39 L386.50,5.17 L386.54,4.96 L386.58,4.76 L386.62,4.56 L386.67,4.36 L386.73,4.17 L386.78,3.98 L386.85,3.80 L386.91,3.62 L386.98,3.45 L387.06,3.28 L387.14,3.11 L387.22,2.95 L387.31,2.79 L387.40,2.64 L387.50,2.49 L387.60,2.35 L387.71,2.21 L387.82,2.07 L387.93,1.94 L388.05,1.81 L388.17,1.69 L388.30,1.57 L388.43,1.46 L388.57,1.35 L388.71,1.24 L388.85,1.14 L389.00,1.04 L389.15,0.95 L389.31,0.86 L389.47,0.78 L389.64,0.70 L389.81,0.62 L389.98,0.55 L390.16,0.48 L390.34,0.42 L390.53,0.36 L390.72,0.31 L390.92,0.26 L391.12,0.22 L391.33,0.17 L391.53,0.14 L391.75,0.11 L391.96,0.08 Z" fill="#7ec8ff" fill-opacity="0.8" fill-rule="evenodd" stroke="#141414" stroke-width="1.2"/><path d="M483.58,140.00 L483.83,140.00 L484.07,139.99 L484.30,139.98 L484.53,139.97 L484.76,139.95 L484.98,139.92 L485.20,139.89 L485.41,139.86 L485.62,139.83 L485.82,139.78 L486.02,139.74 L486.22,139.69 L486.41,139.64 L486.60,139.58 L486.78,139.52 L486.96,139.45 L487.14,139.38 L487.31,139.30 L487.47,139.22 L487.63,139.14 L487.79,139.05 L487.94,138.96 L488.09,138.86 L488.24,138.76 L488.38,138.65 L488.51,138.54 L488.64,138.43 L488.77,138.31 L488.89,138.19 L489.01,138.06 L489.13,137.93 L489.24,137.79 L489.34,137.65 L489.44,137.51 L489.54,137.36 L489.63,137.21 L489.72,137.05 L489.81,136.89 L489.89,136.72 L489.96,136.55 L490.03,136.38 L490.10,136.20 L490.16,136.02 L490.22,135.83 L490.27,135.64 L490.32,135.44 L490.37,135.24 L490.41,135.04 L490.45,134.83 L490.48,134.61 L490.51,134.40 L490.53,134.17 L490.55,133.95 L490.56,133.72 L490.57,133.48 L490.58,133.24 L490.58,133.00 L490.58,7.00 L490.58,6.76 L490.57,6.52 L490.56,6.28 L490.55,6.05 L490.53,5.83 L490.51,5.60 L490.48,5.39 L490.45,5.17 L490.41,4.96 L490.37,4.76 L490.32,4.56 L490.27,4.36 L490.22,4.17 L490.16,3.98 L490.10,3.80 L490.03,3.62 L489.96,3.45 L489.89,3.28 L489.81,3.11 L489.72,2.95 L489.63,2.79 L489.54,2.64 L489.44,2.49 L489.34,2.35 L489.24,2.21 L489.13,2.07 L489.01,1.94 L488.89,1.81 L488.77,1.69 L488.64,1.57 L488.51,1.46 L488.38,1.35 L488.24,1.24 L488.09,1.14 L487.94,1.04 L487.79,0.95 L487.63,0.86 L487.47,0.78 L487.31,0.70 L487.14,0.62 L486.96,0.55 L486.78,0.48 L486.60,0.42 L486.41,0.36 L486.22,0.31 L486.02,0.26 L485.82,0.22 L485.62,0.17 L485.41,0.14 L485.20,0.11 L484.98,0.08 L484.76,0.05 L484.53,0.03 L484.30,0.02 L484.07,0.01 L483.83,0.00 L483.58,0.00 L245.06,0.00 L245.06,140.00 Z" fill="none" stroke="#ff5470" stroke-width="0.8" stroke-dasharray="4 3"/></g><text x="124.5" y="-8.0" fill="#ff5470" font-size="14" text-anchor="middle" font-family="system-ui">P1</text><text x="367.8" y="-8.0" fill="#ff5470" font-size="14" text-anchor="middle" font-family="system-ui">P2</text></svg>