<svg viewBox="-37.0 -187.0 201.9 224.0" xmlns="http://www.w3.org/2000/svg"><g transform="scale(1,-1)"><path d="M-12.00,-12.00 L139.92,-12.00 L139.92,162.00 L-12.00,162.00 Z" fill="#1d1d25" stroke="#3a3a46" stroke-width="1"/><path d="M87.50,0.00 L88.15,0.00 L88.79,0.01 L89.43,0.02 L90.06,0.03 L90.69,0.05 L91.31,0.07 L91.93,0.10 L92.54,0.13 L93.14,0.16 L93.74,0.20 L94.34,0.25 L94.92,0.29 L95.51,0.34 L96.09,0.40 L96.66,0.46 L97.23,0.52 L97.79,0.59 L98.35,0.66 L98.90,0.73 L99.44,0.81 L99.98,0.90 L100.52,0.98 L101.05,1.08 L101.57,1.17 L102.09,1.27 L102.60,1.38 L103.11,1.48 L103.62,1.60 L104.11,1.71 L104.61,1.83 L105.09,1.96 L105.57,2.08 L106.05,2.22 L106.52,2.35 L106.98,2.49 L107.44,2.64 L107.90,2.79 L108.35,2.94 L108.79,3.09 L109.23,3.26 L109.66,3.42 L110.09,3.59 L110.51,3.76 L110.93,3.94 L111.34,4.12 L111.74,4.31 L112.14,4.49 L112.54,4.69 L112.93,4.88 L113.31,5.09 L113.69,5.29 L114.06,5.50 L114.43,5.71 L114.80,5.93 L115.15,6.15 L115.50,6.38 L115.85,6.61 L116.19,6.84 L116.53,7.08 L116.86,7.32 L117.18,7.57 L117.50,7.82 L117.82,8.07 L118.12,8.33 L118.43,8.60 L118.73,8.86 L119.02,9.13 L119.31,9.41 L119.60,9.69 L119.87,9.98 L120.15,10.27 L120.42,10.56 L120.69,10.86 L120.95,11.16 L121.20,11.47 L121.45,11.78 L121.70,12.10 L121.94,12.42 L122.18,12.74 L122.41,13.07 L122.64,13.41 L122.86,13.75 L123.08,14.09 L123.29,14.44 L123.50,14.79 L123.70,15.15 L123.90,15.51 L124.09,15.87 L124.28,16.24 L124.46,16.62 L124.64,17.00 L124.82,17.38 L124.99,17.77 L125.15,18.16 L125.31,18.56 L125.47,18.96 L125.62,19.36 L125.77,19.77 L125.91,20.19 L126.04,20.61 L126.17,21.03 L126.30,21.46 L126.42,21.89 L126.54,22.33 L126.65,22.77 L126.76,23.22 L126.86,23.67 L126.96,24.12 L127.05,24.58 L127.14,25.05 L127.23,25.52 L127.30,25.99 L127.38,26.47 L127.45,26.95 L127.51,27.44 L127.57,27.93 L127.63,28.42 L127.68,28.92 L127.72,29.43 L127.76,29.93 L127.80,30.45 L127.83,30.97 L127.86,31.49 L127.88,32.01 L127.90,32.55 L127.91,33.08 L127.91,33.62 L127.92,34.17 L127.92,53.33 L127.92,53.81 L127.91,54.29 L127.90,54.76 L127.89,55.23 L127.88,55.70 L127.86,56.16 L127.84,56.61 L127.82,57.07 L127.79,57.52 L127.76,57.97 L127.73,58.41 L127.69,58.85 L127.65,59.28 L127.61,59.71 L127.57,60.14 L127.52,60.57 L127.47,60.99 L127.41,61.40 L127.36,61.82 L127.30,62.23 L127.23,62.63 L127.17,63.03 L127.10,63.43 L127.02,63.83 L126.95,64.22 L126.87,64.60 L126.79,64.99 L126.70,65.37 L126.61,65.74 L126.52,66.12 L126.43,66.48 L126.33,66.85 L126.23,67.21 L126.12,67.57 L126.02,67.92 L125.91,68.27 L125.79,68.62 L125.68,68.96 L125.56,69.30 L125.43,69.63 L125.31,69.97 L125.18,70.29 L125.05,70.62 L124.91,70.94 L124.78,71.25 L124.63,71.57 L124.49,71.88 L124.34,72.18 L124.19,72.48 L124.04,72.78 L123.88,73.07 L123.72,73.37 L123.56,73.65 L123.39,73.94 L123.22,74.21 L123.05,74.49 L122.88,74.76 L122.70,75.03 L122.52,75.30 L122.33,75.56 L122.14,75.81 L121.95,76.07 L121.76,76.32 L121.56,76.56 L121.36,76.81 L121.16,77.04 L120.95,77.28 L120.74,77.51 L120.53,77.74 L120.31,77.97 L120.09,78.19 L119.86,78.41 L119.63,78.63 L119.40,78.84 L119.17,79.05 L118.93,79.26 L118.68,79.47 L118.44,79.67 L118.19,79.86 L117.94,80.06 L117.68,80.25 L117.42,80.44 L117.16,80.62 L116.89,80.80 L116.62,80.98 L116.34,81.16 L116.07,81.33 L115.79,81.50 L115.50,81.66 L115.21,81.83 L114.92,81.99 L114.63,82.14 L114.33,82.30 L114.03,82.44 L113.72,82.59 L113.41,82.73 L113.10,82.87 L112.78,83.01 L112.46,83.14 L112.14,83.28 L111.81,83.40 L111.48,83.53 L111.15,83.65 L110.81,83.76 L110.47,83.88 L110.13,83.99 L109.78,84.10 L109.43,84.20 L109.07,84.30 L108.72,84.40 L108.35,84.50 L107.99,84.59 L107.62,84.68 L107.25,84.76 L106.87,84.85 L106.49,84.93 L106.11,85.00 L105.72,85.07 L105.33,85.14 L104.94,85.21 L104.54,85.27 L104.14,85.33 L103.74,85.39 L103.33,85.44 L102.92,85.49 L102.51,85.54 L102.09,85.58 L101.67,85.62 L102.05,85.79 L102.42,85.96 L102.79,86.14 L103.16,86.32 L103.51,86.51 L103.86,86.71 L104.21,86.91 L104.55,87.12 L104.88,87.33 L105.21,87.55 L105.53,87.77 L105.84,88.00 L106.15,88.24 L106.46,88.48 L106.75,88.73 L107.04,88.98 L107.33,89.24 L107.61,89.51 L107.88,89.78 L108.15,90.06 L108.41,90.34 L108.66,90.63 L108.91,90.93 L109.16,91.23 L109.39,91.54 L109.63,91.85 L109.85,92.17 L110.07,92.50 L110.28,92.83 L110.49,93.16 L110.69,93.51 L110.89,93.85 L111.07,94.21 L111.26,94.57 L111.43,94.94 L111.61,95.31 L111.77,95.69 L111.93,96.07 L112.08,96.46 L112.23,96.86 L112.37,97.26 L112.51,97.66 L112.63,98.08 L112.76,98.50 L112.88,98.92 L112.99,99.35 L113.09,99.79 L113.19,100.23 L113.28,100.68 L113.37,101.14 L113.45,101.60 L113.53,102.07 L113.60,102.54 L113.66,103.02 L113.72,103.50 L113.77,103.99 L113.81,104.49 L113.85,104.99 L113.88,105.50 L113.91,106.01 L113.93,106.53 L113.95,107.06 L113.96,107.59 L113.96,108.12 L113.96,118.12 L113.96,118.64 L113.95,119.15 L113.94,119.65 L113.92,120.15 L113.90,120.64 L113.87,121.13 L113.84,121.62 L113.81,122.10 L113.76,122.58 L113.72,123.05 L113.67,123.52 L113.61,123.99 L113.55,124.45 L113.49,124.91 L113.42,125.36 L113.35,125.81 L113.27,126.25 L113.18,126.69 L113.10,127.13 L113.00,127.56 L112.90,127.98 L112.80,128.41 L112.69,128.82 L112.58,129.24 L112.46,129.65 L112.34,130.05 L112.22,130.45 L112.08,130.85 L111.95,131.24 L111.81,131.63 L111.66,132.02 L111.51,132.40 L111.36,132.77 L111.19,133.14 L111.03,133.51 L110.86,133.87 L110.69,134.23 L110.51,134.58 L110.32,134.93 L110.13,135.28 L109.94,135.62 L109.74,135.96 L109.54,136.29 L109.33,136.62 L109.12,136.94 L108.90,137.26 L108.68,137.58 L108.45,137.89 L108.22,138.20 L107.98,138.50 L107.74,138.80 L107.49,139.09 L107.24,139.38 L106.99,139.67 L106.73,139.95 L106.46,140.23 L106.19,140.50 L105.92,140.77 L105.64,141.03 L105.35,141.29 L105.06,141.55 L104.77,141.80 L104.47,142.05 L104.17,142.29 L103.86,142.53 L103.54,142.77 L103.23,143.00 L102.90,143.23 L102.57,143.45 L102.24,143.67 L101.90,143.89 L101.55,144.10 L101.20,144.31 L100.85,144.51 L100.49,144.71 L100.12,144.91 L99.75,145.11 L99.37,145.30 L98.99,145.48 L98.61,145.66 L98.22,145.84 L97.82,146.02 L97.42,146.19 L97.01,146.36 L96.60,146.52 L96.18,146.68 L95.76,146.84 L95.33,146.99 L94.90,147.14 L94.46,147.28 L94.01,147.42 L93.57,147.56 L93.11,147.69 L92.65,147.82 L92.19,147.95 L91.72,148.07 L91.24,148.19 L90.76,148.31 L90.28,148.42 L89.79,148.52 L89.29,148.63 L88.79,148.73 L88.29,148.82 L87.78,148.92 L87.26,149.00 L86.74,149.09 L86.21,149.17 L85.68,149.25 L85.14,149.32 L84.60,149.39 L84.06,149.46 L83.50,149.52 L82.94,149.58 L82.38,149.63 L81.81,149.68 L81.24,149.73 L80.66,149.77 L80.08,149.81 L79.49,149.85 L78.90,149.88 L78.30,149.91 L77.69,149.93 L77.08,149.95 L76.47,149.97 L75.85,149.98 L75.22,149.99 L74.59,150.00 L73.96,150.00 L7.50,150.00 L7.25,150.00 L7.01,149.99 L6.77,149.98 L6.53,149.97 L6.30,149.95 L6.07,149.93 L5.85,149.90 L5.63,149.87 L5.42,149.83 L5.21,149.79 L5.00,149.75 L4.80,149.70 L4.60,149.65 L4.41,149.59 L4.22,149.53 L4.03,149.47 L3.85,149.40 L3.68,149.32 L3.50,149.25 L3.33,149.17 L3.17,149.08 L3.01,148.99 L2.85,148.90 L2.70,148.80 L2.55,148.70 L2.41,148.59 L2.27,148.48 L2.13,148.37 L2.00,148.25 L1.88,148.12 L1.75,148.00 L1.63,147.87 L1.52,147.73 L1.41,147.59 L1.30,147.45 L1.20,147.30 L1.10,147.15 L1.01,146.99 L0.92,146.83 L0.83,146.67 L0.75,146.50 L0.68,146.32 L0.60,146.15 L0.53,145.97 L0.47,145.78 L0.41,145.59 L0.35,145.40 L0.30,145.20 L0.25,145.00 L0.21,144.79 L0.17,144.58 L0.13,144.37 L0.10,144.15 L0.07,143.93 L0.05,143.70 L0.03,143.47 L0.02,143.23 L0.01,142.99 L0.00,142.75 L0.00,142.50 L0.00,7.50 L0.00,7.25 L0.01,7.01 L0.02,6.77 L0.03,6.53 L0.05,6.30 L0.07,6.07 L0.10,5.85 L0.13,5.63 L0.17,5.42 L0.21,5.21 L0.25,5.00 L0.30,4.80 L0.35,4.60 L0.41,4.41 L0.47,4.22 L0.53,4.03 L0.60,3.85 L0.68,3.68 L0.75,3.50 L0.83,3.33 L0.92,3.17 L1.01,3.01 L1.10,2.85 L1.20,2.70 L1.30,2.55 L1.41,2.41 L1.52,2.27 L1.63,2.13 L1.75,2.00 L1.88,1.88 L2.00,1.75 L2.13,1.63 L2.27,1.52 L2.41,1.41 L2.55,1.30 L2.70,1.20 L2.85,1.10 L3.01,1.01 L3.17,0.92 L3.33,0.83 L3.50,0.75 L3.68,0.68 L3.85,0.60 L4.03,0.53 L4.22,0.47 L4.41,0.41 L4.60,0.35 L4.80,0.30 L5.00,0.25 L5.21,0.21 L5.42,0.17 L5.63,0.13 L5.85,0.10 L6.07,0.07 L6.30,0.05 L6.53,0.03 L6.77,0.02 L7.01,0.01 L7.25,0.00 L7.50,0.00 Z M46.88,92.08 L46.88,114.58 L64.58,114.58 L64.83,114.58 L65.07,114.58 L65.31,114.57 L65.54,114.55 L65.77,114.53 L66.00,114.51 L66.22,114.48 L66.44,114.45 L66.65,114.42 L66.86,114.38 L67.07,114.34 L67.27,114.29 L67.47,114.24 L67.67,114.18 L67.86,114.13 L68.05,114.06 L68.23,114.00 L68.41,113.92 L68.59,113.85 L68.76,113.77 L68.93,113.69 L69.09,113.60 L69.25,113.51 L69.41,113.41 L69.56,113.31 L69.71,113.21 L69.85,113.10 L70.00,112.99 L70.13,112.87 L70.27,112.75 L70.40,112.63 L70.52,112.50 L70.64,112.37 L70.76,112.23 L70.87,112.09 L70.98,111.95 L71.09,111.80 L71.19,111.65 L71.29,111.49 L71.39,111.33 L71.48,111.16 L71.56,110.99 L71.65,110.82 L71.73,110.64 L71.80,110.46 L71.87,110.28 L71.94,110.09 L72.01,109.90 L72.07,109.70 L72.12,109.50 L72.17,109.29 L72.22,109.08 L72.27,108.87 L72.31,108.65 L72.34,108.43 L72.38,108.20 L72.41,107.97 L72.43,107.74 L72.45,107.50 L72.47,107.26 L72.48,107.01 L72.49,106.76 L72.50,106.51 L72.50,106.25 L72.50,100.42 L72.50,100.16 L72.49,99.90 L72.48,99.65 L72.47,99.41 L72.45,99.17 L72.43,98.93 L72.41,98.69 L72.38,98.46 L72.34,98.24 L72.31,98.02 L72.27,97.80 L72.22,97.58 L72.17,97.38 L72.12,97.17 L72.07,96.97 L72.01,96.77 L71.94,96.58 L71.87,96.39 L71.80,96.20 L71.73,96.02 L71.65,95.85 L71.56,95.67 L71.48,95.50 L71.39,95.34 L71.29,95.18 L71.19,95.02 L71.09,94.87 L70.98,94.72 L70.87,94.58 L70.76,94.44 L70.64,94.30 L70.52,94.17 L70.40,94.04 L70.27,93.91 L70.13,93.79 L70.00,93.68 L69.85,93.57 L69.71,93.46 L69.56,93.35 L69.41,93.26 L69.25,93.16 L69.09,93.07 L68.93,92.98 L68.76,92.90 L68.59,92.82 L68.41,92.74 L68.23,92.67 L68.05,92.60 L67.86,92.54 L67.67,92.48 L67.47,92.43 L67.27,92.38 L67.07,92.33 L66.86,92.29 L66.65,92.25 L66.44,92.21 L66.22,92.18 L66.00,92.16 L65.77,92.13 L65.54,92.12 L65.31,92.10 L65.07,92.09 L64.83,92.09 L64.58,92.08 Z M46.88,35.42 L46.88,60.00 L73.96,60.00 L74.20,60.00 L74.45,59.99 L74.68,59.98 L74.92,59.97 L75.15,59.95 L75.37,59.93 L75.60,59.90 L75.81,59.87 L76.03,59.84 L76.24,59.80 L76.45,59.76 L76.65,59.71 L76.85,59.66 L77.04,59.61 L77.23,59.55 L77.42,59.49 L77.61,59.43 L77.79,59.36 L77.96,59.28 L78.13,59.21 L78.30,59.13 L78.47,59.04 L78.63,58.95 L78.78,58.86 L78.94,58.76 L79.08,58.66 L79.23,58.55 L79.37,58.44 L79.51,58.33 L79.64,58.21 L79.77,58.09 L79.90,57.97 L80.02,57.84 L80.14,57.71 L80.25,57.57 L80.36,57.43 L80.47,57.28 L80.57,57.14 L80.67,56.98 L80.76,56.83 L80.85,56.67 L80.94,56.50 L81.02,56.33 L81.10,56.16 L81.18,55.98 L81.25,55.80 L81.32,55.62 L81.38,55.43 L81.44,55.24 L81.50,55.04 L81.55,54.84 L81.60,54.64 L81.64,54.43 L81.68,54.22 L81.72,54.00 L81.75,53.78 L81.78,53.56 L81.81,53.33 L81.83,53.09 L81.84,52.86 L81.86,52.62 L81.87,52.37 L81.87,52.13 L81.88,51.88 L81.88,43.75 L81.87,43.49 L81.87,43.24 L81.86,42.99 L81.84,42.74 L81.83,42.50 L81.81,42.26 L81.78,42.03 L81.75,41.80 L81.72,41.57 L81.68,41.35 L81.64,41.13 L81.60,40.92 L81.55,40.71 L81.50,40.50 L81.44,40.30 L81.38,40.10 L81.32,39.91 L81.25,39.72 L81.18,39.54 L81.10,39.36 L81.02,39.18 L80.94,39.01 L80.85,38.84 L80.76,38.67 L80.67,38.51 L80.57,38.35 L80.47,38.20 L80.36,38.05 L80.25,37.91 L80.14,37.77 L80.02,37.63 L79.90,37.50 L79.77,37.37 L79.64,37.25 L79.51,37.13 L79.37,37.01 L79.23,36.90 L79.08,36.79 L78.94,36.69 L78.78,36.59 L78.63,36.49 L78.47,36.40 L78.30,36.31 L78.13,36.23 L77.96,36.15 L77.79,36.08 L77.61,36.00 L77.42,35.94 L77.23,35.87 L77.04,35.82 L76.85,35.76 L76.65,35.71 L76.45,35.66 L76.24,35.62 L76.03,35.58 L75.81,35.55 L75.60,35.52 L75.37,35.49 L75.15,35.47 L74.92,35.45 L74.68,35.43 L74.45,35.42 L74.20,35.42 L73.96,35.42 Z" fill="#7ec8ff" fill-opacity="0.8" fill-rule="evenodd" stroke="#141414" stroke-width="1.2"/><line x1="9.6" y1="9.6" x2="26.9" y2="9.6" stroke="#66d19e" stroke-width="1.1" stroke-opacity="0.85"/><line x1="26.9" y1="9.6" x2="44.1" y2="9.6" stroke="#66d19e" stroke-width="1.1" stroke-opacity="0.85"/><line x1="44.1" y1="9.6" x2="61.4" y2="9.6" stroke="#66d19e" stroke-width="1.1" stroke-opacity="0.85"/><line x1="61.4" y1="9.6" x2="78.7" y2="9.6" stroke="#66d19e" stroke-width="1.1" stroke-opacity="0.85"/><line x1="78.7" y1="9.6" x2="95.9" y2="10.0" stroke="#66d19e" stroke-width="1.1" stroke-opacity="0.85"/><line x1="95.9" y1="10.0" x2="112.0" y2="15.7" stroke="#66d19e" stroke-width="1.1" stroke-opacity="0.85"/><line x1="112.0" y1="15.7" x2="118.2" y2="31.3" stroke="#66d19e" stroke-width="1.1" stroke-opacity="0.85"/><line x1="118.2" y1="31.3" x2="118.3" y2="48.5" stroke="#66d19e" stroke-width="1.1" stroke-opacity="0.85"/><line x1="118.3" y1="48.5" x2="116.7" y2="65.6" stroke="#66d19e" stroke-width="1.1" stroke-opacity="0.85"/><line x1="116.7" y1="65.6" x2="103.8" y2="75.7" stroke="#66d19e" stroke-width="1.1" stroke-opacity="0.85"/><line x1="103.8" y1="75.7" x2="92.1" y2="85.6" stroke="#66d19e" stroke-width="1.1" stroke-opacity="0.85"/><line x1="92.1" y1="85.6" x2="102.4" y2="98.3" stroke="#66d19e" stroke-width="1.1" stroke-opacity="0.85"/><line x1="102.4" y1="98.3" x2="104.4" y2="115.3" stroke="#66d19e" stroke-width="1.1" stroke-opacity="0.85"/><line x1="104.4" y1="115.3" x2="100.9" y2="131.9" stroke="#66d19e" stroke-width="1.1" stroke-opacity="0.85"/><line x1="100.9" y1="131.9" x2="85.9" y2="139.5" stroke="#66d19e" stroke-width="1.1" stroke-opacity="0.85"/><line x1="85.9" y1="139.5" x2="68.7" y2="140.4" stroke="#66d19e" stroke-width="1.1" stroke-opacity="0.85"/><line x1="68.7" y1="140.4" x2="51.4" y2="140.4" stroke="#66d19e" stroke-width="1.1" stroke-opacity="0.85"/><line x1="51.4" y1="140.4" x2="34.2" y2="140.4" stroke="#66d19e" stroke-width="1.1" stroke-opacity="0.85"/><line x1="34.2" y1="140.4" x2="16.9" y2="140.4" stroke="#66d19e" stroke-width="1.1" stroke-opacity="0.85"/><line x1="16.9" y1="140.4" x2="9.6" y2="113.2" stroke="#66d19e" stroke-width="1.1" stroke-opacity="0.85"/><line x1="9.6" y1="113.2" x2="9.6" y2="95.9" stroke="#66d19e" stroke-width="1.1" stroke-opacity="0.85"/><line x1="9.6" y1="95.9" x2="9.6" y2="78.7" stroke="#66d19e" stroke-width="1.1" stroke-opacity="0.85"/><line x1="9.6" y1="78.7" x2="9.6" y2="61.4" stroke="#66d19e" stroke-width="1.1" stroke-opacity="0.85"/><line x1="9.6" y1="61.4" x2="9.6" y2="44.1" stroke="#66d19e" stroke-width="1.1" stroke-opacity="0.85"/><line x1="9.6" y1="44.1" x2="9.6" y2="26.9" stroke="#66d19e" stroke-width="1.1" stroke-opacity="0.85"/><line x1="9.6" y1="26.9" x2="46.9" y2="25.8" stroke="#66d19e" stroke-width="1.1" stroke-opacity="0.85"/><line x1="46.9" y1="25.8" x2="37.3" y2="37.7" stroke="#66d19e" stroke-width="1.1" stroke-opacity="0.85"/><line x1="37.3" y1="37.7" x2="37.3" y2="55.0" stroke="#66d19e" stroke-width="1.1" stroke-opacity="0.85"/><line x1="37.3" y1="55.0" x2="44.2" y2="69.2" stroke="#66d19e" stroke-width="1.1" stroke-opacity="0.85"/><line x1="44.2" y1="69.2" x2="61.5" y2="69.6" stroke="#66d19e" stroke-width="1.1" stroke-opacity="0.85"/><line x1="61.5" y1="69.6" x2="78.8" y2="69.1" stroke="#66d19e" stroke-width="1.1" stroke-opacity="0.85"/><line x1="78.8" y1="69.1" x2="90.7" y2="57.7" stroke="#66d19e" stroke-width="1.1" stroke-opacity="0.85"/><line x1="90.7" y1="57.7" x2="91.2" y2="40.4" stroke="#66d19e" stroke-width="1.1" stroke-opacity="0.85"/><line x1="91.2" y1="40.4" x2="81.4" y2="27.2" stroke="#66d19e" stroke-width="1.1" stroke-opacity="0.85"/><line x1="81.4" y1="27.2" x2="64.2" y2="25.8" stroke="#66d19e" stroke-width="1.1" stroke-opacity="0.85"/><line x1="64.2" y1="25.8" x2="46.9" y2="82.5" stroke="#66d19e" stroke-width="1.1" stroke-opacity="0.85"/><line x1="46.9" y1="82.5" x2="37.3" y2="93.7" stroke="#66d19e" stroke-width="1.1" stroke-opacity="0.85"/><line x1="37.3" y1="93.7" x2="37.3" y2="110.4" stroke="#66d19e" stroke-width="1.1" stroke-opacity="0.85"/><line x1="37.3" y1="110.4" x2="44.4" y2="123.8" stroke="#66d19e" stroke-width="1.1" stroke-opacity="0.85"/><line x1="44.4" y1="123.8" x2="61.1" y2="124.2" stroke="#66d19e" stroke-width="1.1" stroke-opacity="0.85"/><line x1="61.1" y1="124.2" x2="76.7" y2="119.8" stroke="#66d19e" stroke-width="1.1" stroke-opacity="0.85"/><line x1="76.7" y1="119.8" x2="82.1" y2="104.6" stroke="#66d19e" stroke-width="1.1" stroke-opacity="0.85"/><line x1="82.1" y1="104.6" x2="78.4" y2="88.7" stroke="#66d19e" stroke-width="1.1" stroke-opacity="0.85"/><line x1="78.4" y1="88.7" x2="63.6" y2="82.5" stroke="#66d19e" stroke-width="1.1" stroke-opacity="0.85"/><circle cx="9.60" cy="9.60" r="6.15" fill="#ffd24d" fill-opacity="0.9"/><circle cx="26.86" cy="9.60" r="6.15" fill="#ffd24d" fill-opacity="0.9"/><circle cx="44.13" cy="9.60" r="6.15" fill="#ffd24d" fill-opacity="0.9"/><circle cx="61.39" cy="9.60" r="6.15" fill="#ffd24d" fill-opacity="0.9"/><circle cx="78.65" cy="9.60" r="6.15" fill="#ffd24d" fill-opacity="0.9"/><circle cx="95.90" cy="10.03" r="6.15" fill="#ffd24d" fill-opacity="0.9"/><circle cx="111.96" cy="15.69" r="6.15" fill="#ffd24d" fill-opacity="0.9"/><circle cx="118.23" cy="31.27" r="6.15" fill="#ffd24d" fill-opacity="0.9"/><circle cx="118.32" cy="48.53" r="6.15" fill="#ffd24d" fill-opacity="0.9"/><circle cx="116.67" cy="65.63" r="6.15" fill="#ffd24d" fill-opacity="0.9"/><circle cx="103.85" cy="75.66" r="6.15" fill="#ffd24d" fill-opacity="0.9"/><circle cx="92.07" cy="85.60" r="6.15" fill="#ffd24d" fill-opacity="0.9"/><circle cx="102.38" cy="98.32" r="6.15" fill="#ffd24d" fill-opacity="0.9"/><circle cx="104.36" cy="115.28" r="6.15" fill="#ffd24d" fill-opacity="0.9"/><circle cx="100.93" cy="131.91" r="6.15" fill="#ffd24d" fill-opacity="0.9"/><circle cx="85.92" cy="139.50" r="6.15" fill="#ffd24d" fill-opacity="0.9"/><circle cx="68.70" cy="140.40" r="6.15" fill="#ffd24d" fill-opacity="0.9"/><circle cx="51.44" cy="140.40" r="6.15" fill="#ffd24d" fill-opacity="0.9"/><circle cx="34.17" cy="140.40" r="6.15" fill="#ffd24d" fill-opacity="0.9"/><circle cx="16.91" cy="140.40" r="6.15" fill="#ffd24d" fill-opacity="0.9"/><circle cx="9.60" cy="113.18" r="6.15" fill="#ffd24d" fill-opacity="0.9"/><circle cx="9.60" cy="95.92" r="6.15" fill="#ffd24d" fill-opacity="0.9"/><circle cx="9.60" cy="78.65" r="6.15" fill="#ffd24d" fill-opacity="0.9"/><circle cx="9.60" cy="61.39" r="6.15" fill="#ffd24d" fill-opacity="0.9"/><circle cx="9.60" cy="44.13" r="6.15" fill="#ffd24d" fill-opacity="0.9"/><circle cx="9.60" cy="26.86" r="6.15" fill="#ffd24d" fill-opacity="0.9"/><circle cx="46.88" cy="25.82" r="6.15" fill="#ffd24d" fill-opacity="0.9"/><circle cx="37.27" cy="37.68" r="6.15" fill="#ffd24d" fill-opacity="0.9"/><circle cx="37.27" cy="55.02" r="6.15" fill="#ffd24d" fill-opacity="0.9"/><circle cx="44.20" cy="69.21" r="6.15" fill="#ffd24d" fill-opacity="0.9"/><circle cx="61.50" cy="69.60" r="6.15" fill="#ffd24d" fill-opacity="0.9"/><circle cx="78.80" cy="69.07" r="6.15" fill="#ffd24d" fill-opacity="0.9"/><circle cx="90.72" cy="57.69" r="6.15" fill="#ffd24d" fill-opacity="0.9"/><circle cx="91.25" cy="40.43" r="6.15" fill="#ffd24d" fill-opacity="0.9"/><circle cx="81.38" cy="27.18" r="6.15" fill="#ffd24d" fill-opacity="0.9"/><circle cx="64.21" cy="25.82" r="6.15" fill="#ffd24d" fill-opacity="0.9"/><circle cx="46.88" cy="82.48" r="6.15" fill="#ffd24d" fill-opacity="0.9"/><circle cx="37.27" cy="93.72" r="6.15" fill="#ffd24d" fill-opacity="0.9"/><circle cx="37.27" cy="110.44" r="6.15" fill="#ffd24d" fill-opacity="0.9"/><circle cx="44.40" cy="123.85" r="6.15" fill="#ffd24d" fill-opacity="0.9"/><circle cx="61.09" cy="124.18" r="6.15" fill="#ffd24d" fill-opacity="0.9"/><circle cx="76.74" cy="119.84" r="6.15" fill="#ffd24d" fill-opacity="0.9"/><circle cx="82.10" cy="104.59" r="6.15" fill="#ffd24d" fill-opacity="0.9"/><circle cx="78.44" cy="88.66" r="6.15" fill="#ffd24d" fill-opacity="0.9"/><circle cx="63.59" cy="82.48" r="6.15" fill="#ffd24d" fill-opacity="0.9"/><circle cx="9.60" cy="9.60" r="8.65" fill="none" stroke="#66d19e" stroke-width="1.6"/></g><text x="19.6" y="-5.6" fill="#66d19e" font-size="11" font-family="system-ui">DATA IN</text></svg>