<svg viewBox="-37.0 -224.5 748.8 261.5" xmlns="http://www.w3.org/2000/svg"><g transform="scale(1,-1)"><path d="M-12.00,-12.00 L686.75,-12.00 L686.75,199.50 L-12.00,199.50 Z" fill="#1d1d25" stroke="#3a3a46" stroke-width="1"/><polyline points="127.78,33.71 123.92,32.62 120.07,31.52 116.21,30.42 112.35,29.33 108.49,28.23 104.60,27.29 100.63,26.71 96.67,26.15 92.68,25.77 88.71,25.37 84.70,25.17 80.72,24.88 76.71,24.88 72.70,24.88 68.72,25.29 64.74,25.65 60.77,26.09 56.78,26.50 52.81,27.03 48.86,27.69 45.02,28.85 41.40,30.55 38.44,33.23 35.79,36.24 34.17,39.88 32.93,43.69 31.93,47.58 31.01,51.48 30.27,55.42 29.64,59.38 29.14,63.35 28.75,67.33 28.62,71.34 28.21,75.32 28.21,79.33 28.21,83.34 28.21,87.35 28.21,91.36 28.21,95.37 28.21,99.38 28.21,103.39 28.21,107.40 28.21,111.42 28.57,115.40 28.63,119.40 29.07,123.38 29.56,127.35 30.16,131.31 30.88,135.26 31.85,139.15 32.80,143.05 34.02,146.87 35.47,150.58 38.06,153.64 41.04,156.30 44.65,158.02 48.50,159.13 52.42,159.93 56.38,160.58 60.34,161.09 64.33,161.52 68.31,161.89 72.31,162.11 76.29,162.38 80.30,162.38 84.28,161.98 88.28,161.77 92.26,161.38 96.24,160.93 100.20,160.39 104.13,159.64 108.01,158.64 111.90,157.64 115.78,156.64 119.67,155.64 123.55,154.64 127.43,153.63" fill="none" stroke="#141414" stroke-width="22.0" stroke-linecap="round" stroke-linejoin="round"/><polyline points="127.78,33.71 123.92,32.62 120.07,31.52 116.21,30.42 112.35,29.33 108.49,28.23 104.60,27.29 100.63,26.71 96.67,26.15 92.68,25.77 88.71,25.37 84.70,25.17 80.72,24.88 76.71,24.88 72.70,24.88 68.72,25.29 64.74,25.65 60.77,26.09 56.78,26.50 52.81,27.03 48.86,27.69 45.02,28.85 41.40,30.55 38.44,33.23 35.79,36.24 34.17,39.88 32.93,43.69 31.93,47.58 31.01,51.48 30.27,55.42 29.64,59.38 29.14,63.35 28.75,67.33 28.62,71.34 28.21,75.32 28.21,79.33 28.21,83.34 28.21,87.35 28.21,91.36 28.21,95.37 28.21,99.38 28.21,103.39 28.21,107.40 28.21,111.42 28.57,115.40 28.63,119.40 29.07,123.38 29.56,127.35 30.16,131.31 30.88,135.26 31.85,139.15 32.80,143.05 34.02,146.87 35.47,150.58 38.06,153.64 41.04,156.30 44.65,158.02 48.50,159.13 52.42,159.93 56.38,160.58 60.34,161.09 64.33,161.52 68.31,161.89 72.31,162.11 76.29,162.38 80.30,162.38 84.28,161.98 88.28,161.77 92.26,161.38 96.24,160.93 100.20,160.39 104.13,159.64 108.01,158.64 111.90,157.64 115.78,156.64 119.67,155.64 123.55,154.64 127.43,153.63" fill="none" stroke="#7ec8ff" opacity="0.85" stroke-width="18.0" stroke-linecap="round" stroke-linejoin="round"/><polyline points="117.55,28.83 118.83,32.63 120.11,36.44 121.37,40.25 122.50,44.10 123.53,47.98 124.44,51.89 125.15,55.84 125.71,59.80 126.14,63.78 126.54,67.77 126.82,71.76 126.96,75.76 126.96,79.78 126.96,83.79 126.96,87.80 126.96,91.82 126.96,95.83 126.96,99.85 126.96,103.86 126.96,107.87 126.96,111.89 126.75,115.88 126.54,119.88 126.12,123.87 125.67,127.84 125.07,131.81 124.37,135.76 123.43,139.66 122.38,143.53 121.25,147.38 119.99,151.19 118.71,154.99 117.42,158.80" fill="none" stroke="#141414" stroke-width="22.0" stroke-linecap="round" stroke-linejoin="round"/><polyline points="117.55,28.83 118.83,32.63 120.11,36.44 121.37,40.25 122.50,44.10 123.53,47.98 124.44,51.89 125.15,55.84 125.71,59.80 126.14,63.78 126.54,67.77 126.82,71.76 126.96,75.76 126.96,79.78 126.96,83.79 126.96,87.80 126.96,91.82 126.96,95.83 126.96,99.85 126.96,103.86 126.96,107.87 126.96,111.89 126.75,115.88 126.54,119.88 126.12,123.87 125.67,127.84 125.07,131.81 124.37,135.76 123.43,139.66 122.38,143.53 121.25,147.38 119.99,151.19 118.71,154.99 117.42,158.80" fill="none" stroke="#7ec8ff" opacity="0.85" stroke-width="18.0" stroke-linecap="round" stroke-linejoin="round"/><polyline points="215.21,31.32 215.21,35.33 215.21,39.35 215.21,43.37 215.21,47.38 215.21,51.40 215.21,55.42 215.21,59.43 215.21,63.45 215.21,67.47 215.21,71.49 215.21,75.50 215.21,79.52 215.21,83.54 215.21,87.55 215.21,91.57 215.21,95.59 215.21,99.60 215.21,103.62 215.21,107.64 215.21,111.65 215.21,115.67 215.21,119.69 215.21,123.71 215.21,127.72 215.21,131.74 215.21,135.76 215.21,139.77 215.21,143.79 215.21,147.81 215.52,151.80 216.73,155.62 218.76,159.06 222.37,160.29 226.38,160.29 230.40,160.29 234.42,160.29 238.44,160.29 242.45,160.29 246.47,160.29 250.49,160.29 254.50,160.29 258.52,160.29 262.51,160.00 266.52,159.88 270.51,159.46 274.50,159.18 278.49,158.75 282.46,158.21 286.42,157.53 290.28,156.44 293.78,154.55 296.49,151.58 298.60,148.19 299.79,144.36 300.84,140.48 301.70,136.56 302.41,132.61 303.02,128.65 303.52,124.67 303.93,120.68 303.90,116.67 303.48,112.68 302.97,108.71 302.28,104.76 301.56,100.81 300.65,96.90 299.67,93.00 298.43,89.18 296.46,85.69 293.72,82.77 290.37,80.59 286.57,79.33 282.60,78.73 278.62,78.19 274.63,77.79 270.64,77.38 266.65,77.03 262.64,76.96 258.63,76.85 254.64,76.54 250.62,76.54 246.60,76.54 242.58,76.54 238.57,76.54 234.55,76.54 230.53,76.54 226.52,76.54 222.50,76.54 218.48,76.54 214.47,76.54" fill="none" stroke="#141414" stroke-width="22.0" stroke-linecap="round" stroke-linejoin="round"/><polyline points="215.21,31.32 215.21,35.33 215.21,39.35 215.21,43.37 215.21,47.38 215.21,51.40 215.21,55.42 215.21,59.43 215.21,63.45 215.21,67.47 215.21,71.49 215.21,75.50 215.21,79.52 215.21,83.54 215.21,87.55 215.21,91.57 215.21,95.59 215.21,99.60 215.21,103.62 215.21,107.64 215.21,111.65 215.21,115.67 215.21,119.69 215.21,123.71 215.21,127.72 215.21,131.74 215.21,135.76 215.21,139.77 215.21,143.79 215.21,147.81 215.52,151.80 216.73,155.62 218.76,159.06 222.37,160.29 226.38,160.29 230.40,160.29 234.42,160.29 238.44,160.29 242.45,160.29 246.47,160.29 250.49,160.29 254.50,160.29 258.52,160.29 262.51,160.00 266.52,159.88 270.51,159.46 274.50,159.18 278.49,158.75 282.46,158.21 286.42,157.53 290.28,156.44 293.78,154.55 296.49,151.58 298.60,148.19 299.79,144.36 300.84,140.48 301.70,136.56 302.41,132.61 303.02,128.65 303.52,124.67 303.93,120.68 303.90,116.67 303.48,112.68 302.97,108.71 302.28,104.76 301.56,100.81 300.65,96.90 299.67,93.00 298.43,89.18 296.46,85.69 293.72,82.77 290.37,80.59 286.57,79.33 282.60,78.73 278.62,78.19 274.63,77.79 270.64,77.38 266.65,77.03 262.64,76.96 258.63,76.85 254.64,76.54 250.62,76.54 246.60,76.54 242.58,76.54 238.57,76.54 234.55,76.54 230.53,76.54 226.52,76.54 222.50,76.54 218.48,76.54 214.47,76.54" fill="none" stroke="#7ec8ff" opacity="0.85" stroke-width="18.0" stroke-linecap="round" stroke-linejoin="round"/><polyline points="465.71,27.38 461.69,27.38 457.67,27.38 453.65,27.38 449.64,27.38 445.62,27.38 441.60,27.38 437.58,27.38 433.57,27.38 429.55,27.38 425.53,27.38 421.51,27.38 417.49,27.38 413.48,27.38 409.46,27.38 405.44,27.38 401.42,27.38 397.41,27.38 393.39,27.38 389.72,28.32 387.25,31.47 385.90,35.23 385.31,39.20 385.29,43.22 385.29,47.23 385.29,51.25 385.29,55.27 385.29,59.29 385.29,63.31 385.29,67.32 385.29,71.34 385.29,75.36 385.29,79.38 385.29,83.39 385.29,87.41 385.29,91.43 385.29,95.45 385.29,99.47 385.29,103.48 385.29,107.50 385.29,111.52 385.29,115.54 385.29,119.55 385.29,123.57 385.29,127.59 385.29,131.61 385.29,135.63 385.29,139.64 385.29,143.66 385.30,147.68 385.77,151.66 386.82,155.53 388.86,158.96 392.58,159.88 396.60,159.88 400.62,159.88 404.63,159.88 408.65,159.88 412.67,159.88 416.69,159.88 420.70,159.88 424.72,159.88 428.74,159.88 432.76,159.88 436.78,159.88 440.79,159.88 444.81,159.88 448.83,159.88 452.85,159.88 456.86,159.88 460.86,160.10 464.88,160.15" fill="none" stroke="#141414" stroke-width="22.0" stroke-linecap="round" stroke-linejoin="round"/><polyline points="465.71,27.38 461.69,27.38 457.67,27.38 453.65,27.38 449.64,27.38 445.62,27.38 441.60,27.38 437.58,27.38 433.57,27.38 429.55,27.38 425.53,27.38 421.51,27.38 417.49,27.38 413.48,27.38 409.46,27.38 405.44,27.38 401.42,27.38 397.41,27.38 393.39,27.38 389.72,28.32 387.25,31.47 385.90,35.23 385.31,39.20 385.29,43.22 385.29,47.23 385.29,51.25 385.29,55.27 385.29,59.29 385.29,63.31 385.29,67.32 385.29,71.34 385.29,75.36 385.29,79.38 385.29,83.39 385.29,87.41 385.29,91.43 385.29,95.45 385.29,99.47 385.29,103.48 385.29,107.50 385.29,111.52 385.29,115.54 385.29,119.55 385.29,123.57 385.29,127.59 385.29,131.61 385.29,135.63 385.29,139.64 385.29,143.66 385.30,147.68 385.77,151.66 386.82,155.53 388.86,158.96 392.58,159.88 396.60,159.88 400.62,159.88 404.63,159.88 408.65,159.88 412.67,159.88 416.69,159.88 420.70,159.88 424.72,159.88 428.74,159.88 432.76,159.88 436.78,159.88 440.79,159.88 444.81,159.88 448.83,159.88 452.85,159.88 456.86,159.88 460.86,160.10 464.88,160.15" fill="none" stroke="#7ec8ff" opacity="0.85" stroke-width="18.0" stroke-linecap="round" stroke-linejoin="round"/><polyline points="447.79,94.88 443.68,94.88 439.57,94.88 435.46,94.88 431.35,94.88 427.24,94.88 423.12,94.88 419.01,94.88 414.90,94.88 410.79,94.88 406.68,94.88 402.57,94.88 398.46,94.88 394.35,94.88 390.24,94.88 386.12,94.88" fill="none" stroke="#141414" stroke-width="22.0" stroke-linecap="round" stroke-linejoin="round"/><polyline points="447.79,94.88 443.68,94.88 439.57,94.88 435.46,94.88 431.35,94.88 427.24,94.88 423.12,94.88 419.01,94.88 414.90,94.88 410.79,94.88 406.68,94.88 402.57,94.88 398.46,94.88 394.35,94.88 390.24,94.88 386.12,94.88" fill="none" stroke="#7ec8ff" opacity="0.85" stroke-width="18.0" stroke-linecap="round" stroke-linejoin="round"/><polyline points="647.12,152.79 647.04,148.73 647.12,144.65 647.12,140.56 647.12,136.47 647.12,132.38 647.12,128.29 647.12,124.20 647.12,120.11 647.12,116.03 647.12,111.94 647.12,107.85 647.12,103.76 647.12,99.67 647.09,95.58 644.93,92.27 642.04,89.37 639.15,86.48 636.26,83.59 633.37,80.70" fill="none" stroke="#141414" stroke-width="22.0" stroke-linecap="round" stroke-linejoin="round"/><polyline points="647.12,152.79 647.04,148.73 647.12,144.65 647.12,140.56 647.12,136.47 647.12,132.38 647.12,128.29 647.12,124.20 647.12,120.11 647.12,116.03 647.12,111.94 647.12,107.85 647.12,103.76 647.12,99.67 647.09,95.58 644.93,92.27 642.04,89.37 639.15,86.48 636.26,83.59 633.37,80.70" fill="none" stroke="#7ec8ff" opacity="0.85" stroke-width="18.0" stroke-linecap="round" stroke-linejoin="round"/><polyline points="646.85,34.04 646.91,38.06 647.12,42.07 647.12,46.10 647.12,50.12 647.12,54.15 647.12,58.17 647.12,62.19 647.12,66.22 647.08,70.24 646.13,74.14 644.99,78.00 643.87,81.86 642.79,85.73 641.07,89.23 637.37,90.75 633.61,92.19 629.84,93.58 626.08,95.01 622.31,96.43 618.55,97.87 614.78,99.27 611.01,100.66 607.26,102.13 603.49,103.52 600.13,105.64 597.50,108.68 594.83,111.70 591.33,113.59 587.55,114.96 583.76,116.31 579.99,117.70 576.21,119.07 572.43,120.45 568.65,121.84 564.87,123.20 561.08,124.56 557.30,125.93 553.69,127.62 552.20,131.30 551.02,135.15 549.85,139.00 548.63,142.83 547.49,146.69 546.36,150.55 545.46,154.46" fill="none" stroke="#141414" stroke-width="22.0" stroke-linecap="round" stroke-linejoin="round"/><polyline points="646.85,34.04 646.91,38.06 647.12,42.07 647.12,46.10 647.12,50.12 647.12,54.15 647.12,58.17 647.12,62.19 647.12,66.22 647.08,70.24 646.13,74.14 644.99,78.00 643.87,81.86 642.79,85.73 641.07,89.23 637.37,90.75 633.61,92.19 629.84,93.58 626.08,95.01 622.31,96.43 618.55,97.87 614.78,99.27 611.01,100.66 607.26,102.13 603.49,103.52 600.13,105.64 597.50,108.68 594.83,111.70 591.33,113.59 587.55,114.96 583.76,116.31 579.99,117.70 576.21,119.07 572.43,120.45 568.65,121.84 564.87,123.20 561.08,124.56 557.30,125.93 553.69,127.62 552.20,131.30 551.02,135.15 549.85,139.00 548.63,142.83 547.49,146.69 546.36,150.55 545.46,154.46" fill="none" stroke="#7ec8ff" opacity="0.85" stroke-width="18.0" stroke-linecap="round" stroke-linejoin="round"/><polyline points="561.15,135.15 558.36,132.36 555.57,129.57 552.78,126.78 549.99,123.99 548.79,120.40 548.79,116.46 548.79,112.51 548.79,108.57 548.79,104.63 548.79,100.68 548.79,96.74 548.79,92.79 548.79,88.85 548.79,84.90 548.79,80.96 548.79,77.01 548.79,73.07 548.79,69.13 548.79,65.18 548.79,61.24 548.79,57.29 548.79,53.35 548.79,49.40 548.79,45.46 548.79,41.51 548.79,37.57 548.79,33.62" fill="none" stroke="#141414" stroke-width="22.0" stroke-linecap="round" stroke-linejoin="round"/><polyline points="561.15,135.15 558.36,132.36 555.57,129.57 552.78,126.78 549.99,123.99 548.79,120.40 548.79,116.46 548.79,112.51 548.79,108.57 548.79,104.63 548.79,100.68 548.79,96.74 548.79,92.79 548.79,88.85 548.79,84.90 548.79,80.96 548.79,77.01 548.79,73.07 548.79,69.13 548.79,65.18 548.79,61.24 548.79,57.29 548.79,53.35 548.79,49.40 548.79,45.46 548.79,41.51 548.79,37.57 548.79,33.62" fill="none" stroke="#7ec8ff" opacity="0.85" stroke-width="18.0" stroke-linecap="round" stroke-linejoin="round"/><path d="M163.06,-12.00 L163.06,199.50 L337.94,199.50 L337.94,-12.00 Z" fill="none" stroke="#ff5470" stroke-width="0.8" stroke-dasharray="4 3"/><path d="M512.94,199.50 L512.94,-12.00 L338.06,-12.00 L338.06,199.50 Z" fill="none" stroke="#ff5470" stroke-width="0.8" stroke-dasharray="4 3"/><path d="M686.75,199.50 L686.75,-12.00 L513.06,-12.00 L513.06,199.50 Z" fill="none" stroke="#ff5470" stroke-width="0.8" stroke-dasharray="4 3"/><line x1="127.8" y1="33.7" x2="111.4" y2="29.1" stroke="#66d19e" stroke-width="1.1" stroke-opacity="0.85"/><line x1="111.4" y1="29.1" x2="94.7" y2="26.0" stroke="#66d19e" stroke-width="1.1" stroke-opacity="0.85"/><line x1="94.7" y1="26.0" x2="77.7" y2="24.9" stroke="#66d19e" stroke-width="1.1" stroke-opacity="0.85"/><line x1="77.7" y1="24.9" x2="60.8" y2="26.1" stroke="#66d19e" stroke-width="1.1" stroke-opacity="0.85"/><line x1="60.8" y1="26.1" x2="44.0" y2="29.3" stroke="#66d19e" stroke-width="1.1" stroke-opacity="0.85"/><line x1="44.0" y1="29.3" x2="33.3" y2="42.5" stroke="#66d19e" stroke-width="1.1" stroke-opacity="0.85"/><line x1="33.3" y1="42.5" x2="29.7" y2="59.1" stroke="#66d19e" stroke-width="1.1" stroke-opacity="0.85"/><line x1="29.7" y1="59.1" x2="28.2" y2="76.1" stroke="#66d19e" stroke-width="1.1" stroke-opacity="0.85"/><line x1="28.2" y1="76.1" x2="28.2" y2="93.1" stroke="#66d19e" stroke-width="1.1" stroke-opacity="0.85"/><line x1="28.2" y1="93.1" x2="28.2" y2="110.2" stroke="#66d19e" stroke-width="1.1" stroke-opacity="0.85"/><line x1="28.2" y1="110.2" x2="29.6" y2="127.3" stroke="#66d19e" stroke-width="1.1" stroke-opacity="0.85"/><line x1="29.6" y1="127.3" x2="33.1" y2="144.0" stroke="#66d19e" stroke-width="1.1" stroke-opacity="0.85"/><line x1="33.1" y1="144.0" x2="43.5" y2="157.5" stroke="#66d19e" stroke-width="1.1" stroke-opacity="0.85"/><line x1="43.5" y1="157.5" x2="60.3" y2="161.1" stroke="#66d19e" stroke-width="1.1" stroke-opacity="0.85"/><line x1="60.3" y1="161.1" x2="77.3" y2="162.4" stroke="#66d19e" stroke-width="1.1" stroke-opacity="0.85"/><line x1="77.3" y1="162.4" x2="94.2" y2="161.2" stroke="#66d19e" stroke-width="1.1" stroke-opacity="0.85"/><line x1="94.2" y1="161.2" x2="110.9" y2="157.9" stroke="#66d19e" stroke-width="1.1" stroke-opacity="0.85"/><line x1="110.9" y1="157.9" x2="127.4" y2="153.6" stroke="#66d19e" stroke-width="1.1" stroke-opacity="0.85"/><line x1="127.4" y1="153.6" x2="125.8" y2="60.8" stroke="#66d19e" stroke-width="1.1" stroke-opacity="0.85"/><line x1="125.8" y1="60.8" x2="127.0" y2="77.3" stroke="#66d19e" stroke-width="1.1" stroke-opacity="0.85"/><line x1="127.0" y1="77.3" x2="127.0" y2="93.8" stroke="#66d19e" stroke-width="1.1" stroke-opacity="0.85"/><line x1="127.0" y1="93.8" x2="127.0" y2="110.4" stroke="#66d19e" stroke-width="1.1" stroke-opacity="0.85"/><line x1="127.0" y1="110.4" x2="125.8" y2="126.8" stroke="#66d19e" stroke-width="1.1" stroke-opacity="0.85"/><line x1="125.8" y1="126.8" x2="215.2" y2="31.3" stroke="#ff9d5c" stroke-dasharray="5 4" stroke-width="1.6"/><line x1="215.2" y1="31.3" x2="215.2" y2="48.1" stroke="#66d19e" stroke-width="1.1" stroke-opacity="0.85"/><line x1="215.2" y1="48.1" x2="215.2" y2="65.0" stroke="#66d19e" stroke-width="1.1" stroke-opacity="0.85"/><line x1="215.2" y1="65.0" x2="215.2" y2="81.8" stroke="#66d19e" stroke-width="1.1" stroke-opacity="0.85"/><line x1="215.2" y1="81.8" x2="215.2" y2="98.6" stroke="#66d19e" stroke-width="1.1" stroke-opacity="0.85"/><line x1="215.2" y1="98.6" x2="215.2" y2="115.4" stroke="#66d19e" stroke-width="1.1" stroke-opacity="0.85"/><line x1="215.2" y1="115.4" x2="215.2" y2="132.5" stroke="#66d19e" stroke-width="1.1" stroke-opacity="0.85"/><line x1="215.2" y1="132.5" x2="215.3" y2="149.6" stroke="#66d19e" stroke-width="1.1" stroke-opacity="0.85"/><line x1="215.3" y1="149.6" x2="228.4" y2="160.3" stroke="#66d19e" stroke-width="1.1" stroke-opacity="0.85"/><line x1="228.4" y1="160.3" x2="245.2" y2="160.3" stroke="#66d19e" stroke-width="1.1" stroke-opacity="0.85"/><line x1="245.2" y1="160.3" x2="262.3" y2="160.0" stroke="#66d19e" stroke-width="1.1" stroke-opacity="0.85"/><line x1="262.3" y1="160.0" x2="279.2" y2="158.6" stroke="#66d19e" stroke-width="1.1" stroke-opacity="0.85"/><line x1="279.2" y1="158.6" x2="295.1" y2="153.1" stroke="#66d19e" stroke-width="1.1" stroke-opacity="0.85"/><line x1="295.1" y1="153.1" x2="301.5" y2="137.3" stroke="#66d19e" stroke-width="1.1" stroke-opacity="0.85"/><line x1="301.5" y1="137.3" x2="303.9" y2="120.4" stroke="#66d19e" stroke-width="1.1" stroke-opacity="0.85"/><line x1="303.9" y1="120.4" x2="302.1" y2="103.5" stroke="#66d19e" stroke-width="1.1" stroke-opacity="0.85"/><line x1="302.1" y1="103.5" x2="297.3" y2="87.2" stroke="#66d19e" stroke-width="1.1" stroke-opacity="0.85"/><line x1="297.3" y1="87.2" x2="282.6" y2="78.7" stroke="#66d19e" stroke-width="1.1" stroke-opacity="0.85"/><line x1="282.6" y1="78.7" x2="265.6" y2="77.0" stroke="#66d19e" stroke-width="1.1" stroke-opacity="0.85"/><line x1="265.6" y1="77.0" x2="248.6" y2="76.5" stroke="#66d19e" stroke-width="1.1" stroke-opacity="0.85"/><line x1="248.6" y1="76.5" x2="231.8" y2="76.5" stroke="#66d19e" stroke-width="1.1" stroke-opacity="0.85"/><line x1="231.8" y1="76.5" x2="465.7" y2="27.4" stroke="#ff9d5c" stroke-dasharray="5 4" stroke-width="1.6"/><line x1="465.7" y1="27.4" x2="449.4" y2="27.4" stroke="#66d19e" stroke-width="1.1" stroke-opacity="0.85"/><line x1="449.4" y1="27.4" x2="433.1" y2="27.4" stroke="#66d19e" stroke-width="1.1" stroke-opacity="0.85"/><line x1="433.1" y1="27.4" x2="416.7" y2="27.4" stroke="#66d19e" stroke-width="1.1" stroke-opacity="0.85"/><line x1="416.7" y1="27.4" x2="400.4" y2="27.4" stroke="#66d19e" stroke-width="1.1" stroke-opacity="0.85"/><line x1="400.4" y1="27.4" x2="385.9" y2="35.2" stroke="#66d19e" stroke-width="1.1" stroke-opacity="0.85"/><line x1="385.9" y1="35.2" x2="385.3" y2="51.8" stroke="#66d19e" stroke-width="1.1" stroke-opacity="0.85"/><line x1="385.3" y1="51.8" x2="385.3" y2="68.1" stroke="#66d19e" stroke-width="1.1" stroke-opacity="0.85"/><line x1="385.3" y1="68.1" x2="385.3" y2="84.4" stroke="#66d19e" stroke-width="1.1" stroke-opacity="0.85"/><line x1="385.3" y1="84.4" x2="385.3" y2="100.7" stroke="#66d19e" stroke-width="1.1" stroke-opacity="0.85"/><line x1="385.3" y1="100.7" x2="385.3" y2="117.0" stroke="#66d19e" stroke-width="1.1" stroke-opacity="0.85"/><line x1="385.3" y1="117.0" x2="385.3" y2="133.4" stroke="#66d19e" stroke-width="1.1" stroke-opacity="0.85"/><line x1="385.3" y1="133.4" x2="385.6" y2="149.9" stroke="#66d19e" stroke-width="1.1" stroke-opacity="0.85"/><line x1="385.6" y1="149.9" x2="398.6" y2="159.9" stroke="#66d19e" stroke-width="1.1" stroke-opacity="0.85"/><line x1="398.6" y1="159.9" x2="414.9" y2="159.9" stroke="#66d19e" stroke-width="1.1" stroke-opacity="0.85"/><line x1="414.9" y1="159.9" x2="431.2" y2="159.9" stroke="#66d19e" stroke-width="1.1" stroke-opacity="0.85"/><line x1="431.2" y1="159.9" x2="447.6" y2="159.9" stroke="#66d19e" stroke-width="1.1" stroke-opacity="0.85"/><line x1="447.6" y1="159.9" x2="464.9" y2="160.2" stroke="#66d19e" stroke-width="1.1" stroke-opacity="0.85"/><line x1="464.9" y1="160.2" x2="447.8" y2="94.9" stroke="#66d19e" stroke-width="1.1" stroke-opacity="0.85"/><line x1="447.8" y1="94.9" x2="432.4" y2="94.9" stroke="#66d19e" stroke-width="1.1" stroke-opacity="0.85"/><line x1="432.4" y1="94.9" x2="417.0" y2="94.9" stroke="#66d19e" stroke-width="1.1" stroke-opacity="0.85"/><line x1="417.0" y1="94.9" x2="401.5" y2="94.9" stroke="#66d19e" stroke-width="1.1" stroke-opacity="0.85"/><line x1="401.5" y1="94.9" x2="647.1" y2="152.8" stroke="#ff9d5c" stroke-dasharray="5 4" stroke-width="1.6"/><line x1="647.1" y1="152.8" x2="647.1" y2="137.2" stroke="#66d19e" stroke-width="1.1" stroke-opacity="0.85"/><line x1="647.1" y1="137.2" x2="647.1" y2="121.9" stroke="#66d19e" stroke-width="1.1" stroke-opacity="0.85"/><line x1="647.1" y1="121.9" x2="647.1" y2="106.6" stroke="#66d19e" stroke-width="1.1" stroke-opacity="0.85"/><line x1="647.1" y1="106.6" x2="644.2" y2="91.5" stroke="#66d19e" stroke-width="1.1" stroke-opacity="0.85"/><line x1="644.2" y1="91.5" x2="633.4" y2="80.7" stroke="#66d19e" stroke-width="1.1" stroke-opacity="0.85"/><line x1="633.4" y1="80.7" x2="646.9" y2="34.0" stroke="#66d19e" stroke-width="1.1" stroke-opacity="0.85"/><line x1="646.9" y1="34.0" x2="647.1" y2="50.1" stroke="#66d19e" stroke-width="1.1" stroke-opacity="0.85"/><line x1="647.1" y1="50.1" x2="647.1" y2="66.2" stroke="#66d19e" stroke-width="1.1" stroke-opacity="0.85"/><line x1="647.1" y1="66.2" x2="616.7" y2="98.6" stroke="#66d19e" stroke-width="1.1" stroke-opacity="0.85"/><line x1="616.7" y1="98.6" x2="601.7" y2="104.7" stroke="#66d19e" stroke-width="1.1" stroke-opacity="0.85"/><line x1="601.7" y1="104.7" x2="589.0" y2="114.4" stroke="#66d19e" stroke-width="1.1" stroke-opacity="0.85"/><line x1="589.0" y1="114.4" x2="573.8" y2="119.9" stroke="#66d19e" stroke-width="1.1" stroke-opacity="0.85"/><line x1="573.8" y1="119.9" x2="558.7" y2="125.4" stroke="#66d19e" stroke-width="1.1" stroke-opacity="0.85"/><line x1="558.7" y1="125.4" x2="549.9" y2="139.0" stroke="#66d19e" stroke-width="1.1" stroke-opacity="0.85"/><line x1="549.9" y1="139.0" x2="545.5" y2="154.5" stroke="#66d19e" stroke-width="1.1" stroke-opacity="0.85"/><line x1="545.5" y1="154.5" x2="548.8" y2="104.1" stroke="#66d19e" stroke-width="1.1" stroke-opacity="0.85"/><line x1="548.8" y1="104.1" x2="548.8" y2="86.5" stroke="#66d19e" stroke-width="1.1" stroke-opacity="0.85"/><line x1="548.8" y1="86.5" x2="548.8" y2="68.9" stroke="#66d19e" stroke-width="1.1" stroke-opacity="0.85"/><line x1="548.8" y1="68.9" x2="548.8" y2="51.2" stroke="#66d19e" stroke-width="1.1" stroke-opacity="0.85"/><line x1="548.8" y1="51.2" x2="548.8" y2="33.6" stroke="#66d19e" stroke-width="1.1" stroke-opacity="0.85"/><circle cx="127.78" cy="33.71" r="6.15" fill="#ffd24d" fill-opacity="0.9"/><circle cx="111.39" cy="29.05" r="6.15" fill="#ffd24d" fill-opacity="0.9"/><circle cx="94.68" cy="25.96" r="6.15" fill="#ffd24d" fill-opacity="0.9"/><circle cx="77.71" cy="24.88" r="6.15" fill="#ffd24d" fill-opacity="0.9"/><circle cx="60.77" cy="26.09" r="6.15" fill="#ffd24d" fill-opacity="0.9"/><circle cx="44.05" cy="29.30" r="6.15" fill="#ffd24d" fill-opacity="0.9"/><circle cx="33.32" cy="42.50" r="6.15" fill="#ffd24d" fill-opacity="0.9"/><circle cx="29.68" cy="59.13" r="6.15" fill="#ffd24d" fill-opacity="0.9"/><circle cx="28.21" cy="76.07" r="6.15" fill="#ffd24d" fill-opacity="0.9"/><circle cx="28.21" cy="93.12" r="6.15" fill="#ffd24d" fill-opacity="0.9"/><circle cx="28.21" cy="110.16" r="6.15" fill="#ffd24d" fill-opacity="0.9"/><circle cx="29.56" cy="127.35" r="6.15" fill="#ffd24d" fill-opacity="0.9"/><circle cx="33.10" cy="144.00" r="6.15" fill="#ffd24d" fill-opacity="0.9"/><circle cx="43.52" cy="157.49" r="6.15" fill="#ffd24d" fill-opacity="0.9"/><circle cx="60.34" cy="161.09" r="6.15" fill="#ffd24d" fill-opacity="0.9"/><circle cx="77.30" cy="162.38" r="6.15" fill="#ffd24d" fill-opacity="0.9"/><circle cx="94.25" cy="161.16" r="6.15" fill="#ffd24d" fill-opacity="0.9"/><circle cx="110.93" cy="157.89" r="6.15" fill="#ffd24d" fill-opacity="0.9"/><circle cx="127.43" cy="153.63" r="6.15" fill="#ffd24d" fill-opacity="0.9"/><circle cx="125.82" cy="60.80" r="6.15" fill="#ffd24d" fill-opacity="0.9"/><circle cx="126.96" cy="77.27" r="6.15" fill="#ffd24d" fill-opacity="0.9"/><circle cx="126.96" cy="93.82" r="6.15" fill="#ffd24d" fill-opacity="0.9"/><circle cx="126.96" cy="110.38" r="6.15" fill="#ffd24d" fill-opacity="0.9"/><circle cx="125.78" cy="126.85" r="6.15" fill="#ffd24d" fill-opacity="0.9"/><circle cx="215.21" cy="31.32" r="6.15" fill="#ffd24d" fill-opacity="0.9"/><circle cx="215.21" cy="48.14" r="6.15" fill="#ffd24d" fill-opacity="0.9"/><circle cx="215.21" cy="64.96" r="6.15" fill="#ffd24d" fill-opacity="0.9"/><circle cx="215.21" cy="81.78" r="6.15" fill="#ffd24d" fill-opacity="0.9"/><circle cx="215.21" cy="98.60" r="6.15" fill="#ffd24d" fill-opacity="0.9"/><circle cx="215.21" cy="115.42" r="6.15" fill="#ffd24d" fill-opacity="0.9"/><circle cx="215.21" cy="132.49" r="6.15" fill="#ffd24d" fill-opacity="0.9"/><circle cx="215.35" cy="149.55" r="6.15" fill="#ffd24d" fill-opacity="0.9"/><circle cx="228.39" cy="160.29" r="6.15" fill="#ffd24d" fill-opacity="0.9"/><circle cx="245.21" cy="160.29" r="6.15" fill="#ffd24d" fill-opacity="0.9"/><circle cx="262.26" cy="160.02" r="6.15" fill="#ffd24d" fill-opacity="0.9"/><circle cx="279.23" cy="158.64" r="6.15" fill="#ffd24d" fill-opacity="0.9"/><circle cx="295.13" cy="153.06" r="6.15" fill="#ffd24d" fill-opacity="0.9"/><circle cx="301.54" cy="137.30" r="6.15" fill="#ffd24d" fill-opacity="0.9"/><circle cx="303.93" cy="120.43" r="6.15" fill="#ffd24d" fill-opacity="0.9"/><circle cx="302.06" cy="103.52" r="6.15" fill="#ffd24d" fill-opacity="0.9"/><circle cx="297.32" cy="87.22" r="6.15" fill="#ffd24d" fill-opacity="0.9"/><circle cx="282.60" cy="78.73" r="6.15" fill="#ffd24d" fill-opacity="0.9"/><circle cx="265.65" cy="77.01" r="6.15" fill="#ffd24d" fill-opacity="0.9"/><circle cx="248.61" cy="76.54" r="6.15" fill="#ffd24d" fill-opacity="0.9"/><circle cx="231.79" cy="76.54" r="6.15" fill="#ffd24d" fill-opacity="0.9"/><circle cx="465.71" cy="27.38" r="6.15" fill="#ffd24d" fill-opacity="0.9"/><circle cx="449.39" cy="27.38" r="6.15" fill="#ffd24d" fill-opacity="0.9"/><circle cx="433.06" cy="27.38" r="6.15" fill="#ffd24d" fill-opacity="0.9"/><circle cx="416.74" cy="27.38" r="6.15" fill="#ffd24d" fill-opacity="0.9"/><circle cx="400.42" cy="27.38" r="6.15" fill="#ffd24d" fill-opacity="0.9"/><circle cx="385.90" cy="35.23" r="6.15" fill="#ffd24d" fill-opacity="0.9"/><circle cx="385.29" cy="51.75" r="6.15" fill="#ffd24d" fill-opacity="0.9"/><circle cx="385.29" cy="68.08" r="6.15" fill="#ffd24d" fill-opacity="0.9"/><circle cx="385.29" cy="84.40" r="6.15" fill="#ffd24d" fill-opacity="0.9"/><circle cx="385.29" cy="100.72" r="6.15" fill="#ffd24d" fill-opacity="0.9"/><circle cx="385.29" cy="117.04" r="6.15" fill="#ffd24d" fill-opacity="0.9"/><circle cx="385.29" cy="133.37" r="6.15" fill="#ffd24d" fill-opacity="0.9"/><circle cx="385.56" cy="149.92" r="6.15" fill="#ffd24d" fill-opacity="0.9"/><circle cx="398.61" cy="159.88" r="6.15" fill="#ffd24d" fill-opacity="0.9"/><circle cx="414.93" cy="159.88" r="6.15" fill="#ffd24d" fill-opacity="0.9"/><circle cx="431.25" cy="159.88" r="6.15" fill="#ffd24d" fill-opacity="0.9"/><circle cx="447.57" cy="159.88" r="6.15" fill="#ffd24d" fill-opacity="0.9"/><circle cx="464.88" cy="160.15" r="6.15" fill="#ffd24d" fill-opacity="0.9"/><circle cx="447.79" cy="94.88" r="6.15" fill="#ffd24d" fill-opacity="0.9"/><circle cx="432.38" cy="94.88" r="6.15" fill="#ffd24d" fill-opacity="0.9"/><circle cx="416.96" cy="94.88" r="6.15" fill="#ffd24d" fill-opacity="0.9"/><circle cx="401.54" cy="94.88" r="6.15" fill="#ffd24d" fill-opacity="0.9"/><circle cx="647.12" cy="152.79" r="6.15" fill="#ffd24d" fill-opacity="0.9"/><circle cx="647.12" cy="137.24" r="6.15" fill="#ffd24d" fill-opacity="0.9"/><circle cx="647.12" cy="121.90" r="6.15" fill="#ffd24d" fill-opacity="0.9"/><circle cx="647.12" cy="106.57" r="6.15" fill="#ffd24d" fill-opacity="0.9"/><circle cx="644.21" cy="91.54" r="6.15" fill="#ffd24d" fill-opacity="0.9"/><circle cx="633.37" cy="80.70" r="6.15" fill="#ffd24d" fill-opacity="0.9"/><circle cx="646.85" cy="34.04" r="6.15" fill="#ffd24d" fill-opacity="0.9"/><circle cx="647.12" cy="50.12" r="6.15" fill="#ffd24d" fill-opacity="0.9"/><circle cx="647.12" cy="66.22" r="6.15" fill="#ffd24d" fill-opacity="0.9"/><circle cx="616.67" cy="98.57" r="6.15" fill="#ffd24d" fill-opacity="0.9"/><circle cx="601.69" cy="104.65" r="6.15" fill="#ffd24d" fill-opacity="0.9"/><circle cx="588.97" cy="114.44" r="6.15" fill="#ffd24d" fill-opacity="0.9"/><circle cx="573.84" cy="119.93" r="6.15" fill="#ffd24d" fill-opacity="0.9"/><circle cx="558.72" cy="125.42" r="6.15" fill="#ffd24d" fill-opacity="0.9"/><circle cx="549.85" cy="139.00" r="6.15" fill="#ffd24d" fill-opacity="0.9"/><circle cx="545.46" cy="154.46" r="6.15" fill="#ffd24d" fill-opacity="0.9"/><circle cx="548.79" cy="104.10" r="6.15" fill="#ffd24d" fill-opacity="0.9"/><circle cx="548.79" cy="86.48" r="6.15" fill="#ffd24d" fill-opacity="0.9"/><circle cx="548.79" cy="68.86" r="6.15" fill="#ffd24d" fill-opacity="0.9"/><circle cx="548.79" cy="51.24" r="6.15" fill="#ffd24d" fill-opacity="0.9"/><circle cx="548.79" cy="33.62" r="6.15" fill="#ffd24d" fill-opacity="0.9"/><circle cx="127.78" cy="33.71" r="8.65" fill="none" stroke="#66d19e" stroke-width="1.6"/></g><text x="137.8" y="-29.7" fill="#66d19e" font-size="11" font-family="system-ui">DATA IN</text><text x="75.5" y="4.0" fill="#ff5470" font-size="14" text-anchor="middle" font-family="system-ui">P1</text><text x="250.5" y="4.0" fill="#ff5470" font-size="14" text-anchor="middle" font-family="system-ui">P2</text><text x="425.5" y="4.0" fill="#ff5470" font-size="14" text-anchor="middle" font-family="system-ui">P3</text><text x="599.9" y="4.0" fill="#ff5470" font-size="14" text-anchor="middle" font-family="system-ui">P4</text></svg>