<svg viewBox="-37.0 -269.5 435.8 306.5" xmlns="http://www.w3.org/2000/svg"><g transform="scale(1,-1)"><path d="M-12.00,-12.00 L373.83,-12.00 L373.83,244.50 L-12.00,244.50 Z" fill="#1d1d25" stroke="#3a3a46" stroke-width="1"/><polyline points="52.95,66.99 49.03,66.21 45.14,65.28 41.31,64.16 37.48,63.02 34.07,61.00 31.07,58.35 28.14,55.63 25.31,52.81 22.60,49.88 19.98,46.85 17.45,43.76 15.17,40.48 13.17,37.02 11.47,33.41 10.16,29.64 9.51,25.69 8.92,21.75 8.96,17.80 10.00,13.97 12.42,10.81 16.05,9.31 19.98,8.84 23.90,9.58 27.76,10.62 30.91,13.06 33.34,16.22 35.61,19.52 37.71,22.91 39.38,26.54 40.86,30.25 42.42,33.93 43.59,37.75 44.88,41.53 46.07,45.35 47.04,49.23 47.78,53.14 48.30,57.11 48.70,61.07 49.22,65.03 50.91,68.64 52.30,72.37 52.79,76.32 53.21,80.29 54.19,84.09 57.57,85.50 61.45,86.49 65.33,87.41 69.19,88.48 73.04,89.55 76.89,90.61 80.74,91.68 84.60,92.75" fill="none" stroke="#141414" stroke-width="22.0" stroke-linecap="round" stroke-linejoin="round"/><polyline points="52.95,66.99 49.03,66.21 45.14,65.28 41.31,64.16 37.48,63.02 34.07,61.00 31.07,58.35 28.14,55.63 25.31,52.81 22.60,49.88 19.98,46.85 17.45,43.76 15.17,40.48 13.17,37.02 11.47,33.41 10.16,29.64 9.51,25.69 8.92,21.75 8.96,17.80 10.00,13.97 12.42,10.81 16.05,9.31 19.98,8.84 23.90,9.58 27.76,10.62 30.91,13.06 33.34,16.22 35.61,19.52 37.71,22.91 39.38,26.54 40.86,30.25 42.42,33.93 43.59,37.75 44.88,41.53 46.07,45.35 47.04,49.23 47.78,53.14 48.30,57.11 48.70,61.07 49.22,65.03 50.91,68.64 52.30,72.37 52.79,76.32 53.21,80.29 54.19,84.09 57.57,85.50 61.45,86.49 65.33,87.41 69.19,88.48 73.04,89.55 76.89,90.61 80.74,91.68 84.60,92.75" fill="none" stroke="#7ec8ff" opacity="0.85" stroke-width="18.0" stroke-linecap="round" stroke-linejoin="round"/><polyline points="24.79,129.04 22.78,125.63 21.04,122.07 19.67,118.36 18.64,114.53 18.02,110.62 17.41,106.71 17.15,102.78 17.65,98.85 18.36,94.95 19.42,91.14 21.58,87.86 24.55,85.25 28.28,84.10 32.16,84.83 36.00,85.83 39.70,87.22 43.47,88.43 47.26,89.59 50.90,91.15 54.66,92.36 55.62,96.15 55.98,100.09 56.45,104.01 57.10,107.92 57.74,111.83 58.46,115.73 59.18,119.62 59.92,123.51 60.63,127.41 61.12,131.34 61.50,135.27 60.18,138.84 57.44,141.70 53.81,142.87 50.15,144.37 46.35,145.16 42.49,144.28 38.89,142.63 35.55,140.53 32.54,137.94 29.60,135.29 27.01,132.33 24.79,129.04" fill="none" stroke="#141414" stroke-width="22.0" stroke-linecap="round" stroke-linejoin="round"/><polyline points="24.79,129.04 22.78,125.63 21.04,122.07 19.67,118.36 18.64,114.53 18.02,110.62 17.41,106.71 17.15,102.78 17.65,98.85 18.36,94.95 19.42,91.14 21.58,87.86 24.55,85.25 28.28,84.10 32.16,84.83 36.00,85.83 39.70,87.22 43.47,88.43 47.26,89.59 50.90,91.15 54.66,92.36 55.62,96.15 55.98,100.09 56.45,104.01 57.10,107.92 57.74,111.83 58.46,115.73 59.18,119.62 59.92,123.51 60.63,127.41 61.12,131.34 61.50,135.27 60.18,138.84 57.44,141.70 53.81,142.87 50.15,144.37 46.35,145.16 42.49,144.28 38.89,142.63 35.55,140.53 32.54,137.94 29.60,135.29 27.01,132.33 24.79,129.04" fill="none" stroke="#7ec8ff" opacity="0.85" stroke-width="18.0" stroke-linecap="round" stroke-linejoin="round"/><polyline points="100.94,117.47 104.68,118.89 108.38,120.40 112.06,121.96 115.74,123.54 118.87,125.87 121.03,129.23 123.06,132.68 125.06,136.14 126.98,139.65 128.79,143.21 130.54,146.80 132.20,150.44 133.96,154.03 135.53,157.71 137.04,161.41 138.33,165.19 139.75,168.93 141.04,172.71 142.05,176.58 143.18,180.42 144.01,184.32 144.88,188.23 145.28,192.19 145.95,196.13 146.17,200.11 146.38,204.10 145.98,208.06 145.45,212.01 144.69,215.93 143.16,219.60 140.38,222.35 136.50,223.14 132.57,222.42 128.73,221.33 125.55,218.97 123.14,215.78 121.23,212.28 119.40,208.72 117.83,205.05 116.41,201.31 114.90,197.61 113.75,193.79 112.44,190.01 111.46,186.14 110.32,182.30 109.46,178.40 108.42,174.54 107.66,170.62 106.99,166.68 106.12,162.78 105.57,158.83 105.04,154.87 104.38,150.93 104.12,146.95 103.58,143.00 103.46,139.01 103.04,135.04 103.04,131.04 102.67,127.07 102.62,123.08 103.28,119.18 103.88,115.27 104.27,111.30 104.70,107.33 105.28,103.37 105.94,99.43 106.96,95.58 108.68,91.97 111.15,88.85 114.33,86.45 118.16,85.35 122.11,84.88 126.08,85.32 130.00,86.10 133.87,87.08 137.72,88.17 141.57,89.26 145.41,90.35" fill="none" stroke="#141414" stroke-width="22.0" stroke-linecap="round" stroke-linejoin="round"/><polyline points="100.94,117.47 104.68,118.89 108.38,120.40 112.06,121.96 115.74,123.54 118.87,125.87 121.03,129.23 123.06,132.68 125.06,136.14 126.98,139.65 128.79,143.21 130.54,146.80 132.20,150.44 133.96,154.03 135.53,157.71 137.04,161.41 138.33,165.19 139.75,168.93 141.04,172.71 142.05,176.58 143.18,180.42 144.01,184.32 144.88,188.23 145.28,192.19 145.95,196.13 146.17,200.11 146.38,204.10 145.98,208.06 145.45,212.01 144.69,215.93 143.16,219.60 140.38,222.35 136.50,223.14 132.57,222.42 128.73,221.33 125.55,218.97 123.14,215.78 121.23,212.28 119.40,208.72 117.83,205.05 116.41,201.31 114.90,197.61 113.75,193.79 112.44,190.01 111.46,186.14 110.32,182.30 109.46,178.40 108.42,174.54 107.66,170.62 106.99,166.68 106.12,162.78 105.57,158.83 105.04,154.87 104.38,150.93 104.12,146.95 103.58,143.00 103.46,139.01 103.04,135.04 103.04,131.04 102.67,127.07 102.62,123.08 103.28,119.18 103.88,115.27 104.27,111.30 104.70,107.33 105.28,103.37 105.94,99.43 106.96,95.58 108.68,91.97 111.15,88.85 114.33,86.45 118.16,85.35 122.11,84.88 126.08,85.32 130.00,86.10 133.87,87.08 137.72,88.17 141.57,89.26 145.41,90.35" fill="none" stroke="#7ec8ff" opacity="0.85" stroke-width="18.0" stroke-linecap="round" stroke-linejoin="round"/><polyline points="175.79,140.12 179.24,142.13 183.08,143.17 187.02,143.79 190.99,144.00 194.93,143.38 197.95,141.15 199.38,137.42 200.88,133.72 202.76,130.20 204.63,126.68 206.74,123.29 208.70,119.81 209.45,115.96 208.73,112.04 208.27,108.08 207.56,104.15 206.62,100.28 205.08,96.60 202.97,93.21 200.23,90.32 197.22,87.69 193.64,85.95 189.75,85.08 185.80,84.46 181.82,84.55 177.90,85.26 174.26,86.88 171.22,89.45 168.73,92.56 166.83,96.06 165.51,99.82 164.77,103.74 164.15,107.68 163.93,111.64 164.35,115.61 164.96,119.55 165.60,123.49 166.74,127.31 168.28,130.99 170.26,134.45 172.73,137.58 175.79,140.12" fill="none" stroke="#141414" stroke-width="22.0" stroke-linecap="round" stroke-linejoin="round"/><polyline points="175.79,140.12 179.24,142.13 183.08,143.17 187.02,143.79 190.99,144.00 194.93,143.38 197.95,141.15 199.38,137.42 200.88,133.72 202.76,130.20 204.63,126.68 206.74,123.29 208.70,119.81 209.45,115.96 208.73,112.04 208.27,108.08 207.56,104.15 206.62,100.28 205.08,96.60 202.97,93.21 200.23,90.32 197.22,87.69 193.64,85.95 189.75,85.08 185.80,84.46 181.82,84.55 177.90,85.26 174.26,86.88 171.22,89.45 168.73,92.56 166.83,96.06 165.51,99.82 164.77,103.74 164.15,107.68 163.93,111.64 164.35,115.61 164.96,119.55 165.60,123.49 166.74,127.31 168.28,130.99 170.26,134.45 172.73,137.58 175.79,140.12" fill="none" stroke="#7ec8ff" opacity="0.85" stroke-width="18.0" stroke-linecap="round" stroke-linejoin="round"/><polyline points="283.31,121.57 279.77,119.81 276.32,117.90 272.87,115.97 269.75,113.69 268.14,110.09 266.61,106.45 264.98,102.85 263.39,99.24 261.77,95.64 259.98,92.11 257.14,89.56 253.47,88.11 249.69,86.97 245.98,88.13 244.55,91.68 243.80,95.55 243.04,99.42 242.77,103.36 242.31,107.27 242.05,111.20 241.71,115.13 241.71,119.08 241.29,123.00 241.29,126.95 241.29,130.90 240.91,134.82 241.29,138.74 241.29,142.69" fill="none" stroke="#141414" stroke-width="22.0" stroke-linecap="round" stroke-linejoin="round"/><polyline points="283.31,121.57 279.77,119.81 276.32,117.90 272.87,115.97 269.75,113.69 268.14,110.09 266.61,106.45 264.98,102.85 263.39,99.24 261.77,95.64 259.98,92.11 257.14,89.56 253.47,88.11 249.69,86.97 245.98,88.13 244.55,91.68 243.80,95.55 243.04,99.42 242.77,103.36 242.31,107.27 242.05,111.20 241.71,115.13 241.71,119.08 241.29,123.00 241.29,126.95 241.29,130.90 240.91,134.82 241.29,138.74 241.29,142.69" fill="none" stroke="#7ec8ff" opacity="0.85" stroke-width="18.0" stroke-linecap="round" stroke-linejoin="round"/><polyline points="284.42,142.74 283.91,138.80 283.20,134.90 282.63,130.97 281.98,127.05 281.58,123.11 282.52,119.44 284.33,115.93 284.62,111.98 284.94,108.03 285.12,104.07 285.66,100.14 285.98,96.19 286.73,92.30 288.16,88.70 291.78,87.32 295.61,88.26 299.38,89.53 302.48,91.93 304.97,95.01 307.17,98.32 309.39,101.62 311.56,104.94 313.70,108.29 315.80,111.66 317.76,115.09 320.58,117.89 324.18,116.91 327.78,115.29 331.75,115.22 335.69,114.79 339.61,114.78 343.55,115.27 347.41,116.21 351.25,117.20" fill="none" stroke="#141414" stroke-width="22.0" stroke-linecap="round" stroke-linejoin="round"/><polyline points="284.42,142.74 283.91,138.80 283.20,134.90 282.63,130.97 281.98,127.05 281.58,123.11 282.52,119.44 284.33,115.93 284.62,111.98 284.94,108.03 285.12,104.07 285.66,100.14 285.98,96.19 286.73,92.30 288.16,88.70 291.78,87.32 295.61,88.26 299.38,89.53 302.48,91.93 304.97,95.01 307.17,98.32 309.39,101.62 311.56,104.94 313.70,108.29 315.80,111.66 317.76,115.09 320.58,117.89 324.18,116.91 327.78,115.29 331.75,115.22 335.69,114.79 339.61,114.78 343.55,115.27 347.41,116.21 351.25,117.20" fill="none" stroke="#7ec8ff" opacity="0.85" stroke-width="18.0" stroke-linecap="round" stroke-linejoin="round"/><polyline points="80.15,103.76 83.07,104.58 86.01,105.34 88.98,105.94 91.91,106.70" fill="none" stroke="#141414" stroke-width="22.0" stroke-linecap="round" stroke-linejoin="round"/><polyline points="80.15,103.76 83.07,104.58 86.01,105.34 88.98,105.94 91.91,106.70" fill="none" stroke="#7ec8ff" opacity="0.85" stroke-width="18.0" stroke-linecap="round" stroke-linejoin="round"/><polyline points="154.99,95.88 153.74,98.62 152.28,101.25 150.78,103.85 150.98,106.76 151.91,109.62 153.06,112.40 153.37,115.39 153.72,118.37" fill="none" stroke="#141414" stroke-width="22.0" stroke-linecap="round" stroke-linejoin="round"/><polyline points="154.99,95.88 153.74,98.62 152.28,101.25 150.78,103.85 150.98,106.76 151.91,109.62 153.06,112.40 153.37,115.39 153.72,118.37" fill="none" stroke="#7ec8ff" opacity="0.85" stroke-width="18.0" stroke-linecap="round" stroke-linejoin="round"/><polyline points="152.61,104.45 149.43,103.76 146.32,102.83 143.32,101.57 140.38,100.17" fill="none" stroke="#141414" stroke-width="22.0" stroke-linecap="round" stroke-linejoin="round"/><polyline points="152.61,104.45 149.43,103.76 146.32,102.83 143.32,101.57 140.38,100.17" fill="none" stroke="#7ec8ff" opacity="0.85" stroke-width="18.0" stroke-linecap="round" stroke-linejoin="round"/><polyline points="221.20,108.23 223.44,110.22 225.18,112.63 225.37,115.62 224.42,118.32 222.35,120.50 220.23,122.63 218.61,125.10 217.63,127.94 216.51,130.72 215.21,133.43 213.90,136.13 212.59,138.83 211.29,141.53 209.98,144.24" fill="none" stroke="#141414" stroke-width="22.0" stroke-linecap="round" stroke-linejoin="round"/><polyline points="221.20,108.23 223.44,110.22 225.18,112.63 225.37,115.62 224.42,118.32 222.35,120.50 220.23,122.63 218.61,125.10 217.63,127.94 216.51,130.72 215.21,133.43 213.90,136.13 212.59,138.83 211.29,141.53 209.98,144.24" fill="none" stroke="#7ec8ff" opacity="0.85" stroke-width="18.0" stroke-linecap="round" stroke-linejoin="round"/><polyline points="327.83,138.97 324.93,138.31 322.07,137.48 319.34,136.31 316.65,135.06 314.11,133.51 312.06,131.37 310.78,128.72 310.04,125.84 309.49,122.92" fill="none" stroke="#141414" stroke-width="22.0" stroke-linecap="round" stroke-linejoin="round"/><polyline points="327.83,138.97 324.93,138.31 322.07,137.48 319.34,136.31 316.65,135.06 314.11,133.51 312.06,131.37 310.78,128.72 310.04,125.84 309.49,122.92" fill="none" stroke="#7ec8ff" opacity="0.85" stroke-width="18.0" stroke-linecap="round" stroke-linejoin="round"/><polyline points="189.96,131.64 190.38,128.71 191.34,125.90 192.42,123.14 193.82,120.52 195.26,117.92 196.60,115.27 197.60,112.48" fill="none" stroke="#141414" stroke-width="22.0" stroke-linecap="round" stroke-linejoin="round"/><polyline points="189.96,131.64 190.38,128.71 191.34,125.90 192.42,123.14 193.82,120.52 195.26,117.92 196.60,115.27 197.60,112.48" fill="none" stroke="#7ec8ff" opacity="0.85" stroke-width="18.0" stroke-linecap="round" stroke-linejoin="round"/><path d="M373.83,244.50 L373.83,-12.00 L183.06,-12.00 L183.06,244.50 Z" fill="none" stroke="#ff5470" stroke-width="0.8" stroke-dasharray="4 3"/><line x1="53.0" y1="67.0" x2="36.8" y2="62.6" stroke="#66d19e" stroke-width="1.1" stroke-opacity="0.85"/><line x1="36.8" y1="62.6" x2="24.2" y2="51.6" stroke="#66d19e" stroke-width="1.1" stroke-opacity="0.85"/><line x1="24.2" y1="51.6" x2="14.0" y2="38.4" stroke="#66d19e" stroke-width="1.1" stroke-opacity="0.85"/><line x1="14.0" y1="38.4" x2="9.0" y2="22.3" stroke="#66d19e" stroke-width="1.1" stroke-opacity="0.85"/><line x1="9.0" y1="22.3" x2="19.2" y2="8.9" stroke="#66d19e" stroke-width="1.1" stroke-opacity="0.85"/><line x1="19.2" y1="8.9" x2="33.9" y2="17.1" stroke="#66d19e" stroke-width="1.1" stroke-opacity="0.85"/><line x1="33.9" y1="17.1" x2="41.6" y2="32.0" stroke="#66d19e" stroke-width="1.1" stroke-opacity="0.85"/><line x1="41.6" y1="32.0" x2="46.7" y2="47.9" stroke="#66d19e" stroke-width="1.1" stroke-opacity="0.85"/><line x1="46.7" y1="47.9" x2="53.3" y2="80.8" stroke="#66d19e" stroke-width="1.1" stroke-opacity="0.85"/><line x1="53.3" y1="80.8" x2="68.4" y2="88.3" stroke="#66d19e" stroke-width="1.1" stroke-opacity="0.85"/><line x1="68.4" y1="88.3" x2="84.6" y2="92.8" stroke="#66d19e" stroke-width="1.1" stroke-opacity="0.85"/><line x1="84.6" y1="92.8" x2="24.8" y2="129.0" stroke="#66d19e" stroke-width="1.1" stroke-opacity="0.85"/><line x1="24.8" y1="129.0" x2="18.5" y2="113.4" stroke="#66d19e" stroke-width="1.1" stroke-opacity="0.85"/><line x1="18.5" y1="113.4" x2="18.1" y2="96.6" stroke="#66d19e" stroke-width="1.1" stroke-opacity="0.85"/><line x1="18.1" y1="96.6" x2="27.8" y2="84.2" stroke="#66d19e" stroke-width="1.1" stroke-opacity="0.85"/><line x1="27.8" y1="84.2" x2="55.8" y2="98.0" stroke="#66d19e" stroke-width="1.1" stroke-opacity="0.85"/><line x1="55.8" y1="98.0" x2="58.3" y2="114.8" stroke="#66d19e" stroke-width="1.1" stroke-opacity="0.85"/><line x1="58.3" y1="114.8" x2="61.1" y2="131.5" stroke="#66d19e" stroke-width="1.1" stroke-opacity="0.85"/><line x1="61.1" y1="131.5" x2="52.3" y2="143.5" stroke="#66d19e" stroke-width="1.1" stroke-opacity="0.85"/><line x1="52.3" y1="143.5" x2="36.5" y2="141.1" stroke="#66d19e" stroke-width="1.1" stroke-opacity="0.85"/><line x1="36.5" y1="141.1" x2="100.9" y2="117.5" stroke="#66d19e" stroke-width="1.1" stroke-opacity="0.85"/><line x1="100.9" y1="117.5" x2="116.6" y2="124.2" stroke="#66d19e" stroke-width="1.1" stroke-opacity="0.85"/><line x1="116.6" y1="124.2" x2="126.2" y2="138.2" stroke="#66d19e" stroke-width="1.1" stroke-opacity="0.85"/><line x1="126.2" y1="138.2" x2="133.7" y2="153.6" stroke="#66d19e" stroke-width="1.1" stroke-opacity="0.85"/><line x1="133.7" y1="153.6" x2="139.9" y2="169.4" stroke="#66d19e" stroke-width="1.1" stroke-opacity="0.85"/><line x1="139.9" y1="169.4" x2="144.4" y2="185.9" stroke="#66d19e" stroke-width="1.1" stroke-opacity="0.85"/><line x1="144.4" y1="185.9" x2="146.3" y2="202.8" stroke="#66d19e" stroke-width="1.1" stroke-opacity="0.85"/><line x1="146.3" y1="202.8" x2="143.2" y2="219.6" stroke="#66d19e" stroke-width="1.1" stroke-opacity="0.85"/><line x1="143.2" y1="219.6" x2="126.2" y2="219.4" stroke="#66d19e" stroke-width="1.1" stroke-opacity="0.85"/><line x1="126.2" y1="219.4" x2="117.6" y2="204.6" stroke="#66d19e" stroke-width="1.1" stroke-opacity="0.85"/><line x1="117.6" y1="204.6" x2="112.0" y2="188.5" stroke="#66d19e" stroke-width="1.1" stroke-opacity="0.85"/><line x1="112.0" y1="188.5" x2="107.9" y2="171.9" stroke="#66d19e" stroke-width="1.1" stroke-opacity="0.85"/><line x1="107.9" y1="171.9" x2="105.1" y2="155.1" stroke="#66d19e" stroke-width="1.1" stroke-opacity="0.85"/><line x1="105.1" y1="155.1" x2="103.4" y2="138.2" stroke="#66d19e" stroke-width="1.1" stroke-opacity="0.85"/><line x1="103.4" y1="138.2" x2="105.2" y2="103.9" stroke="#66d19e" stroke-width="1.1" stroke-opacity="0.85"/><line x1="105.2" y1="103.9" x2="112.0" y2="88.2" stroke="#66d19e" stroke-width="1.1" stroke-opacity="0.85"/><line x1="112.0" y1="88.2" x2="128.9" y2="85.9" stroke="#66d19e" stroke-width="1.1" stroke-opacity="0.85"/><line x1="128.9" y1="85.9" x2="145.4" y2="90.3" stroke="#66d19e" stroke-width="1.1" stroke-opacity="0.85"/><line x1="145.4" y1="90.3" x2="195.5" y2="142.9" stroke="#66d19e" stroke-width="1.1" stroke-opacity="0.85"/><line x1="195.5" y1="142.9" x2="203.4" y2="129.0" stroke="#66d19e" stroke-width="1.1" stroke-opacity="0.85"/><line x1="203.4" y1="129.0" x2="209.2" y2="114.4" stroke="#66d19e" stroke-width="1.1" stroke-opacity="0.85"/><line x1="209.2" y1="114.4" x2="206.0" y2="98.8" stroke="#66d19e" stroke-width="1.1" stroke-opacity="0.85"/><line x1="206.0" y1="98.8" x2="195.6" y2="86.9" stroke="#66d19e" stroke-width="1.1" stroke-opacity="0.85"/><line x1="195.6" y1="86.9" x2="170.4" y2="90.5" stroke="#66d19e" stroke-width="1.1" stroke-opacity="0.85"/><line x1="170.4" y1="90.5" x2="164.6" y2="104.8" stroke="#66d19e" stroke-width="1.1" stroke-opacity="0.85"/><line x1="164.6" y1="104.8" x2="165.0" y2="120.1" stroke="#66d19e" stroke-width="1.1" stroke-opacity="0.85"/><line x1="165.0" y1="120.1" x2="170.4" y2="134.7" stroke="#66d19e" stroke-width="1.1" stroke-opacity="0.85"/><line x1="170.4" y1="134.7" x2="283.3" y2="121.6" stroke="#ff9d5c" stroke-dasharray="5 4" stroke-width="1.6"/><line x1="283.3" y1="121.6" x2="268.8" y2="111.5" stroke="#66d19e" stroke-width="1.1" stroke-opacity="0.85"/><line x1="268.8" y1="111.5" x2="261.6" y2="95.4" stroke="#66d19e" stroke-width="1.1" stroke-opacity="0.85"/><line x1="261.6" y1="95.4" x2="244.6" y2="91.5" stroke="#66d19e" stroke-width="1.1" stroke-opacity="0.85"/><line x1="244.6" y1="91.5" x2="242.2" y2="108.8" stroke="#66d19e" stroke-width="1.1" stroke-opacity="0.85"/><line x1="242.2" y1="108.8" x2="241.3" y2="126.4" stroke="#66d19e" stroke-width="1.1" stroke-opacity="0.85"/><line x1="241.3" y1="126.4" x2="241.3" y2="142.7" stroke="#66d19e" stroke-width="1.1" stroke-opacity="0.85"/><line x1="241.3" y1="142.7" x2="284.4" y2="142.7" stroke="#66d19e" stroke-width="1.1" stroke-opacity="0.85"/><line x1="284.4" y1="142.7" x2="286.1" y2="95.7" stroke="#66d19e" stroke-width="1.1" stroke-opacity="0.85"/><line x1="286.1" y1="95.7" x2="301.2" y2="91.0" stroke="#66d19e" stroke-width="1.1" stroke-opacity="0.85"/><line x1="301.2" y1="91.0" x2="310.8" y2="103.8" stroke="#66d19e" stroke-width="1.1" stroke-opacity="0.85"/><line x1="310.8" y1="103.8" x2="319.6" y2="117.0" stroke="#66d19e" stroke-width="1.1" stroke-opacity="0.85"/><line x1="319.6" y1="117.0" x2="335.4" y2="114.8" stroke="#66d19e" stroke-width="1.1" stroke-opacity="0.85"/><line x1="335.4" y1="114.8" x2="351.2" y2="117.2" stroke="#66d19e" stroke-width="1.1" stroke-opacity="0.85"/><line x1="351.2" y1="117.2" x2="221.2" y2="108.2" stroke="#ff9d5c" stroke-dasharray="5 4" stroke-width="1.6"/><line x1="221.2" y1="108.2" x2="218.0" y2="126.9" stroke="#66d19e" stroke-width="1.1" stroke-opacity="0.85"/><line x1="218.0" y1="126.9" x2="210.0" y2="144.2" stroke="#66d19e" stroke-width="1.1" stroke-opacity="0.85"/><line x1="210.0" y1="144.2" x2="327.8" y2="139.0" stroke="#ff9d5c" stroke-dasharray="5 4" stroke-width="1.6"/><circle cx="52.95" cy="66.99" r="6.15" fill="#ffd24d" fill-opacity="0.9"/><circle cx="36.80" cy="62.61" r="6.15" fill="#ffd24d" fill-opacity="0.9"/><circle cx="24.22" cy="51.64" r="6.15" fill="#ffd24d" fill-opacity="0.9"/><circle cx="13.97" cy="38.40" r="6.15" fill="#ffd24d" fill-opacity="0.9"/><circle cx="8.99" cy="22.27" r="6.15" fill="#ffd24d" fill-opacity="0.9"/><circle cx="19.19" cy="8.94" r="6.15" fill="#ffd24d" fill-opacity="0.9"/><circle cx="33.94" cy="17.10" r="6.15" fill="#ffd24d" fill-opacity="0.9"/><circle cx="41.59" cy="31.97" r="6.15" fill="#ffd24d" fill-opacity="0.9"/><circle cx="46.71" cy="47.94" r="6.15" fill="#ffd24d" fill-opacity="0.9"/><circle cx="53.34" cy="80.80" r="6.15" fill="#ffd24d" fill-opacity="0.9"/><circle cx="68.42" cy="88.27" r="6.15" fill="#ffd24d" fill-opacity="0.9"/><circle cx="84.60" cy="92.75" r="6.15" fill="#ffd24d" fill-opacity="0.9"/><circle cx="24.79" cy="129.04" r="6.15" fill="#ffd24d" fill-opacity="0.9"/><circle cx="18.47" cy="113.42" r="6.15" fill="#ffd24d" fill-opacity="0.9"/><circle cx="18.06" cy="96.62" r="6.15" fill="#ffd24d" fill-opacity="0.9"/><circle cx="27.84" cy="84.24" r="6.15" fill="#ffd24d" fill-opacity="0.9"/><circle cx="55.79" cy="98.01" r="6.15" fill="#ffd24d" fill-opacity="0.9"/><circle cx="58.29" cy="114.78" r="6.15" fill="#ffd24d" fill-opacity="0.9"/><circle cx="61.14" cy="131.50" r="6.15" fill="#ffd24d" fill-opacity="0.9"/><circle cx="52.33" cy="143.47" r="6.15" fill="#ffd24d" fill-opacity="0.9"/><circle cx="36.51" cy="141.14" r="6.15" fill="#ffd24d" fill-opacity="0.9"/><circle cx="100.94" cy="117.47" r="6.15" fill="#ffd24d" fill-opacity="0.9"/><circle cx="116.57" cy="124.16" r="6.15" fill="#ffd24d" fill-opacity="0.9"/><circle cx="126.21" cy="138.24" r="6.15" fill="#ffd24d" fill-opacity="0.9"/><circle cx="133.72" cy="153.55" r="6.15" fill="#ffd24d" fill-opacity="0.9"/><circle cx="139.92" cy="169.44" r="6.15" fill="#ffd24d" fill-opacity="0.9"/><circle cx="144.36" cy="185.89" r="6.15" fill="#ffd24d" fill-opacity="0.9"/><circle cx="146.31" cy="202.77" r="6.15" fill="#ffd24d" fill-opacity="0.9"/><circle cx="143.16" cy="219.60" r="6.15" fill="#ffd24d" fill-opacity="0.9"/><circle cx="126.19" cy="219.44" r="6.15" fill="#ffd24d" fill-opacity="0.9"/><circle cx="117.64" cy="204.55" r="6.15" fill="#ffd24d" fill-opacity="0.9"/><circle cx="112.05" cy="188.46" r="6.15" fill="#ffd24d" fill-opacity="0.9"/><circle cx="107.91" cy="171.93" r="6.15" fill="#ffd24d" fill-opacity="0.9"/><circle cx="105.08" cy="155.14" r="6.15" fill="#ffd24d" fill-opacity="0.9"/><circle cx="103.38" cy="138.21" r="6.15" fill="#ffd24d" fill-opacity="0.9"/><circle cx="105.20" cy="103.90" r="6.15" fill="#ffd24d" fill-opacity="0.9"/><circle cx="112.00" cy="88.21" r="6.15" fill="#ffd24d" fill-opacity="0.9"/><circle cx="128.95" cy="85.89" r="6.15" fill="#ffd24d" fill-opacity="0.9"/><circle cx="145.41" cy="90.35" r="6.15" fill="#ffd24d" fill-opacity="0.9"/><circle cx="195.54" cy="142.93" r="6.15" fill="#ffd24d" fill-opacity="0.9"/><circle cx="203.38" cy="129.03" r="6.15" fill="#ffd24d" fill-opacity="0.9"/><circle cx="209.16" cy="114.39" r="6.15" fill="#ffd24d" fill-opacity="0.9"/><circle cx="206.00" cy="98.81" r="6.15" fill="#ffd24d" fill-opacity="0.9"/><circle cx="195.55" cy="86.88" r="6.15" fill="#ffd24d" fill-opacity="0.9"/><circle cx="170.39" cy="90.49" r="6.15" fill="#ffd24d" fill-opacity="0.9"/><circle cx="164.60" cy="104.80" r="6.15" fill="#ffd24d" fill-opacity="0.9"/><circle cx="165.04" cy="120.08" r="6.15" fill="#ffd24d" fill-opacity="0.9"/><circle cx="170.42" cy="134.66" r="6.15" fill="#ffd24d" fill-opacity="0.9"/><circle cx="283.31" cy="121.57" r="6.15" fill="#ffd24d" fill-opacity="0.9"/><circle cx="268.78" cy="111.53" r="6.15" fill="#ffd24d" fill-opacity="0.9"/><circle cx="261.65" cy="95.40" r="6.15" fill="#ffd24d" fill-opacity="0.9"/><circle cx="244.64" cy="91.45" r="6.15" fill="#ffd24d" fill-opacity="0.9"/><circle cx="242.21" cy="108.84" r="6.15" fill="#ffd24d" fill-opacity="0.9"/><circle cx="241.29" cy="126.43" r="6.15" fill="#ffd24d" fill-opacity="0.9"/><circle cx="241.29" cy="142.69" r="6.15" fill="#ffd24d" fill-opacity="0.9"/><circle cx="284.42" cy="142.74" r="6.15" fill="#ffd24d" fill-opacity="0.9"/><circle cx="286.08" cy="95.67" r="6.15" fill="#ffd24d" fill-opacity="0.9"/><circle cx="301.24" cy="90.97" r="6.15" fill="#ffd24d" fill-opacity="0.9"/><circle cx="310.83" cy="103.84" r="6.15" fill="#ffd24d" fill-opacity="0.9"/><circle cx="319.64" cy="116.95" r="6.15" fill="#ffd24d" fill-opacity="0.9"/><circle cx="335.43" cy="114.82" r="6.15" fill="#ffd24d" fill-opacity="0.9"/><circle cx="351.25" cy="117.20" r="6.15" fill="#ffd24d" fill-opacity="0.9"/><circle cx="221.20" cy="108.23" r="6.15" fill="#ffd24d" fill-opacity="0.9"/><circle cx="217.99" cy="126.91" r="6.15" fill="#ffd24d" fill-opacity="0.9"/><circle cx="209.98" cy="144.24" r="6.15" fill="#ffd24d" fill-opacity="0.9"/><circle cx="327.83" cy="138.97" r="6.15" fill="#ffd24d" fill-opacity="0.9"/><circle cx="52.95" cy="66.99" r="8.65" fill="none" stroke="#66d19e" stroke-width="1.6"/></g><text x="63.0" y="-63.0" fill="#66d19e" font-size="11" font-family="system-ui">DATA IN</text><text x="85.5" y="4.0" fill="#ff5470" font-size="14" text-anchor="middle" font-family="system-ui">P1</text><text x="278.4" y="4.0" fill="#ff5470" font-size="14" text-anchor="middle" font-family="system-ui">P2</text></svg>