<svg viewBox="-33.0 -233.0 277.8 266.0" xmlns="http://www.w3.org/2000/svg"><g transform="scale(1,-1)"><path d="M129.38,131.53 L113.69,201.75 L113.51,202.42 L113.27,203.07 L112.97,203.70 L112.62,204.31 L112.22,204.88 L111.77,205.41 L111.28,205.90 L110.75,206.35 L110.18,206.75 L109.57,207.10 L108.94,207.39 L108.28,207.63 L107.61,207.81 L106.93,207.93 L106.23,207.99 L105.53,207.99 L104.84,207.93 L104.15,207.81 L103.48,207.63 L102.82,207.39 L102.19,207.10 L101.59,206.75 L101.02,206.35 L100.48,205.90 L99.99,205.41 L99.54,204.88 L99.14,204.31 L98.79,203.70 L98.50,203.07 L98.26,202.42 L98.08,201.75 L82.38,131.53 L0.00,131.53 L-0.70,131.50 L-1.40,131.41 L-2.08,131.25 L-2.75,131.04 L-3.40,130.77 L-4.02,130.45 L-4.61,130.07 L-5.16,129.64 L-5.68,129.17 L-6.15,128.65 L-6.57,128.09 L-6.95,127.50 L-7.27,126.87 L-7.53,126.22 L-7.74,125.55 L-7.89,124.87 L-7.97,124.17 L-8.00,123.47 L-7.96,122.77 L-7.87,122.08 L-7.71,121.39 L-7.49,120.73 L-7.22,120.08 L-6.89,119.46 L-6.51,118.88 L-6.07,118.32 L-5.60,117.81 L-5.07,117.34 L66.15,58.92 L53.37,1.75 L53.25,1.05 L53.18,0.34 L53.18,-0.36 L53.25,-1.07 L53.37,-1.77 L53.56,-2.45 L53.81,-3.11 L54.11,-3.75 L54.47,-4.36 L54.88,-4.94 L55.34,-5.47 L55.85,-5.97 L56.40,-6.42 L56.98,-6.81 L57.60,-7.16 L58.25,-7.44 L58.92,-7.67 L59.60,-7.84 L60.30,-7.95 L61.01,-8.00 L61.72,-7.98 L62.42,-7.90 L63.11,-7.76 L63.79,-7.56 L64.45,-7.30 L65.08,-6.98 L65.68,-6.61 L66.25,-6.19 L105.88,26.33 L145.51,-6.19 L146.08,-6.61 L146.68,-6.98 L147.31,-7.30 L147.97,-7.56 L148.65,-7.76 L149.34,-7.90 L150.05,-7.98 L150.76,-8.00 L151.46,-7.95 L152.16,-7.84 L152.85,-7.67 L153.52,-7.44 L154.16,-7.16 L154.78,-6.81 L155.37,-6.42 L155.92,-5.97 L156.42,-5.47 L156.88,-4.94 L157.30,-4.36 L157.65,-3.75 L157.96,-3.11 L158.20,-2.45 L158.39,-1.77 L158.52,-1.07 L158.58,-0.36 L158.58,0.34 L158.52,1.05 L158.40,1.75 L145.62,58.92 L216.84,117.34 L217.36,117.81 L217.84,118.32 L218.27,118.88 L218.65,119.46 L218.98,120.08 L219.26,120.73 L219.47,121.39 L219.63,122.08 L219.73,122.77 L219.76,123.47 L219.74,124.17 L219.65,124.87 L219.50,125.55 L219.30,126.22 L219.03,126.87 L218.71,127.50 L218.34,128.09 L217.91,128.65 L217.44,129.17 L216.93,129.64 L216.37,130.07 L215.78,130.45 L215.16,130.77 L214.51,131.04 L213.84,131.25 L213.16,131.41 L212.47,131.50 L211.76,131.53 Z" fill="#1d1d25" stroke="#3a3a46" stroke-width="1"/><polyline points="76.39,19.80 78.00,23.45 79.61,27.10 81.22,30.75 82.82,34.41 84.43,38.06 86.04,41.71 87.65,45.36 89.26,49.01 91.20,52.45 94.02,55.27 96.84,58.09 99.66,60.91 102.48,63.73 105.18,66.65 105.71,70.52 105.71,74.51 105.71,78.50 105.71,82.49 105.71,86.48 105.71,90.47 105.71,94.46 105.71,98.45 105.71,102.44 105.71,106.43 105.71,110.42 105.71,114.41 105.71,118.40 105.71,122.39 105.71,126.38 105.71,130.37 105.71,134.36 105.71,138.35 105.71,142.35 105.71,146.34 105.71,150.33 105.71,154.32 105.71,158.31 105.71,162.30 105.71,166.29 105.71,170.28 105.71,174.27 105.71,178.26 105.71,182.25 105.71,186.24 105.71,190.23 105.71,194.22 105.71,198.21" fill="none" stroke="#141414" stroke-width="22.0" stroke-linecap="round" stroke-linejoin="round"/><polyline points="76.39,19.80 78.00,23.45 79.61,27.10 81.22,30.75 82.82,34.41 84.43,38.06 86.04,41.71 87.65,45.36 89.26,49.01 91.20,52.45 94.02,55.27 96.84,58.09 99.66,60.91 102.48,63.73 105.18,66.65 105.71,70.52 105.71,74.51 105.71,78.50 105.71,82.49 105.71,86.48 105.71,90.47 105.71,94.46 105.71,98.45 105.71,102.44 105.71,106.43 105.71,110.42 105.71,114.41 105.71,118.40 105.71,122.39 105.71,126.38 105.71,130.37 105.71,134.36 105.71,138.35 105.71,142.35 105.71,146.34 105.71,150.33 105.71,154.32 105.71,158.31 105.71,162.30 105.71,166.29 105.71,170.28 105.71,174.27 105.71,178.26 105.71,182.25 105.71,186.24 105.71,190.23 105.71,194.22 105.71,198.21" fill="none" stroke="#7ec8ff" opacity="0.85" stroke-width="18.0" stroke-linecap="round" stroke-linejoin="round"/><polyline points="210.29,122.93 206.43,121.82 202.56,120.71 198.68,119.63 194.83,118.49 190.97,117.36 187.10,116.23 183.25,115.08 179.38,113.98 175.51,112.89 171.65,111.74 167.79,110.61 163.92,109.50 160.07,108.34 156.20,107.24 152.33,106.14 148.48,104.98 144.61,103.87 140.74,102.76 136.89,101.60 133.02,100.50 129.15,99.39 125.30,98.22 121.43,97.12 117.56,96.02 113.71,94.85 109.84,93.74 105.92,92.92 102.00,93.74 98.13,94.84 94.26,95.94 90.41,97.12 86.54,98.22 82.67,99.32 78.82,100.50 74.95,101.60 71.08,102.70 67.23,103.87 63.36,104.97 59.49,106.07 55.64,107.24 51.77,108.34 47.90,109.45 44.05,110.61 40.18,111.72 36.31,112.82 32.46,113.98 28.59,115.08 24.72,116.20 20.87,117.36 17.00,118.47 13.13,119.55 9.28,120.71 5.41,121.82 1.54,122.93" fill="none" stroke="#141414" stroke-width="22.0" stroke-linecap="round" stroke-linejoin="round"/><polyline points="210.29,122.93 206.43,121.82 202.56,120.71 198.68,119.63 194.83,118.49 190.97,117.36 187.10,116.23 183.25,115.08 179.38,113.98 175.51,112.89 171.65,111.74 167.79,110.61 163.92,109.50 160.07,108.34 156.20,107.24 152.33,106.14 148.48,104.98 144.61,103.87 140.74,102.76 136.89,101.60 133.02,100.50 129.15,99.39 125.30,98.22 121.43,97.12 117.56,96.02 113.71,94.85 109.84,93.74 105.92,92.92 102.00,93.74 98.13,94.84 94.26,95.94 90.41,97.12 86.54,98.22 82.67,99.32 78.82,100.50 74.95,101.60 71.08,102.70 67.23,103.87 63.36,104.97 59.49,106.07 55.64,107.24 51.77,108.34 47.90,109.45 44.05,110.61 40.18,111.72 36.31,112.82 32.46,113.98 28.59,115.08 24.72,116.20 20.87,117.36 17.00,118.47 13.13,119.55 9.28,120.71 5.41,121.82 1.54,122.93" fill="none" stroke="#7ec8ff" opacity="0.85" stroke-width="18.0" stroke-linecap="round" stroke-linejoin="round"/><polyline points="152.24,123.22 149.18,122.79 146.11,122.36 143.05,121.96 139.98,121.60 136.91,121.22 133.84,120.83 130.77,120.39 127.70,119.98 124.88,120.93 122.71,123.13 122.24,126.14" fill="none" stroke="#141414" stroke-width="22.0" stroke-linecap="round" stroke-linejoin="round"/><polyline points="152.24,123.22 149.18,122.79 146.11,122.36 143.05,121.96 139.98,121.60 136.91,121.22 133.84,120.83 130.77,120.39 127.70,119.98 124.88,120.93 122.71,123.13 122.24,126.14" fill="none" stroke="#7ec8ff" opacity="0.85" stroke-width="18.0" stroke-linecap="round" stroke-linejoin="round"/><polyline points="73.76,55.09 74.69,57.83 75.60,60.57 76.22,63.39 76.26,66.29 76.26,69.18 76.26,72.08 76.67,74.79 79.39,75.55 82.23,76.12 85.07,76.64" fill="none" stroke="#141414" stroke-width="22.0" stroke-linecap="round" stroke-linejoin="round"/><polyline points="73.76,55.09 74.69,57.83 75.60,60.57 76.22,63.39 76.26,66.29 76.26,69.18 76.26,72.08 76.67,74.79 79.39,75.55 82.23,76.12 85.07,76.64" fill="none" stroke="#7ec8ff" opacity="0.85" stroke-width="18.0" stroke-linecap="round" stroke-linejoin="round"/><polyline points="134.48,41.44 131.61,41.33 128.73,41.22 125.86,41.12 123.01,40.76 120.14,40.71 117.26,40.71 114.41,40.39 111.54,40.29 108.72,39.79 106.06,38.72 103.66,37.16 101.92,34.88" fill="none" stroke="#141414" stroke-width="22.0" stroke-linecap="round" stroke-linejoin="round"/><polyline points="134.48,41.44 131.61,41.33 128.73,41.22 125.86,41.12 123.01,40.76 120.14,40.71 117.26,40.71 114.41,40.39 111.54,40.29 108.72,39.79 106.06,38.72 103.66,37.16 101.92,34.88" fill="none" stroke="#7ec8ff" opacity="0.85" stroke-width="18.0" stroke-linecap="round" stroke-linejoin="round"/><polyline points="178.59,96.68 175.99,95.23 173.33,93.88 170.66,92.54 168.01,91.17 165.35,89.83 162.68,88.50 160.05,87.09 157.43,85.68 154.76,84.34 152.08,83.02 149.43,81.67 146.77,80.31 144.09,78.99 141.46,77.60 138.80,76.25 136.14,74.90 133.47,73.56 130.88,72.08 129.51,69.47 129.42,66.49 129.42,63.50 129.00,60.55 129.00,57.57 128.62,54.62 128.59,51.63 128.18,48.68 127.76,45.73 127.02,42.85 127.60,39.94 129.03,37.33 130.50,34.74 131.97,32.14 133.43,29.54 134.95,26.97 136.43,24.38 137.99,21.84 139.45,19.24 140.91,16.64 142.41,14.06 143.92,11.48 145.40,8.89 146.88,6.30 148.37,3.72 149.84,1.13" fill="none" stroke="#141414" stroke-width="22.0" stroke-linecap="round" stroke-linejoin="round"/><polyline points="178.59,96.68 175.99,95.23 173.33,93.88 170.66,92.54 168.01,91.17 165.35,89.83 162.68,88.50 160.05,87.09 157.43,85.68 154.76,84.34 152.08,83.02 149.43,81.67 146.77,80.31 144.09,78.99 141.46,77.60 138.80,76.25 136.14,74.90 133.47,73.56 130.88,72.08 129.51,69.47 129.42,66.49 129.42,63.50 129.00,60.55 129.00,57.57 128.62,54.62 128.59,51.63 128.18,48.68 127.76,45.73 127.02,42.85 127.60,39.94 129.03,37.33 130.50,34.74 131.97,32.14 133.43,29.54 134.95,26.97 136.43,24.38 137.99,21.84 139.45,19.24 140.91,16.64 142.41,14.06 143.92,11.48 145.40,8.89 146.88,6.30 148.37,3.72 149.84,1.13" fill="none" stroke="#7ec8ff" opacity="0.85" stroke-width="18.0" stroke-linecap="round" stroke-linejoin="round"/><line x1="76.4" y1="19.8" x2="83.2" y2="35.4" stroke="#66d19e" stroke-width="1.1" stroke-opacity="0.85"/><line x1="83.2" y1="35.4" x2="90.3" y2="50.9" stroke="#66d19e" stroke-width="1.1" stroke-opacity="0.85"/><line x1="90.3" y1="50.9" x2="101.9" y2="63.2" stroke="#66d19e" stroke-width="1.1" stroke-opacity="0.85"/><line x1="101.9" y1="63.2" x2="105.7" y2="79.6" stroke="#66d19e" stroke-width="1.1" stroke-opacity="0.85"/><line x1="105.7" y1="79.6" x2="105.7" y2="96.3" stroke="#66d19e" stroke-width="1.1" stroke-opacity="0.85"/><line x1="105.7" y1="96.3" x2="105.7" y2="113.3" stroke="#66d19e" stroke-width="1.1" stroke-opacity="0.85"/><line x1="105.7" y1="113.3" x2="105.7" y2="130.4" stroke="#66d19e" stroke-width="1.1" stroke-opacity="0.85"/><line x1="105.7" y1="130.4" x2="105.7" y2="147.4" stroke="#66d19e" stroke-width="1.1" stroke-opacity="0.85"/><line x1="105.7" y1="147.4" x2="105.7" y2="164.4" stroke="#66d19e" stroke-width="1.1" stroke-opacity="0.85"/><line x1="105.7" y1="164.4" x2="105.7" y2="181.4" stroke="#66d19e" stroke-width="1.1" stroke-opacity="0.85"/><line x1="105.7" y1="181.4" x2="105.7" y2="198.2" stroke="#66d19e" stroke-width="1.1" stroke-opacity="0.85"/><line x1="105.7" y1="198.2" x2="210.3" y2="122.9" stroke="#ff9d5c" stroke-dasharray="5 4" stroke-width="1.6"/><line x1="210.3" y1="122.9" x2="194.1" y2="118.3" stroke="#66d19e" stroke-width="1.1" stroke-opacity="0.85"/><line x1="194.1" y1="118.3" x2="177.9" y2="113.6" stroke="#66d19e" stroke-width="1.1" stroke-opacity="0.85"/><line x1="177.9" y1="113.6" x2="161.8" y2="108.8" stroke="#66d19e" stroke-width="1.1" stroke-opacity="0.85"/><line x1="161.8" y1="108.8" x2="145.8" y2="104.2" stroke="#66d19e" stroke-width="1.1" stroke-opacity="0.85"/><line x1="145.8" y1="104.2" x2="129.9" y2="99.6" stroke="#66d19e" stroke-width="1.1" stroke-opacity="0.85"/><line x1="129.9" y1="99.6" x2="81.2" y2="99.8" stroke="#66d19e" stroke-width="1.1" stroke-opacity="0.85"/><line x1="81.2" y1="99.8" x2="65.3" y2="104.4" stroke="#66d19e" stroke-width="1.1" stroke-opacity="0.85"/><line x1="65.3" y1="104.4" x2="49.4" y2="109.0" stroke="#66d19e" stroke-width="1.1" stroke-opacity="0.85"/><line x1="49.4" y1="109.0" x2="33.4" y2="113.7" stroke="#66d19e" stroke-width="1.1" stroke-opacity="0.85"/><line x1="33.4" y1="113.7" x2="17.5" y2="118.3" stroke="#66d19e" stroke-width="1.1" stroke-opacity="0.85"/><line x1="17.5" y1="118.3" x2="1.5" y2="122.9" stroke="#66d19e" stroke-width="1.1" stroke-opacity="0.85"/><line x1="1.5" y1="122.9" x2="152.2" y2="123.2" stroke="#ff9d5c" stroke-dasharray="5 4" stroke-width="1.6"/><line x1="152.2" y1="123.2" x2="136.9" y2="121.2" stroke="#66d19e" stroke-width="1.1" stroke-opacity="0.85"/><line x1="136.9" y1="121.2" x2="122.2" y2="126.1" stroke="#66d19e" stroke-width="1.1" stroke-opacity="0.85"/><line x1="122.2" y1="126.1" x2="73.8" y2="55.1" stroke="#66d19e" stroke-width="1.1" stroke-opacity="0.85"/><line x1="73.8" y1="55.1" x2="85.1" y2="76.6" stroke="#66d19e" stroke-width="1.1" stroke-opacity="0.85"/><line x1="85.1" y1="76.6" x2="134.5" y2="41.4" stroke="#66d19e" stroke-width="1.1" stroke-opacity="0.85"/><line x1="134.5" y1="41.4" x2="117.8" y2="40.7" stroke="#66d19e" stroke-width="1.1" stroke-opacity="0.85"/><line x1="117.8" y1="40.7" x2="101.9" y2="34.9" stroke="#66d19e" stroke-width="1.1" stroke-opacity="0.85"/><line x1="101.9" y1="34.9" x2="178.6" y2="96.7" stroke="#66d19e" stroke-width="1.1" stroke-opacity="0.85"/><line x1="178.6" y1="96.7" x2="164.1" y2="89.2" stroke="#66d19e" stroke-width="1.1" stroke-opacity="0.85"/><line x1="164.1" y1="89.2" x2="149.7" y2="81.8" stroke="#66d19e" stroke-width="1.1" stroke-opacity="0.85"/><line x1="149.7" y1="81.8" x2="135.4" y2="74.5" stroke="#66d19e" stroke-width="1.1" stroke-opacity="0.85"/><line x1="135.4" y1="74.5" x2="129.0" y2="59.7" stroke="#66d19e" stroke-width="1.1" stroke-opacity="0.85"/><line x1="129.0" y1="59.7" x2="141.9" y2="15.0" stroke="#66d19e" stroke-width="1.1" stroke-opacity="0.85"/><line x1="141.9" y1="15.0" x2="149.8" y2="1.1" stroke="#66d19e" stroke-width="1.1" stroke-opacity="0.85"/><circle cx="76.39" cy="19.80" r="6.15" fill="#ffd24d" fill-opacity="0.9"/><circle cx="83.25" cy="35.38" r="6.15" fill="#ffd24d" fill-opacity="0.9"/><circle cx="90.29" cy="50.85" r="6.15" fill="#ffd24d" fill-opacity="0.9"/><circle cx="101.92" cy="63.17" r="6.15" fill="#ffd24d" fill-opacity="0.9"/><circle cx="105.71" cy="79.57" r="6.15" fill="#ffd24d" fill-opacity="0.9"/><circle cx="105.71" cy="96.32" r="6.15" fill="#ffd24d" fill-opacity="0.9"/><circle cx="105.71" cy="113.35" r="6.15" fill="#ffd24d" fill-opacity="0.9"/><circle cx="105.71" cy="130.37" r="6.15" fill="#ffd24d" fill-opacity="0.9"/><circle cx="105.71" cy="147.40" r="6.15" fill="#ffd24d" fill-opacity="0.9"/><circle cx="105.71" cy="164.42" r="6.15" fill="#ffd24d" fill-opacity="0.9"/><circle cx="105.71" cy="181.45" r="6.15" fill="#ffd24d" fill-opacity="0.9"/><circle cx="105.71" cy="198.21" r="6.15" fill="#ffd24d" fill-opacity="0.9"/><circle cx="210.29" cy="122.93" r="6.15" fill="#ffd24d" fill-opacity="0.9"/><circle cx="194.10" cy="118.28" r="6.15" fill="#ffd24d" fill-opacity="0.9"/><circle cx="177.92" cy="113.57" r="6.15" fill="#ffd24d" fill-opacity="0.9"/><circle cx="161.75" cy="108.85" r="6.15" fill="#ffd24d" fill-opacity="0.9"/><circle cx="145.82" cy="104.22" r="6.15" fill="#ffd24d" fill-opacity="0.9"/><circle cx="129.87" cy="99.60" r="6.15" fill="#ffd24d" fill-opacity="0.9"/><circle cx="81.23" cy="99.76" r="6.15" fill="#ffd24d" fill-opacity="0.9"/><circle cx="65.30" cy="104.42" r="6.15" fill="#ffd24d" fill-opacity="0.9"/><circle cx="49.35" cy="109.03" r="6.15" fill="#ffd24d" fill-opacity="0.9"/><circle cx="33.42" cy="113.69" r="6.15" fill="#ffd24d" fill-opacity="0.9"/><circle cx="17.49" cy="118.33" r="6.15" fill="#ffd24d" fill-opacity="0.9"/><circle cx="1.54" cy="122.93" r="6.15" fill="#ffd24d" fill-opacity="0.9"/><circle cx="152.24" cy="123.22" r="6.15" fill="#ffd24d" fill-opacity="0.9"/><circle cx="136.91" cy="121.22" r="6.15" fill="#ffd24d" fill-opacity="0.9"/><circle cx="122.24" cy="126.14" r="6.15" fill="#ffd24d" fill-opacity="0.9"/><circle cx="73.76" cy="55.09" r="6.15" fill="#ffd24d" fill-opacity="0.9"/><circle cx="85.07" cy="76.64" r="6.15" fill="#ffd24d" fill-opacity="0.9"/><circle cx="134.48" cy="41.44" r="6.15" fill="#ffd24d" fill-opacity="0.9"/><circle cx="117.78" cy="40.71" r="6.15" fill="#ffd24d" fill-opacity="0.9"/><circle cx="101.92" cy="34.88" r="6.15" fill="#ffd24d" fill-opacity="0.9"/><circle cx="178.59" cy="96.68" r="6.15" fill="#ffd24d" fill-opacity="0.9"/><circle cx="164.14" cy="89.22" r="6.15" fill="#ffd24d" fill-opacity="0.9"/><circle cx="149.67" cy="81.79" r="6.15" fill="#ffd24d" fill-opacity="0.9"/><circle cx="135.41" cy="74.53" r="6.15" fill="#ffd24d" fill-opacity="0.9"/><circle cx="129.00" cy="59.74" r="6.15" fill="#ffd24d" fill-opacity="0.9"/><circle cx="141.87" cy="15.00" r="6.15" fill="#ffd24d" fill-opacity="0.9"/><circle cx="149.84" cy="1.13" r="6.15" fill="#ffd24d" fill-opacity="0.9"/><circle cx="76.39" cy="19.80" r="8.65" fill="none" stroke="#66d19e" stroke-width="1.6"/></g><text x="86.4" y="-15.8" fill="#66d19e" font-size="11" font-family="system-ui">DATA IN</text></svg>